/* XPM */
static char *result[] = {
/* columns rows colors chars-per-pixel */
"64 64 136 2 ",
"   c #9F744B",
".  c #A0744B",
"X  c #A1754B",
"o  c #A1754C",
"O  c #A2764C",
"+  c #A3764C",
"@  c #A4774D",
"#  c #A5774D",
"$  c #A5784D",
"%  c #A6784D",
"&  c #A7794E",
"*  c #A87A4E",
"=  c #A97A4E",
"-  c #AA7B4F",
";  c #A17850",
":  c #A37C55",
">  c #A5805A",
",  c #A8845F",
"<  c #AA8864",
"1  c #AC8D69",
"2  c #B19573",
"3  c #B39978",
"4  c #B69D7D",
"5  c #63C5CF",
"6  c #65C5CF",
"7  c #66C6D0",
"8  c #68C6D0",
"9  c #69C7D0",
"0  c #68C7D1",
"q  c #6AC7D1",
"w  c #6CC8D1",
"e  c #6DC8D1",
"r  c #6EC8D2",
"t  c #70C9D2",
"y  c #71C9D2",
"u  c #70C9D3",
"i  c #72CAD3",
"p  c #76CBD3",
"a  c #75CBD4",
"s  c #77CCD5",
"d  c #7DCDD4",
"f  c #7FCED6",
"g  c #B8A282",
"h  c #BAA687",
"j  c #B3A78C",
"k  c #B3A78D",
"l  c #B2A78E",
"z  c #B4A78C",
"x  c #B2A88D",
"c  c #B1A88E",
"v  c #B1A88F",
"b  c #B0A98F",
"n  c #B2A88E",
"m  c #B3A88E",
"M  c #B2A88F",
"N  c #B5A88C",
"B  c #B4A88D",
"V  c #B6A98D",
"C  c #B7AA8E",
"Z  c #B8AB8F",
"A  c #BDAA8C",
"S  c #AFA990",
"D  c #AEA991",
"F  c #AFA991",
"G  c #AEAA91",
"H  c #ACAA92",
"J  c #AFAE9B",
"K  c #B0A890",
"L  c #B1A890",
"P  c #B2AC97",
"I  c #B9AC90",
"U  c #BAAD91",
"Y  c #BBAE92",
"T  c #BFAE91",
"R  c #BCAF93",
"E  c #BDB094",
"W  c #BEB195",
"Q  c #BFB296",
"!  c #AAB6A5",
"~  c #ABB7A6",
"^  c #AFB6A4",
"/  c #ACB7A7",
"(  c #AFBBAC",
")  c #AEBCAD",
"_  c #B1B5A1",
"`  c #B2B4A1",
"'  c #B3B5A2",
"]  c #B0B9A9",
"[  c #ADBFB2",
"{  c #C1B296",
"}  c #C0B397",
"|  c #C1B498",
" . c #C2B599",
".. c #C3B69A",
"X. c #C4B79B",
"o. c #AFC1B3",
"O. c #A8C0B4",
"+. c #ADC1B4",
"@. c #AFC0B4",
"#. c #AEC0B5",
"$. c #B0C0B4",
"%. c #9BC6C2",
"&. c #91CDCE",
"*. c #97CECD",
"=. c #9CCCCB",
"-. c #9FCCCB",
";. c #9BCCCC",
":. c #9CCECF",
">. c #80CCD3",
",. c #85CDD2",
"<. c #82CDD4",
"1. c #80CED5",
"2. c #82CFD6",
"3. c #86CFD5",
"4. c #8DCFD4",
"5. c #93CED1",
"6. c #91CED3",
"7. c #92CED2",
"8. c #94CED0",
"9. c #84D0D6",
"0. c #87D0D7",
"q. c #88D0D6",
"w. c #8CD0D5",
"e. c #91D1D4",
"r. c #90D0D5",
"t. c #95D0D4",
"y. c #A5C7C1",
"u. c #A7C7C0",
"i. c #A6C9C3",
"p. c #A2CAC5",
"a. c #A0C9C6",
"s. c #A6CBC7",
"d. c #A8C9C3",
"f. c #ABC9C2",
"g. c #A9CCC7",
"h. c #A1CECD",
/* pixels */
"5 5 5 5 5 5 5 5 6 i r 5 5 5 5 5 5 5 q i i q 5 5 5 5 5 5 5 5 5 5 5 5 5 5 5 5 5 5 7 i r 5 5 5 5 5 5 5 q i i 9 5 5 5 5 5 5 5 5 5 5 ",
"5 5 5 5 5 5 5 5 5 i i 5 5 5 5 5 5 5 q i i 9 5 5 5 5 5 5 5 5 5 5 5 5 5 5 5 5 5 5 5 i i 5 5 5 5 5 5 5 q i i 7 5 5 5 5 5 5 5 5 5 5 ",
"5 5 5 5 5 5 5 5 5 i i 5 5 5 5 5 5 5 6 i i q 5 5 5 5 5 5 5 5 5 5 5 5 5 5 5 5 5 5 5 i i 5 5 5 5 5 5 5 5 i i 9 5 5 5 5 5 5 5 5 5 5 ",
"5 5 5 5 5 5 5 5 7 i i 5 5 5 5 5 5 5 5 q i y 5 5 5 5 5 5 5 5 5 5 5 5 5 5 5 5 5 5 8 i i 5 5 5 5 5 5 5 5 q i t 6 5 5 5 5 5 5 5 5 5 ",
"5 5 5 5 5 5 5 5 t i y 5 5 5 5 5 5 5 5 5 q i t 6 5 <.=.u.[ [ [ [ [ [ [ [ u.=.>.6 y i y 5 5 5 5 5 5 5 5 5 w i t 5 5 5 5 5 5 5 5 5 ",
"7 5 5 5 5 5 6 t i i i r 5 5 5 5 5 5 5 5 6 2.h.+.b z z z z z z z z z z z z z z v @.h.f r 5 5 5 5 5 5 5 5 8 i i y 8 7 7 7 7 7 7 7 ",
"i t q q q q i i t r t i t 7 5 5 5 5 6 4.o.L z z z Z R E } } } } } } } } E R Z z z z k o.e.7 5 5 5 5 6 w y i i i i i i i i i i i ",
"i i i i i i i q 5 5 5 8 i i t r r r.#.m z N U } X.X.X.X.X.X.X.X.X.X.X.X.X.X.X.X.Q U z z z $.e.r r t i i y 9 6 5 5 w y i i i e q ",
"i i i i t e 6 5 5 5 5 5 9 i i s d.n z V W ..X.X.X.X.X.X.X.X.X.X.X.X.X.X.X.X.X.X.X.X...E V z z f.a t r q 5 5 5 5 5 5 5 w i i t r ",
"q 5 5 5 5 5 5 5 5 5 5 5 5 y w.~ z N Q X.X.X.X.X.X.X.X.X.X.X.X.X.X.X.X.X.X.X.X.X.X.X.X.X.X.W N z ` ,.5 5 5 5 5 5 5 5 5 5 t i i i ",
"5 5 5 5 5 5 5 5 5 5 5 5 5 8.F z Y X.X.X.X.X.X.X.X.X.X.X.X.X.X.X.X.X.X.X.X.X.X.X.X.X.X.X.X.X...I z j *.5 5 5 5 5 5 5 5 5 i i q 7 ",
"5 5 5 5 5 5 5 5 5 5 5 5 %.n N } X.X.X.X.X.X.X.X.X.T g 2 , , , , , , , < 2 h { X.X.X.X.X.X.X.X.X.W z z y.5 5 5 5 5 5 5 8 i r 5 5 ",
"5 5 5 5 5 5 5 5 5 5 5 ;.k C ..X.X.X.X.X.X.X.{ 3 >                             < 4 X.X.X.X.X.X.X.X.| N z -.5 5 5 5 5 5 9 i r 5 5 ",
"5 5 5 5 5 5 5 5 5 5 7.n N ..X.X.X.X.X.X.X.2         X @ $ & &     & & % @ O       : 3 X.X.X.X.X.X.X.| z z 5.5 5 5 5 5 6 i t 5 5 ",
"5 5 5 5 5 5 5 5 5 6.L z W X.X.X.X.X.X.g ;     X $ = - - - - -     - - - - - = $ X     , A X.X.X.X.X.X.W z z 5.5 5 5 5 5 t i 8 5 ",
"5 5 5 5 5 5 5 5 1.J z W X.X.X.X.X.{ <     X % - - - - - - - -     - - - - - - - - & o     4 X.X.X.X.X.X.W z P d 5 5 5 5 8 i w 5 ",
"5 5 5 5 5 5 5 u ) z U X.X.X.X.X.{ >     @ - - - - - - - - - -     - - - - - - - - - - #     1 X.X.X.X.X.X.U z ] 0 5 5 5 5 i r 5 ",
"5 5 5 5 5 5 w i.z C ..X.X.X.X.X.3     & - - - - - - - - - - -     - - - - - - - - - - - * X   2 X.X.X.X.X...C z u.5 5 5 5 i r 5 ",
"5 5 5 5 5 e q.v N | X.X.X.X.X.4     & - - - - - - - - - - - -     - - - - - - - - - - - - = .   4 X.X.X.X.X.| N z >.5 5 5 i r 5 ",
"5 5 5 8 i i / z R X.X.X.X.X.4     & - - - - - - - - - - - - -     - - - - - - - - - - - - - &     4 X.X.X.X.X.R z _ 5 5 7 i 9 5 ",
"5 5 5 r i t.j N ..X.X.X.X.A ;   & - - - - - - - - - - - - - -     - - - - - - - - - - - - - - &   ; A X.X.X.X...N z 5.5 q i 6 5 ",
"5 5 5 i i ( z E X.X.X.X.X.,   @ - - - - - - - - - - - - - - -     - - - - - - - - - - - - - - - @   , X.X.X.X.X.E z ] 6 i t 5 5 ",
"5 5 9 i 9.k N ..X.X.X.X.3   o - - - - - - - - - - - - - - - -     - - - - - - - - - - - - - - - - o   3 X.X.X.X...N z 3.i q 5 5 ",
"8 r i i s.z Y X.X.X.X.X.;   & - - - - - - - - - - - - - - - -     - - - - - - - - - - - - - - - - &   ; X.X.X.X.X.Y z g.y 5 5 5 ",
"i i i i ^ z Q X.X.X.X.4   o - - - - - - - - - - - - - - - - -     - - - - - - - - - - - - - - - - - o   4 X.X.X.X.Q z ' y r t i ",
"9 5 5 p k N X.X.X.X.X.>   & - - - - - - - - - - - - - - - - -     - - - - - - - - - - - - - - - - - &   > X.X.X.X.X.N z 0.i i i ",
"5 5 5 &.z I X.X.X.X.T     - - - - - - - - - - - - - - - - - -     - - - - - - - - - - - - - - - - - -     T X.X.X.X.I z :.8 5 5 ",
"5 5 5 a.z R X.X.X.X.4   + - - - - - - - - - - - - - - - - - -     - - - - - - - - - - - - - - - - - - +   4 X.X.X.X.R z p.5 5 5 ",
"5 5 5 O.z } X.X.X.X.1   $ - - - - - - - - - - - - - - - - - -     - - - - - - - - - - - - - - - - - - $   1 X.X.X.X.} z [ 5 5 5 ",
"5 5 5 ! z  .X.X.X.X.,   & - - - - - - - - - - - - - - - - - -     - - - - - - - - - - - - - - - - - - &   , X.X.X.X. .z _ 5 5 5 ",
"5 5 5 H z X.X.X.X.X.    - - - - - - - - - - - - - - - - - - -     - - - - - - - - - - - - - - - - - - -     X.X.X.X.X.z k 5 5 5 ",
"5 5 5 D z X.X.X.X.X.    - - - - - - - - - - - - - - - - - - -     - - - - - - - - - - - - - - - - - - -     X.X.X.X.X.z k 5 5 5 ",
"5 5 5 G z X.X.X.X.X.    - - - - - - - - - - - - - - - - - - -     - - - - - - - - - - - - - - - - - - -     X.X.X.X.X.z j 5 5 5 ",
"5 5 5 K z X.X.X.X.X.    - - - - - - - - - - - - - - - - - - -     - - - - - - - - - - - - - - - - - - -     X.X.X.X.X.z B 5 5 5 ",
"5 5 5 v z X.X.X.X.X.    - - - - - - - - - - - - - - - - - - -     - - - - - - - - - - - - - - - - - - -     X.X.X.X.X.z B 5 5 5 ",
"5 5 5 c z X.X.X.X.X.    - - - - - - - - - - - - - - - - - - -     - - - - - - - - - - - - - - - - - - -     X.X.X.X.X.z B 5 5 5 ",
"5 5 5 c z X.X.X.X.X.    - - - - - - - - - - - - - - - - - - -     - - - - - - - - - - - - - - - - - - -     X.X.X.X.X.z B 5 5 5 ",
"5 5 5 c z X.X.X.X.X.    - - - - - - - - - - - - - - - - - - -     - - - - - - - - - - - - - - - - - - -     X.X.X.X.X.z j 5 6 7 ",
"y q 7 v z X.X.X.X.X.    - - - - - - - - - - - - - - - - - - -     - - - - - - - - - - - - - - - - - - -     X.X.X.X.X.z j i i i ",
"i i i M z X.X.X.X.X.    - - - - - - - - - - - - - - - - - - -     - - - - - - - - - - - - - - - - - - -     X.X.X.X.X.z j i e q ",
"i i i n z X.X.X.X.X.    - - - - - - - - - - - - - - - - - - -     - - - - - - - - - - - - - - - - - - -     X.X.X.X.X.z j i e w ",
"r 8 7 n z X.X.X.X.X.    - - - - - - - - - - - - - - - - - - -     - - - - - - - - - - - - - - - - - - -     X.X.X.X.X.z j i i i ",
"5 5 5 l z X.X.X.X.X.    - - - - - - - - - - - - - - - - - - -     - - - - - - - - - - - - - - - - - - -     X.X.X.X.X.z j i q 7 ",
"5 5 5 l z X.X.X.X.X.    - - - - - - - - - - - - - - - - - - -     - - - - - - - - - - - - - - - - - - -     X.X.X.X.X.z j r 5 5 ",
"5 5 5 l z X.X.X.X.X.    - - - - - - - - - - - - - - - - - - -     - - - - - - - - - - - - - - - - - - -     X.X.X.X.X.z j r 5 5 ",
"5 5 5 l z X.X.X.X.X.    - - - - - - - - - - - - - - - - - - -     - - - - - - - - - - - - - - - - - - -     X.X.X.X.X.z j t 5 5 ",
"5 5 5 l z X.X.X.X.X.    - - - - - - - - - - - - - - - - - - -     - - - - - - - - - - - - - - - - - - -     X.X.X.X.X.z j i 9 5 ",
"5 5 5 l z X.X.X.X.X.    - - - - - - - - - - - - - - - - - - -     - - - - - - - - - - - - - - - - - - -     X.X.X.X.X.z j i e 5 ",
"5 5 5 l z X.X.X.X.X.    - - - - - - - - - - - - - - - - - - -     - - - - - - - - - - - - - - - - - - -     X.X.X.X.X.z B i r 5 ",
"5 5 5 v z X.X.X.X.X.    - - - - - - - - - - - - - - - - - - -     - - - - - - - - - - - - - - - - - - -     X.X.X.X.X.z B i r 5 ",
"5 5 5 v z X.X.X.X.X.    - - - - - - - - - - - - - - - - - - -     - - - - - - - - - - - - - - - - - - -     X.X.X.X.X.z B i r 5 ",
"5 5 5 v z X.X.X.X.X.    - - - - - - - - - - - - - - - - - - -     - - - - - - - - - - - - - - - - - - -     X.X.X.X.X.z B i 9 5 ",
"5 5 5 v z X.X.X.X.X.    - - - - - - - - - - - - - - - - - - -     - - - - - - - - - - - - - - - - - - -     X.X.X.X.X.z B i 5 5 ",
"5 5 5 n z X.X.X.X.X.    - - - - - - - - - - - - - - - - - - -     - - - - - - - - - - - - - - - - - - -     X.X.X.X.X.z k r 5 5 ",
"5 5 q n z X.X.X.X.X.    - - - - - - - - - - - - - - - - - - -     - - - - - - - - - - - - - - - - - - -     X.X.X.X.X.z k 8 5 5 ",
"7 e i n z X.X.X.X.X.    - - - - - - - - - - - - - - - - - - -     - - - - - - - - - - - - - - - - - - -     X.X.X.X.X.z k 5 5 5 ",
"i i i n z X.X.X.X.X.    - - - - - - - - - - - - - - - - - - -     - - - - - - - - - - - - - - - - - - -     X.X.X.X.X.z k q q e ",
"r 8 7 v z X.X.X.X.X.    - - - - - - - - - - - - - - - - - - -     - - - - - - - - - - - - - - - - - - -     X.X.X.X.X.z k i i i ",
"5 5 5 S z X.X.X.X.X.    - - - - - - - - - - - - - - - - - - -     - - - - - - - - - - - - - - - - - - -     X.X.X.X.X.z x r q 5 ",
"5 5 5 F z X.X.X.X.X.    - - - - - - - - - - - - - - - - - - -     - - - - - - - - - - - - - - - - - - -     X.X.X.X.X.z l 5 5 5 ",
"5 5 5 S z X.X.X.X.X.    - - - - - - - - - - - - - - - - - - -     - - - - - - - - - - - - - - - - - - -     X.X.X.X.X.z l 5 5 5 ",
"5 5 5 S z X.X.X.X.X.    - - - - - - - - - - - - - - - - - - -     - - - - - - - - - - - - - - - - - - -     X.X.X.X.X.z n 5 5 5 ",
"5 5 5 F z X.X.X.X.X.                                                                                        X.X.X.X.X.z x 5 5 5 ",
"5 5 5 v z X.X.X.X.X.                                                                                        X.X.X.X.X.z B 5 5 5 "
};
