/* XPM */
static char *result[] = {
/* columns rows colors chars-per-pixel */
"64 64 249 2 ",
"   c #050100",
".  c #0B0000",
"X  c #0D0D08",
"o  c #130100",
"O  c #1A0501",
"+  c #130A00",
"@  c #1B0B00",
"#  c #1B1708",
"$  c #181715",
"%  c #240C00",
"&  c #241B05",
"*  c #321E0A",
"=  c #321B13",
"-  c #33210B",
";  c #362706",
":  c #3A2817",
">  c #3E3313",
",  c #29230A",
"<  c #342F2A",
"1  c #412F0B",
"2  c #473A18",
"3  c #453310",
"4  c #4A3B25",
"5  c #53392F",
"6  c #51441F",
"7  c #574929",
"8  c #534C36",
"9  c #66573A",
"0  c #72563E",
"q  c #644F32",
"w  c #75683E",
"e  c #5B5B58",
"r  c #564E44",
"t  c #695748",
"y  c #6A5A54",
"u  c #755D56",
"i  c #765C49",
"p  c #6B6349",
"a  c #746643",
"s  c #68645A",
"d  c #756756",
"f  c #767156",
"g  c #646564",
"h  c #6B6A69",
"j  c #777267",
"k  c #757574",
"l  c #826958",
"z  c #877858",
"x  c #92795A",
"c  c #8A7C67",
"v  c #927A65",
"b  c #857B72",
"n  c #9C865C",
"m  c #9A8A6E",
"M  c #978469",
"N  c #878178",
"B  c #9C8B73",
"V  c #988879",
"C  c #9E927A",
"Z  c #82806B",
"A  c #A48D6C",
"S  c #A5966A",
"D  c #A38C71",
"F  c #A69576",
"G  c #B59B7A",
"H  c #B9A77B",
"J  c #B5A573",
"K  c #C8AD78",
"L  c #CDB47A",
"P  c #CBB377",
"I  c #D4BB7C",
"U  c #DBBB7C",
"Y  c #D8B778",
"T  c #D0B36D",
"R  c #E1BD7C",
"E  c #D9C37A",
"W  c #E2C778",
"Q  c #E1C36D",
"!  c #8D8C88",
"~  c #9C9689",
"^  c #9C9B9B",
"/  c gray58",
"(  c #AC9D84",
")  c #A79987",
"_  c #B49981",
"`  c #AAA186",
"'  c #B8A886",
"]  c #BBB38A",
"[  c #A6A297",
"{  c #B8AB95",
"}  c #BCB49B",
"|  c #A3A3A3",
" . c #ACA9A7",
".. c #B2AEA4",
"X. c #B7B3A8",
"o. c gray71",
"O. c #BCBBB7",
"+. c #B8ADB1",
"@. c #C4AA8B",
"#. c #CABA85",
"$. c #C9B588",
"%. c #D4BB83",
"&. c #DABB84",
"*. c #D3B58A",
"=. c #D4BC8B",
"-. c #DCBD89",
";. c #D6B583",
":. c #C7AD96",
">. c #CCBB94",
",. c #C8B697",
"<. c #D4BD93",
"1. c #DABE93",
"2. c #D5B998",
"3. c #D5AE8D",
"4. c #E2BC87",
"5. c #E3BB98",
"6. c #CABAA7",
"7. c #D6BBA4",
"8. c #C5BCBA",
"9. c #E0BEA2",
"0. c #CBC28D",
"q. c #DBC285",
"w. c #DCC38B",
"e. c #D6C488",
"r. c #CBC296",
"t. c #D3C492",
"y. c #DBC294",
"u. c #D4C39C",
"i. c #DBC39B",
"p. c #DDCB9B",
"a. c #D9CB93",
"s. c #DFD49E",
"d. c #E4C285",
"f. c #E3C38C",
"g. c #EBCA8C",
"h. c #E7C88B",
"j. c #E2C494",
"k. c #E4CB94",
"l. c #EACD93",
"z. c #E3CA9C",
"x. c #E9CA9C",
"c. c #F3CD95",
"v. c #EBD293",
"b. c #ECD39A",
"n. c #E8D89C",
"m. c #F4D294",
"M. c #F4D49B",
"N. c #F5DB9D",
"B. c #FCDB9D",
"V. c #F9D797",
"C. c #F0D18D",
"Z. c #FDE29E",
"A. c #F5E59A",
"S. c #ECE290",
"D. c #CCC8A7",
"F. c #DBC4A3",
"G. c #DDCAAA",
"H. c #D7C8A4",
"J. c #DBD1A8",
"K. c #C5C1B5",
"L. c #CAC5B8",
"P. c #D7CBB8",
"I. c #DAD1B6",
"U. c #E3CBA3",
"Y. c #EACEA3",
"T. c #E5C8A9",
"R. c #EDD3A3",
"E. c #EEDBA3",
"W. c #E7D6AA",
"Q. c #F4D5A3",
"!. c #F4DBA2",
"~. c #FDDCA4",
"^. c #F2D4AC",
"/. c #F4DCAB",
"(. c #FDDDAB",
"). c #FCD5A5",
"_. c #E7CCB7",
"`. c #E8D8B3",
"'. c #F6DCB4",
"]. c #FEDDB3",
"[. c #F3DCBD",
"{. c #FBDCBB",
"}. c #FEE3A4",
"|. c #FEE3AC",
" X c #FEEAAD", //
".X c #F7E6A7",
"XX c #EDE2B9",
"oX c #F4E4B4", //
"OX c #FDE4B3", //
"+X c #FFEAB3", //
"@X c #FDE4BB", //
"#X c #FFEBBB", //
"$X c #F3E6B8",
"%X c #FEF2B9",
"&X c #F1EAA7",
"*X c #C4C4C4",
"=X c #CCCCCB",
"-X c #C8C6C6",
";X c #D6CDC4",
":X c #DCD4CD",
">X c #DBD9CE",
",X c #D8D5C8",
"<X c #D4D4D4",
"1X c #DED5D3",
"2X c #DDDAD3",
"3X c #DCDBDB",
"4X c #DAD8D6",
"5X c #D4D0CE",
"6X c #E4D9C7",
"7X c #FCDEC2", //
"8X c #E0D6D2",
"9X c #E5DAD2",
"0X c #F4E3C3",
"qX c #FEE3C4", //
"wX c #FDECC3",
"eX c #FEEDCA", //
"rX c #F9E8CA",
"tX c #FFF2C2",
"yX c #FDF3CC",
"uX c #FFFCCA", //
"iX c #E6E4DB",
"pX c #F4E9D9",
"aX c #FEF3D4",
"sX c #FEF8DB", //
"dX c #EDE5C7",
"fX c #E4E4E4",
"gX c #ECECE5",
"hX c #EBEBEB",
"jX c #E8E7E9",
"kX c #F4EEEA",
"lX c #F1EEE5",
"zX c #EEF1E5",
"xX c #F3F3ED",
"cX c #FEFDED",
"vX c #FAF7E8",
"bX c #E9EBF3",
"nX c #F1EEF3",
"mX c #F0EFFD",
"MX c #EDF2F4",
"NX c #EBF6F8",
"BX c #F4F5F4",
"VX c #FCF6F5",
"CX c #F6FAF4",
"ZX c #FDFEF5",
"AX c #F5F5FD",
"SX c #FCF6FC",
"DX c #F5FDFD",
"FX c None",
"GX c #D1DEE7",
/* pixels */
"FXFXFXFXFXFXFXFXFXFXFXFXFXFXFXFXFXFXFXFXFXFXFXFXFXFXFXFXFXFXFXFXFXFXFXFXFXFXFXFXFXFXFXFXFXFXFXFXFXFXFXFXFXFXFXFXFXFXFXFXFXFXFXFX",
"FXFXFXFXFXFXFXFXFXFXFXFXFXFXFXFXFXFXFXFXFXFXFXFXFXFXFXFXFXFXFXFXFXFXFXFXFXFXFXFXFXFXFXFXFXFXFXFXFXFXFXFXFXFXFXFXFXFXFXFXFXFXFXFX",
"FXFXFXFXFXFXFXFXFXFXFXFXFXFXFXFXFXFXFXFXFXFXFXFXFXFXFXFXFXFXFXFXFXFXFXFXFXFXFXFXFXFXFXFXFXFXFXFXFXFXFXFXFXFXFXFXFXFXFXFXFXFXFXFX",
"FXFXFXFXFXFXFXFXFXFXFXFXFXFXFXFXFXFXFXFXFXFXFXFXFXFXFXFXFXFXFXFXFXFXFXFXFXFXFXFXFXFXFXFXFXFXFXFXFXFXFXFXFXFXFXFXFXFXFXFXFXFXFXFX",
"FXFXFXFXFXFXFXFXFXFXFXFXFXFXFXFXFXFXFXFXFXFXFXFXFXFXFXFXFXFXFXFXFXFXFXFXFXFXFXFXFXFXFXFXFXFXFXFXFXFXFXFXFXFXFXFXFXFXFXFXFXFXFXFX",
"FXFXFXFXFXFXFXFXFXFXFXFXFXFXFXFXFXFXFXFXFXFXFXFXFXFXFXFXFXFXFXFXFXFXFXFXFXFXFXFXFXFXFXFXFXFXFXFXFXFXFXFXFXFXFXFXFXFXFXFXFXFXFXFX",
"FXFXFXFXFXFXFXFXFXFXFXFXFXFXFXFXFXFXFXFXFXFXFXFXFXFXFXFXFXFXFXFXFXFXFXFXFXFXFXFXFXFXFXFXFXFXFXFXFXFXFXFXFXFXFXFXFXFXFXFXFXFXFXFX",
"FXFXFXFXFXFXFXFXFXFXFXFXFXFXFXFXFXFXFXFXFXFXFXFXFXFXFXFXFXFXFXFXFXFXFXFXFXFXFXFXFXFXFXFXFXFXFXFXFXFXFXFXFXFXFXFXFXFXFXFXFXFXFXFX",
"FXFXFXFXFXFXFXFXFXFXFXFXFXFXFXFXFXFXFXFXFXFXFXFXFXFXFXFXFXFXFXFXFXFXFXFXFXFXFXFXFXFXFXFXFXFXFXFXFXFXFXFXFXFXFXFXFXFXFXFXFXFXFXFX",
"FXFXFXFXFXFXFXFXFXFXFXFXFXFXFXFXFXFXFXFXFXFXFXFXFXFXFXFXFXFXFXFXFXFXFXFXFXFXFXFXFXFXFXFXFXFXFXFXFXFXFXFXFXFXFXFXFXFXFXFXFXFXFXFX",
"FXFXFXFXFXFXSXCXFXFXFXFXFXFXFXFXFXFXFXFXFXFXFXFXFXFXFXFXFXFXFXFXFXFXFXFXFXFXFXFXFXFXFXFXFXFXFXFXFXFXFXFXFXFXFXFXFXFXFXFXFXFXFXFX",
"FXFXFXFXFXFXFXFXFXFXFXFXFXFXFXFXFXFXFXFXFXFXFXvXN X + + FXFXFXP.o o O b FXFXFXN   . # jXFXnXFXFXFXFXFXFXFXFXFXFXFXFXFXFXFXFXFXFX",
"FXFXFXFXFXFXFXFXFXFXFXFXFXFXFXFXFXFXFXFXFXFXFX~ K.6.6.6.{ ( ( :.P.6.6X_.) _ ) { { [ [ ~ O.FXFXFXFXFXFXFXFXFXFXFXFXFXFXFXFXFXFXFX",
"FXFXFXFXFXFXFXFXFXFXFXFXFXFXFXFXFXFXFXFXFXFXFX  [ sXsX`.> O o 2 [.7XqXF o . , F _.P.L.  < FXFXFXFXFXFXFXFXFXFXFXFXFXFXFXFXFXFXFX",
"FXFXFXFXFXFXFXFXFXFXFXFXFXFXFXFXFXFXFXFXFXFXFX  P.pXdX7XF.W.F.i.qX'.Y.Y.Y.i.H $.u.H D.6 Z FXFXFXFXFXFXFXFXFXFXFXFXFXFXFXFXFXFXFX",
"FXFXFXFXFXFXFXFXFXFXFXFXFXFXFXFXFXFXFXFXFXFXFX  ,.6XrXeX`.eX@X@X].).*.1.tXy.s.0.r.r.D., q FXFXFXFXFXFXFXFXFXFXFXFXFXFXFXFXFXFXFX",
"FXFXFXFXFXFXFXFXFXFXFXFXFXFXFXFXFXFXFXFXFXFXFX  } yXXX$Xs.$.eX'.!.M.#XR.uXH.] J.>.>.H.6 q FXFXFXFXFXFXFXFXFXFXFXFXFXFXFXFXFXFXFX",
"FXFXFXFXFXFXFXFXFXFXFXFXFXFXFXFXFXFXFXFXFXFXFX  r.uXXXJ.H.r.[.`.uX|.tXoXXXJ.r.] #.H.] ; 9 FXFXFXFXFXFXFXFXFXFXFXFXFXFXFXFXFXFXFX",
"FXFXFXFXFXFXFXFXFXFXFXFXFXFXFXFXFXFXFXFXFXFXFX  } J.S 6 > 3 8 v ^.x.'.] 6 6 7 > 7 >.,.- t FXFXFXFXFXFXFXFXFXFXFXFXFXFXFXFXFXFXFX",
"FXFXFXFXFXFXFXFXFXFXFXFXFXFXFXFXFXFXFXFXFXFXFX  D.rXZ   ; , . i eX@XuX>.  # : .   :.7.> y FXFXFXFXFXFXFXFXFXFXFXFXFXFXFXFXFXFXFX",
"FXFXFXFXFXFXFXFXFXFXFXFXFXFXFXFXFXFXFXFXFXFXFX  { sXf + v v o u qX^.7X:.O 9 f 6 o 6.7.- y FXFXFXFXFXFXFXFXFXFXFXFXFXFXFXFXFXFXFX",
"FXFXFXFXFXFXFXFXFXFXFXFXFXFXFXFXFXFXFXFXFXFXFX  } vXm   t r . l qX{.7X:.O 7 t 5 o :.6.: y FXFXFXFXFXFXFXFXFXFXFXFXFXFXFXFXFXFXFX",
"FXFXFXFXFXFXFXFXFXFXFXFXFXFXFXFXFXFXFXFXFXFXFX  } dXz   @ O o t 7X{.7X_ o o O o % _ P.3 e FXFXFXFXFXFXFXFXFXFXFXFXFXFXFXFXFXFXFX",
"FXFXFXFXFXFXFXFXFXFXFXFXFXFXFXFXFXFXFXFXFXFXFX  P.dX@.z M F D F {.].@XU.x A M M v 7.7.= y FXFXFXFXFXFXFXFXFXFXFXFXFXFXFXFXFXFXFX",
"FXFXFXFXFXFXFXFXFXFXFXFXFXFXFXFXFXFXFXFXFXFXFX  ,.0Xp.#.p.t.u.i.Q.OXOXY.i.>.<.p.<.U.2.- y FXFXFXFXFXFXFXFXFXFXFXFXFXFXFXFXFXFXFX",
"FXFXFXFXFXCXFXiX| [ [ FXFXFXFX^ X.^ FXFXFXFXFX. 6.wXE.s..Xn.b.b.|.|.~.R.E.Y.y.=.=.z.y.; j FXFXFXFXFXFXFXFXFXFXFXFXFXFXFXFXFXFXFX",
"FXFXFXFXFXxXCXL.    # FXFXFXFX, + . FXFXFXFXFXO >.#X+X.X XA.}.}. X}.B.|.OXn.%.e.L w.=.; p FXFXFXFXFXFXFXFXFXFXFXFXFXFXFXFXFXFXFX",
"FXFXFXFXFXFX~ } >X} L.} ) ) C D.P.:.6X! ) ) l o $.oX!..X}.Z.}.}.Z.}.~. X Xf.I b.M.k.-.1 p FXFXFXFXFXFXFXFXFXFXFXFXFXFXFXFXFXFXFX",
"FXFXFXFXFXFX& ~ aXrXsXw + . @ G.0XrXJ.+   + o o <.oX}.}.Z.V.(.~.}.B.!. X+Xk.q.N.|.-.$.3 f FXFXFXFXFXFXFXFXFXFXFXFXFXFXFXFXFXFXFX",
"FXFXFXFXFXFX  ` I.XXsX'.U.W.u.oXn.%X%XS r.>.@.z.R.OX|.|.~.).OX).|.c.d.M.|.b.&.f.f.Y ;.; 9 FXFXFXFXFXFXFXFXFXFXFXFXFXFXFXFXFXFXFX",
"FXFXFXFXFXFX  ] uXXXW.oX/.@XuX|. XS.S.E R.p.$.$.x.).~.OX(.(.@X).(.c.4.c.(.M.&.&.&.1.Y.> r FXFXFXFXFXFXFXFXFXFXFXFXFXFXFXFXFXFXFX",
"FXFXFXFXFXFX. F wXs.=.R.%X/.Y..XA.S.&X Xw.e.j.-.f.l.l.|.(.(.@X).(.|.(.(.|.M.-.f.-.-.2.- d FXFX$ r , X.FXFXFXN < < N 4XFXFXFXFXFX",
"FXFXFXFXFXFX. _ $Xz.q.M..X!.$XoX X!. X.X.XK E q.&.q.B.}.B.).OX(.(.OX|.).B.g.R 4.1.^.7.* i pXK.6 7 , ' vXgX9Xc > 2 f 5XhXFXFXFXFX",
"FXFXFXFXFXFX  ( yX@X!.|.%X&X$XwXtX$XOX/..Xe.w.q.Y E C.M.g.g.B.~.(.(.).c.C.R Y 4.3.3.7.5 o O f $X%X0.z + o * @.J.s.F , g FXFXFXFX",
"FXFXFXFXFXFX  ` `.@XOXY.y.r.H.`.>.oXOXE.!.%.q.I h.g.B.Z.l.c.~.~.(.].).V.m.R Y 5.).$.>.n a a S %Xe.I @.l v i ' #.0.D.  j FXFXFXFX",
"FXFXFXFXFXFX  ` qXwX@XA % @ @ . w z.@X.Xn.P q.P N.A. X+X~.~.|.OX].{.].(.B.g.d.c.(.z.z.>.W.uX$Xn.}.K j.' _._.$.Y.#.J.  b FXFXFXFX",
"FXFXFXFXFXFX  ` 0X`.eXF o 4 r . 7 N.#X+XM.w.v.%.v.v.|. X~.(.|.|.].{.].|.}.g.U l.b.k.t.#.0.W.&X&XA.T ^.:.@._.=.L e.0.. c FXFXFXFX",
"FXFXFXFXFXFX  ` aXT.qXG o u b O q |./..X|..X}.I E q.V.}.~.(.|.].@X{.(.|.|.g.Y q.k.e.$.p.s.&X&X&XS.E -._.2.7.^.=.K $.% ! FXFXFXFX",
"FXFXFXFXFXFX  ( yX_.7XF o t 8 @ q OXR.|.|.|.V.P h.l.!.|.~.|.OX].@X'.Y./. Xg.I q.K H S H S H 0.&XN.E H _ @.D D n W.0.  s FXFXFXFX",
"FXFXFXFXFXFX  ` 0X@X@XA o % .   3 OX/.#X X!.b.P .X!. X+X/.|.+XOX'.U.w.b..Xb.%.w.k.0 . . X X w oXv.e.G . o O O O ] r.  j FXFXFXFX",
"FXFXFXFXFXFX# C XXwXOX*.J H ' ' L Q.(.j.k.|.!.P b.!.|.|.OX#X#X#X/.oXb.M. Xv.;.y.i.0 o t t   p I.a.a.m . t d ; ; r.D.  N FXFXFXFX",
"FXFXFXFXFXFX  ] @XOX~.l.=.=.t.u.y.)./.j.l.|.~.I N.}.OX|.OX+X@XOXwXtX.X!..Xv.%.y.U.i O u u O d P.#.a.F @ y p ; ; ] D.X k FXFXFXFX",
"FXFXFXFXFXFX  ` tX|.}.}.}.n.!.OX(.OX(.c.M. X|.b.}.|.+XOXOXOX@XoXz./..X+X+Xb.*.*.3.0 o 5 5 o t D.r.a.D o : : @ & D.D.X h FXFXFXFX",
"FXFXFXFXFXFX# F OX}.}.}. X}..X.X|.OXOX(.(.|. X|.|.+X#XOXOX@X@X{.$.z./.+X}.l.&.-.T.l O % % O j G.0.L M O = = & 3 H D.X h FXFXFXFX",
"FXFXFXFX< V I.I.j.N.B.V.Z.}.!.j.x.Q.(.|.(.(.|.|.|.+X#X#XOX@X@X$X@X@XOXQ.w.&.4.j.3.3.@.7.7.@.} #.e.S.p._ :.:.@.$.#.>.O h FXFXFXFX",
"FXFXFXFXX s aXXX-.V.~.V.B. X|.k.x.).OX+X|.|.}./.!.OX+XOX@XqX@X@XeXqX#XQ.;.Y f.&.&.x.1.y.y.=.a.E T E j.7._.T.5.4.n.y.4 b FXFXFXFX",
"FXFXFXFX  f sXW.N.~.}.~.}.OXOX].).|.OX|.|.|.N.k.k.!.|.OXOX#X@X[.7X7XqX'.-.&.d.Y Y 4.&.&.U E E Q Q R &.5.3.3.&.U K L :.{ : ! pXFX",
"FXFXFXFX8 ` [..XOX~.}.}.~.B.(.OX(.OX|.).(.(.c.P f.x.!./.OX@XOX].eXqX@XQ.Y U h.Y 4.d.R d.E Q E Q Q Y R x.5.;.g.d.g.K ^.,.o C vXFX",
"FXcX  : aX@XwX~.}.}.}.Z.Z.Z.Z.}.~.B.~.B.m.&.Y U &.f.l.V.~.|.|.|.OX|.(.V.d.R R d.R m.}.}.m.W U E Y W C.Z.m.R R 4.R 4.z.@.o B cXFX",
"FXL.) { qX^.Q.|.m.m.m.V.Z.Z.Z.A.N.B.B.~.m.d.d.f.d.f.g.M.!.|. X%X}.).V.g.R R 4.d.m.B.}.|.B.m.g.d.U E h.C.g.Y T R V.4.$.F.l X.X.pX",
"FX, `.pX7X[.$.&.f.4.d.g.}..XN.k.*.&.-.f.-.;.;.&.;.;.%.*.f.l.Q.).(.N.l.-.;.&.f.j.|.~.|.|.|.~.c.j.w.e.q.d.4.Y U f.L 3.*.G.D.) + { ",
"N   6X6XH.{.*.5.4.-.-.j.R.R.s.t.<.<.1.1.1.=.<.i.i.y.y.-.1.i.U.Y.Q.z.-.=.=.1.y.j.Q.Y.x.R.^.Q.z.w.p.t.=.e.1.&.&.1.3.Y.T.:._.{   -X",
"k   K.L.D.G.>.T.i.y.1.i.i.u.u.>.7.G.F.7.2.7.F.G.G.G.F.F.F.F.F.F.G.2.2.>.2.i.i.u.u.2.i.i.i.F.i.u.u.u.>.u.y.<.2.1.U.G._.} ;X..  X.",
"s $ k C ~ m M M A D D D m m V C m B B M B V D m B m B B B B m m B m m B B F B B m B B B C D C B V B B D D D A A M v C C ~ j X X.",
"e X         O O o .   . . .     . . o   o . o   . . . . o . o . .                         .           .   . o . . .         X ^ ",
"FXFXFXFXFXFXFXFXFXFXFXFXFXFXFXFXFXFXFXFXFXFXFXFXFXFXFXFXFXFXFXFXFXFXFXFXFXFXFXFXFXFXFXFXFXFXFXFXFXFXFXFXFXFXFXFXFXFXFXFXFXFXFXFX",
"FXFXFXFXFXFXFXFXFXFXFXFXFXFXFXFXFXFXFXFXFXFXFXFXFXFXFXFXFXFXFXFXFXFXFXFXFXFXFXFXFXFXFXFXFXFXFXFXFXFXFXFXFXFXFXFXFXFXFXFXFXFXFXFX",
"FXFXFXFXFXFXFXFXFXFXFXFXFXFXFXFXFXFXFXFXFXFXFXFXFXFXFXFXFXFXFXFXFXFXFXFXFXFXFXFXFXFXFXFXFXFXFXFXFXFXFXFXFXFXFXFXFXFXFXFXFXFXFXFX",
"FXFXFXFXFXFXFXFXFXFXFXFXFXFXFXFXFXFXFXFXFXFXFXFXFXFXFXFXFXFXFXFXFXFXFXFXFXFXFXFXFXFXFXFXFXFXFXFXFXFXFXFXFXFXFXFXFXFXFXFXFXFXFXFX",
"FXFXFXFXFXFXFXFXFXFXFXFXFXFXFXFXFXFXFXFXFXFXFXFXFXFXFXFXFXFXFXFXFXFXFXFXFXFXFXFXFXFXFXFXFXFXFXFXFXFXFXFXFXFXFXFXFXFXFXFXFXFXFXFX",
"FXFXFXFXFXFXFXFXFXFXFXFXFXFXFXFXFXFXFXFXFXFXFXFXFXFXFXFXFXFXFXFXFXFXFXFXFXFXFXFXFXFXFXFXFXFXFXFXFXFXFXFXFXFXFXFXFXFXFXFXFXFXFXFX",
"FXFXFXFXFXFXFXFXFXFXFXFXFXFXFXFXFXFXFXFXFXFXFXFXFXFXFXFXFXFXFXFXFXFXFXFXFXFXFXFXFXFXFXFXFXFXFXFXFXFXFXFXFXFXFXFXFXFXFXFXFXFXFXFX",
"FXFXFXFXFXFXFXFXFXFXFXFXFXFXFXFXFXFXFXFXFXFXFXFXFXFXFXFXFXFXFXFXFXFXFXFXFXFXFXFXFXFXFXFXFXFXFXFXFXFXFXFXFXFXFXFXFXFXFXFXFXFXFXFX",
"FXFXFXFXFXFXFXFXFXFXFXFXFXFXFXFXFXFXFXFXFXFXFXFXFXFXFXFXFXFXFXFXFXFXFXFXFXFXFXFXFXFXFXFXFXFXFXFXFXFXFXFXFXFXFXFXFXFXFXFXFXFXFXFX"
};
