/* XPM */
static char *result[] = {
/* columns rows colors chars-per-pixel */
"64 64 16 1 ",
"  c black",
". c #583028",
"X c gray26",
"o c #784040",
"O c #4364ED",
"+ c #D8A077",
"@ c #90BCEF",
"# c #D2D9FE",
"$ c #5E86C0",
"% c #939391",
"& c #E3AB82",
"* c #FFD8BF",
"= c #C2C0DF",
"- c #D1CFDF",
"; c #EFEDFC",
": c None",
/* pixels */
"::::::::::::::::::::::::::::::::::::::::::::::::::::::::::::::::",
"::::::::::::::::::::::::::::::::::::::::::::::::::::::::::::::::",
"::::::::::::::::::::::::::::::::::::::::::::::::::::::::::::::::",
"::::::::::::::::::::::::::::::::::::::::::::::::::::::::::::::::",
":::::::::::::::::::::::::::::XXXXXX:::::::::::::::::::::::::::::",
":::::::::::::::::::::::::::::XXXXXX:::::::::::::::::::::::::::::",
":::::::::::::::::::::::::XXXX##@@XX:::::::::::::::::::::::::::::",
":::::::::::::::::::::::::XXXX##@@XX:::::::::::::::::::::::::::::",
":::::::::::::::::::::::XX@@##@@XX:::::::::::::::::::::::::::::::",
":::::::::::::::::::::::XX@@##@@XX:::::::::::::::::::::::::::::::",
":::::::::::::::::::::XX@@####XXXXXXXXXX:::::::::::::::::::::::::",
":::::::::::::::::::::XX@@####XXXXXXXXXX:::::::::::::::::::::::::",
":::::::::::::::::::::XX####OO@@@@@@##@@XXXXXXXX:::::::::::::::::",
":::::::::::::::::::::XX####OO@@@@@@##@@XXXXXXXX:::::::::::::::::",
":::::::::::::::::::  OO####@@@@@@@@@@####@@@@  :::::::::::::::::",
":::::::::::::::::::  OO####@@@@@@@@@@####@@@@  :::::::::::::::::",
":::::::::::::::::  OO@@OO@@@@@@@@@@@@@@@@OO  :::::::::::::::::::",
":::::::::::::::::  OO@@OO@@@@@@@@@@@@@@@@OO  :::::::::::::::::::",
":::::::::::::::  @@##@@@@####@@@@@@@@@@@@@@OO  :::::::::::::::::",
":::::::::::::::  @@##@@@@####@@@@@@@@@@@@@@OO  :::::::::::::::::",
":::::::::::::::XX@@@@##@@######@@@@@@@@@@@@@@XX:::::::::::::::::",
":::::::::::::::XX@@@@##@@######@@@@@@@@@@@@@@XX:::::::::::::::::",
":::::::::::::XX@@@@OO##OO@@##@@OO@@##@@@@@@@@@@XX:::::::::::::::",
":::::::::::::XX@@@@OO##OO@@##@@OO@@##@@@@@@@@@@XX:::::::::::::::",
":::::::::::::::XXOO@@@@OOOO@@##@@OO@@##@@OO@@OO  :::::::::::::::",
":::::::::::::::XXOO@@@@OOOO@@##@@OO@@##@@OO@@OO  :::::::::::::::",
":::::::::::::::  OO@@OOOO&&OOOO@@OOOO@@@@OOOO  :::::::::::::::::",
":::::::::::::::  OO@@OOOO&&OOOO@@OOOO@@@@OOOO  :::::::::::::::::",
":::::::::::::::  OOOOOOOO&&&&&&OOOO&&OOOOOOOOOO  :::::::::::::::",
":::::::::::::::  OOOOOOOO&&&&&&OOOO&&OOOOOOOOOO  :::::::::::::::",
":::::::::::::::::  OOOO&&--XX****&&XX--&&OOOO  :::::::::::::::::",
":::::::::::::::::  OOOO&&--XX****&&XX--&&OOOO  :::::::::::::::::",
":::::::::::::::::::  &&&&;;  ******  ;;&&&&  :::::::::::::::::::",
":::::::::::::::::::  &&&&;;  ******  ;;&&&&  :::::::::::::::::::",
":::::::::::::::::::::oo++**************&&oo  :::::::::::::::::::",
":::::::::::::::::::::oo++**************&&oo  :::::::::::::::::::",
":::::::::::::::::::::  oo&&****&&****&&oo    :::::::::::::::::::",
":::::::::::::::::::::  oo&&****&&****&&oo    :::::::::::::::::::",
":::::::::::::::::::::oo++  ..&&&&&&..  ;;;;==  :::::::::::::::::",
":::::::::::::::::::::oo++  ..&&&&&&..  ;;;;==  :::::::::::::::::",
":::::::::::::::::::  ;;;;====XXXXXX====..;;****  :::::::::::::::",
":::::::::::::::::::  ;;;;====XXXXXX====..;;****  :::::::::::::::",
":::::::::::::::::::  ==;;==;;;;$$;;;;;;..  ****  :::::::::::::::",
":::::::::::::::::::  ==;;==;;;;$$;;;;;;..  ****  :::::::::::::::",
":::::::::::::::::  ****oo..;;;;==;;;;;;  ::    :::::::::::::::::",
":::::::::::::::::  ****oo..;;;;==;;;;;;  ::    :::::::::::::::::",
":::::::::::::::::  ****  OO==;;$$==;;==OO  :::::::::::::::::::::",
":::::::::::::::::  ****  OO==;;$$==;;==OO  :::::::::::::::::::::",
":::::::::::::::::::    %%  OOOO@@OO@@@@@@  :::::::::::::::::::::",
":::::::::::::::::::    %%  OOOO@@OO@@@@@@  :::::::::::::::::::::",
":::::::::::::::::::::::::%%      oo@@@@OO  :::::::::::::::::::::",
":::::::::::::::::::::::::%%      oo@@@@OO  :::::::::::::::::::::",
":::::::::::::::::::::::::::%%%%%%oo$$$$  %%:::::::::::::::::::::",
":::::::::::::::::::::::::::%%%%%%oo$$$$  %%:::::::::::::::::::::",
":::::::::::::::::::::::::::::::%%  $$$$  %%:::::::::::::::::::::",
":::::::::::::::::::::::::::::::%%  $$$$  %%:::::::::::::::::::::",
":::::::::::::::::::::::::::::::::%%    %%:::::::::::::::::::::::",
":::::::::::::::::::::::::::::::::%%    %%:::::::::::::::::::::::",
":::::::::::::::::::::::::::::::::::%%%%:::::::::::::::::::::::::",
":::::::::::::::::::::::::::::::::::%%%%:::::::::::::::::::::::::",
"::::::::::::::::::::::::::::::::::::::::::::::::::::::::::::::::",
"::::::::::::::::::::::::::::::::::::::::::::::::::::::::::::::::",
"::::::::::::::::::::::::::::::::::::::::::::::::::::::::::::::::",
"::::::::::::::::::::::::::::::::::::::::::::::::::::::::::::::::"
};
