/* XPM */
static char *result[] = {
/* columns rows colors chars-per-pixel */
"64 64 14 1 ",
"  c black",
". c gray26",
"X c #7D5C58",
"o c #4364ED",
"O c #90BCEF",
"+ c #D2D9FE",
"@ c #5E86C0",
"# c #939391",
"$ c #E3AB82",
"% c #FFD8BF",
"& c #C2C0DF",
"* c #D1CFDF",
"= c #EFEDFC",
"- c None",
/* pixels */
"----------------------------------------------------------------",
"----------------------------------------------------------------",
"----------------------------------------------------------------",
"----------------------------------------------------------------",
"----------------------------------------------------------------",
"-----------------------------......-----------------------------",
"-----------------------------......-----------------------------",
"-------------------------....++OO..-----------------------------",
"-------------------------....++OO..-----------------------------",
"-----------------------..OO++OO..-------------------------------",
"-----------------------..OO++OO..-------------------------------",
"---------------------..OO++++..........-------------------------",
"---------------------..OO++++..........-------------------------",
"---------------------..++++ooOOOOOO++OO........-----------------",
"---------------------..++++ooOOOOOO++OO........-----------------",
"-------------------  oo++++OOOOOOOOOO++++OOOO  -----------------",
"-------------------  oo++++OOOOOOOOOO++++OOOO  -----------------",
"-----------------  ooOOooOOOOOOOOOOOOOOOOoo  -------------------",
"-----------------  ooOOooOOOOOOOOOOOOOOOOoo  -------------------",
"---------------  OO++OOOO++++OOOOOOOOOOOOOOoo  -----------------",
"---------------  OO++OOOO++++OOOOOOOOOOOOOOoo  -----------------",
"---------------..OOOO++OO++++++OOOOOOOOOOOOOO..-----------------",
"---------------..OOOO++OO++++++OOOOOOOOOOOOOO..-----------------",
"-------------..OOOOoo++ooOO++OOooOO++OOOOOOOOOO..---------------",
"-------------..OOOOoo++ooOO++OOooOO++OOOOOOOOOO..---------------",
"---------------..ooOOOOooooOO++OOooOO++OOooOOoo  ---------------",
"---------------..ooOOOOooooOO++OOooOO++OOooOOoo  ---------------",
"---------------  ooOOoooo$$ooooOOooooOOOOoooo  -----------------",
"---------------  ooOOoooo$$ooooOOooooOOOOoooo  -----------------",
"---------------  oooooooo$$$$$$oooo$$oooooooooo  ---------------",
"---------------  oooooooo$$$$$$oooo$$oooooooooo  ---------------",
"-----------------  oooo$$**..%%%%$$..**$$oooo  -----------------",
"-----------------  oooo$$**..%%%%$$..**$$oooo  -----------------",
"-------------------  $$$$==  %%%%%%  ==$$$$  -------------------",
"-------------------  $$$$==  %%%%%%  ==$$$$  -------------------",
"---------------------  $$%%%%%%%%%%%%%%$$  ---------------------",
"---------------------  $$%%%%%%%%%%%%%%$$  ---------------------",
"---------------------  XX$$%%%%$$%%%%$$XX  ---------------------",
"---------------------  XX$$%%%%$$%%%%$$XX  ---------------------",
"-------------------..==&&XX..$$$$$$..XX&&==..-------------------",
"-------------------..==&&XX..$$$$$$..XX&&==..-------------------",
"-----------------  &&==&&==&&......&&==&&==&&  -----------------",
"-----------------  &&==&&==&&......&&==&&==&&  -----------------",
"---------------  %%%%&&..======@@======..&&%%%%  ---------------",
"---------------  %%%%&&..======@@======..&&%%%%  ---------------",
"---------------  %%%%..oo&&====&&====&&oo..%%%%  ---------------",
"---------------  %%%%..oo&&====&&====&&oo..%%%%  ---------------",
"-----------------    ..OOoooooo@@ooooooOO..    -----------------",
"-----------------    ..OOoooooo@@ooooooOO..    -----------------",
"-------------------##  ooOOOOOOooOOOOOOoo  ##-------------------",
"-------------------##  ooOOOOOOooOOOOOOoo  ##-------------------",
"-------------------##  @@@@          @@@@  ##-------------------",
"-------------------##  @@@@          @@@@  ##-------------------",
"---------------------##    ##########    ##---------------------",
"---------------------##    ##########    ##---------------------",
"---------------------------##########---------------------------",
"---------------------------##########---------------------------",
"----------------------------------------------------------------",
"----------------------------------------------------------------",
"----------------------------------------------------------------",
"----------------------------------------------------------------",
"----------------------------------------------------------------",
"----------------------------------------------------------------",
"----------------------------------------------------------------"
};
