/* XPM */
static char *result[] = {
/* columns rows colors chars-per-pixel */
"64 64 213 2 ",
"   c #775129",
".  c #79522A",
"X  c #7B542A",
"o  c #7C542B",
"O  c #7E562B",
"+  c #7E562C",
"@  c #755733",
"#  c #745F3D",
"$  c #765F3D",
"%  c #765F3E",
"&  c #736648",
"*  c #756749",
"=  c #726E52",
"-  c #70755D",
";  c #75765E",
":  c #6F7C67",
">  c #727D68",
",  c #757E69",
"<  c #80572C",
"1  c #81582D",
"2  c #845A2E",
"3  c #855A2E",
"4  c #865B2F",
"5  c #895D30",
"6  c #8A5E30",
"7  c #8C5F31",
"8  c #8E6132",
"9  c #8F6132",
"0  c #916333",
"q  c #936434",
"w  c #966635",
"e  c #986836",
"r  c #996836",
"t  c #9B6A37",
"y  c #9D6B38",
"u  c #9E6C38",
"i  c #A16E39",
"p  c #A36F39",
"a  c #A5713A",
"s  c #A7723B",
"d  c #A9733C",
"f  c #A9743C",
"g  c #AB753D",
"h  c #AE773E",
"j  c #B0783F",
"k  c #9C7E55",
"l  c #A57540",
"z  c #B27A40",
"x  c #B47B40",
"c  c #B57C41",
"v  c #B67D41",
"b  c #B97E42",
"n  c #BA7F43",
"m  c #6D8B7C",
"M  c #6E8B7C",
"N  c #748D7D",
"B  c #95805C",
"V  c #BB8043",
"C  c #BD8144",
"Z  c #BF8245",
"A  c #BF8345",
"S  c #AF8450",
"D  c #B48B58",
"F  c #BD9A68",
"G  c #A99F7F",
"H  c #B79E72",
"J  c #C18446",
"K  c #C48647",
"L  c #C99155",
"P  c #CB975C",
"I  c #D1A36A",
"U  c #C2A170",
"Y  c #C7A978",
"T  c #D3A971",
"R  c #CCB07F",
"E  c #D9B57F",
"W  c #6C9286",
"Q  c #749588",
"!  c #6A9A91",
"~  c #719C93",
"^  c #749D93",
"/  c #69A19B",
"(  c #6DA29C",
")  c #74A49E",
"_  c #5EAEB4",
"`  c #5FB8BF",
"'  c #68A8A6",
"]  c #67B0B0",
"[  c #65B7BB",
"{  c #73B4B3",
"}  c #7EB9B3",
"|  c #72BBBE",
" . c #76BDBD",
".. c #7ABBB8",
"X. c #7FC0BF",
"o. c #5FBAC3",
"O. c #5FBBC4",
"+. c #62B8C1",
"@. c #61B9C2",
"#. c #62B9C2",
"$. c #60BBC4",
"%. c #60BCC5",
"&. c #60BCC6",
"*. c #60BDC6",
"=. c #60BEC7",
"-. c #66BCC5",
";. c #64BEC5",
":. c #60BEC8",
">. c #60BFC9",
",. c #63BFC9",
"<. c #71BFC1",
"1. c #6CC1C6",
"2. c #61C0CA",
"3. c #61C1CB",
"4. c #67C3CB",
"5. c #61C2CC",
"6. c #62C3CD",
"7. c #63C4CE",
"8. c #63C5CF",
"9. c #64C5CF",
"0. c #65C5CF",
"q. c #6FC1C8",
"w. c #6EC1C9",
"e. c #6EC1CA",
"r. c #6FC3CC",
"t. c #6AC5CF",
"y. c #6FC4CD",
"u. c #72C3C9",
"i. c #78C5C8",
"p. c #79C5C9",
"a. c #66C6D0",
"s. c #67C6D0",
"d. c #68C6D0",
"f. c #69C7D0",
"g. c #6AC7D1",
"h. c #6BC7D1",
"j. c #6CC8D1",
"k. c #6DC8D1",
"l. c #6EC8D2",
"z. c #6FC9D2",
"x. c #70C7D0",
"c. c #70C9D2",
"v. c #71C9D2",
"b. c #72CAD3",
"n. c #9FAB93",
"m. c #9AAC97",
"M. c #95AF9C",
"N. c #9DAE98",
"B. c #9AB09D",
"V. c #ADA585",
"C. c #A8A689",
"Z. c #A9A789",
"A. c #A3A98E",
"S. c #A5A98F",
"D. c #B3A580",
"F. c #B1A888",
"G. c #B3AB8A",
"H. c #B5AC8B",
"J. c #B6AE8C",
"K. c #B9B08E",
"L. c #BDB491",
"P. c #BDB591",
"I. c #8CB3A5",
"U. c #83B7AF",
"Y. c #88B5AA",
"T. c #89B5AA",
"R. c #91B1A1",
"E. c #94B2A1",
"W. c #97B3A3",
"Q. c #93B5A7",
"!. c #82BAB4",
"~. c #88BCB5",
"^. c #85BEBB",
"/. c #D1B787",
"(. c #DBBA86",
"). c #D5BF8F",
"_. c #C0B894",
"`. c #C1B894",
"'. c #C3BA96",
"]. c #C5BC97",
"[. c #DEC08D",
"{. c #C9C09A",
"}. c #CDC49D",
"|. c #CDC49E",
" X c #CDC59E",
".X c #CEC59E",
"XX c #DAC697",
"oX c #DFCD9F",
"OX c #E0C694",
"+X c #E3CC9B",
"@X c #D1C8A1",
"#X c #D4CCA3",
"$X c #D5CCA4",
"%X c #D9D0A7",
"&X c #DBD2A8",
"*X c #DDD4AA",
"=X c #DED5AB",
"-X c #E6D2A2",
";X c #E4D5A7",
":X c #E1D8AD",
">X c #E2D9AE",
",X c #E4DBAF",
"<X c #E8D8A9",
"1X c #E9DCAF",
"2X c #E5DBB0",
"3X c #E5DCB0",
"4X c #E6DDB1",
"5X c #EBDEB0",
"6X c #E8DEB2",
"7X c #E9E0B3",
"8X c #EDE3B6",
"9X c #EEE4B7",
"0X c #81C1C0",
/* pixels */
"8.8.8.8.8.8.8.8.0.b.l.8.8.8.8.8.8.8.g.b.b.g.8.8.8.8.8.8.8.8.8.8.8.8.8.8.8.8.8.8.a.b.l.8.8.8.8.8.8.8.g.b.b.f.8.8.8.8.8.8.8.8.8.o.",
"8.8.8.8.8.8.8.8.8.b.b.>.8.8.2.$.@.@.-.y.x.f.6.7.6.8.8.8.8.8.8.8.8.8.8.8.8.8.#.#.8.b.e.o.%.5.O.+.O.3.g.b.r.,.:.:.:.:.:.:.:.8.=.*.",
"8.8.8.8.8.8.8.8.8.b.b.8.8.8.8.8.8.8.0.b.b.h.8.8.8.8.8.8.8.8.8.8.8.8.8.8.8.8.8.8.9.b.b.8.8.8.8.8.8.8.9.w.b.f.6.6.6.6.6.6.6.*.&.@.",
"8.8.8.8.8.8.8.8.a.b.b.8.8.8.8.8.8.8.8.h.b.v.8.8.8.8.8.8.8.8.8.8.8.8.8.8.8.8.8.8.d.b.b.8.8.8.8.8.8.8.8.t.b.c.0.8.8.8.8.8.8.8.8.8.",
"8.8.8.8.8.8.8.8.z.b.v.8.8.8.8.8.8.8.8.8.h.b.z.0.8.8.8.8.8.8.8.8.8.8.8.` _ 6.8.0.v.b.v.8.8.8.8.8.8.8.8.8.j.b.c.8.8.8.8.8.8.8.8.>.",
"a.8.8.8.8.8.0.z.b.b.b.l.8.8.8.8.8.8.8.8.0.b.b.v.d.8.8.8.8.8.8.8.8.] #     m a.z.b.b.b.l.8.8.8.8.8.8.8.8.s.b.b.v.d.a.a.a.a.a.a.a.",
"b.c.g.g.g.h.b.b.c.l.z.b.z.a.8.8.8.8.0.g.v.b.b.b.b.b.b.b.b.b.b.b.l.$   +     { b.k.g.z.b.z.a.8.8.8.8.0.j.v.b.b.b.b.b.b.b.b.b.b.b.",
"b.b.b.b.b.b.b.h.8.8.8.d.b.b.z.l.l.z.b.b.b.k.g.s.a.j.b.b.b.b.b.b.)   o i 4   N s.8.8.8.l.b.b.z.l.l.z.b.b.v.f.0.8.9.j.v.b.b.b.k.g.",
"b.b.b.b.z.k.0.8.8.8.8.8.f.b.b.b.b.b.b.z.a.8.8.8.8.8.9.g.b.b.b.b.,   5 i 0   & ' 8.8.8.8.j.b.b.b.b.z.l.h.8.8.8.8.8.8.8.j.b.b.z.l.",
"g.9.8.8.8.8.8.8.8.8.8.8.8.v.b.l.a.8.8.' = = - ' 8.8.8.;.~ ; %       t i u         # - W ' c.b.k.;.m = - W 8.8.8.8.8.8.8.c.b.b.b.",
"8.8.8.8.8.8.8.8.8.8.8.8.8.l.b.a.8.8.8.&         = / : @       X 6 0 z z z 0 6 3           $ Q M @         / 8.8.8.8.8.9.b.b.h.a.",
"8.8.8.8.8.8.8.8.8.8.8.8.8.v.b.8.8.8.[   . u 7 .         9 s c K K K K K K K K K K K c y 3         4 t 7   m 8.8.8.8.8.d.b.l.8.8.",
"8.8.8.8.8.8.8.8.8.8.8.s.c.b.g.8.8.8.8.@   t i u 7 O e c K K K K K K K K K K K K K K K K K j < 1 w i i 4   m 8.8.8.8.8.f.b.l.8.8.",
"8.8.8.8.8.8.8.8.8.8.j.b.v.h.8.8.8.8.8.:   4 i i p b K K K K K K K K K K K K K K K K K K K K J x a i t     [ 8.8.8.8.8.0.b.c.8.8.",
"8.8.8.8.8.8.8.8.8.z.b.g.8.8.8.8.8.8.8.[     t g J K K K K K K K K K K K K K K K K K K K K K K K J h 4   - 8.8.8.8.8.8.8.z.b.s.8.",
"8.8.8.8.8.8.8.8.z.b.d.8.W = = = : ] ;.=     d K K K K K K K K K K K K K K K K K K K K K K K K K K K q     ! 8.8.8.8.8.8.d.b.j.8.",
"8.8.8.8.8.8.8.l.b.j.[ @             =   X j K K K K K K K K K K K K K K K K K K K K K K K K K K K K K q     ! 8.8.8.8.8.8.b.l.8.",
"8.8.8.8.8.8.j.b.z.;.&   o q w w 1       j K K K K K K K K K K K K K K K K K K K K K K K K K K K K K K K q     ' 8.8.8.8.8.b.l.8.",
"8.8.8.8.8.k.b.z.;.&   . t i i i i +   s K K K K K K K K K K K K K K K K K K K K K K K K K K K K K K K K K 9   @ ;.8.8.8.9.b.l.8.",
"8.8.8.s.b.b.c.;.&   . r i i i i i i u K K K K K K K K K K K K K K K K K K K K K K K K K K K K K K K K K K Z <   : 8.8.8.a.b.f.8.",
"8.8.8.l.b.b.q.&   . r i i i i i i s K K K K K K K K K K K K K K K K K K K K K K K K K K K K K K K K K K K K c     ' 8.8.h.b.0.8.",
"8.8.8.b.b.u.*   + u i i i i i i i C K K K K K K K K K K K K C V V V V V K K K K K K K K K K K K C z A K K K K e   # 8.0.b.c.8.8.",
"8.8.f.b.u.*   + u i i i i i i i h K K K K K K K K K K K K J p i i i i i i i s b K K K K K K K A i i h K K K K Z X   ( v.b.g.8.8.",
"d.l.b.b.,   + u i i i i i i i i A K K K K K K K K K K K K v i i i i i i i i i f K K K K K K K x i i p K K K K K e   ; b.v.8.8.8.",
"b.b.b.|   . u i i i i i i i i f K K K K K K K K K K K K K g i i i i i i i i i f K K K K K K K J s i C K K K K K n     u.v.l.c.b.",
"f.9.8.'   1 i i i i i i i i i v K K K K K K K K K K K K J i i i i i i i i i i f K K K K K K K K K K K K K K K K K 3   ^ b.b.b.b.",
"8.8.8.]   o i i i i i i i i i J K K L T [.+X+X5X9X9X9X9XXXi i i i i i i i i i f K K K K K K K K K K K K K K K K K y   > g.s.8.8.",
"8.8.8.8.#   8 i i i i i i i a P E <X9X9X9X9X9X9X9X9X9X9XY i i i i i i i i i i f K K K K K K K K K K K K K K K K K j   & 8.8.8.8.",
"8.8.8.8.'     0 i i i i i i D 9X9X9X9X9X9X9X9X9X9X9X9X9XY i i i i i i i i i i f K K K K K K K K K K K K K K K K K Z     8.8.8.8.",
"8.8.8.8.8.!     0 i i i i i F 9X9X9X9X9X9X9X9X9X9X9X9X9XY i i i i i i i i i i f K K K K K K K K K K K K K K K K K L B G 8.8.8.8.",
"8.8.8.8.8.8.!     8 i i i i Y 9X9X9X9X9X9X9X9X9X9X9X9X9X).i i i i i i i i i l oX9XOXI K K K K K K K K K K K L (.5X9XH.V.8.8.8.8.",
"8.8.8.8.8.8.8.!     4 i i i /.9X9X9X9X9X9X9X9X9X9X9X9X9XoXi i i i i i i i S 1X9X9X9X9X9X-X[.E E E E E E +X5X9X9X9X9XL.V. .8.8.8.",
"8.8.8.8.8.8.8.8.!     4 i i XX9X9X9X9X9X9X9X9X9X9X9X9X9X9Xl i i i i i i F 1X9X9X9X9X9X9X9X9X9X9X9X9X9X9X9X9X9X9X9X9XL.V. .8.8.8.",
"8.8.8.8.8.8.8.8.8.^     2 u R 9X9X9X9X9X9X9X9X9X9X9X9X9X9XF i i i i l R 9X9X9X9X9X9X9X9X9X9X9X9X9X9X9X9X9X9X9X9X9X9XL.V. .8.8.8.",
"8.8.8.8.8.8.8.8.8.b.^ @   . H 9X9X9X9X9X9X9X9X9X9X9X9X9X9XoXi i i U 1X9X9X9X9X9X9X9X9X9X9X9X9X9X9X9X9X9X9X9X9X9X9X9XL.V. .8.8.8.",
"8.8.8.8.8.8.8.8.a.b.v.] &   k 9X9X9X9X9X9X9X9X9X9X9X9X9X9X9XR Y ;X9X9X9X9X9X9X9X9X9X9X9X9X9X9X9X9X9X9X9X9X9X9X9X9X9XH.V.<.8.8.8.",
"8.8.8.8.8.8.8.8.z.b.c.8.} G D.9X9X9X9X9X9X9X9X9X9X9X9X9X9X9X9X9X9X9X9X9X9X9X9X9X9X9X9X9X9X9X9X9X9X9X9X9X9X9X9X9X9X9XV.V.8.8.8.8.",
"8.8.8.8.8.8.9.l.b.b.b.f.<.V.V.9X9X9X9X9X9X9X9X9X9X9X9X9X9X9X9X9X9X9X9X9X9X9X9X9X9X9X9X9X9X9X9X9X9X9X9X9X9X9X9X9X9X*XV.n.8.8.0.a.",
"v.h.a.a.a.j.v.b.c.l.c.b.k.C.V.:X9X9X9X9X9X9X9X9X9X9X9X9X9X9X9X9X9X9X9X9X9X9X9X9X9X9X9X9X9X9X9X9X9X9X9X9X9X9X9X9X9X|.V.Q.b.b.b.b.",
"b.b.b.b.b.b.b.g.8.8.8.l.b.B.V.{.9X9X9X9X9X9X9X9X9X9X9X9X9X9X9X9X9X9X9X9X9X9X9X9X9X9X9X9X9X9X9X9X9X9X9X9X9X9X9X9X9XK.V.^.b.b.k.g.",
"b.b.b.b.b.k.a.8.8.8.8.8.j.~.V.K.9X9X9X9X9X9X9X9X9X9X9X9X9X9X9X9X9X9X9X9X9X9X9X9X9X9X9X9X9X9X9X9X9X9X9X9X9X9X9X9X:XV.C.g.b.b.k.j.",
"l.d.a.a.8.8.8.8.8.8.8.8.8.v.Z.V.*X9X9X9X9X9X9X9X9X9X9X9X9X9X9X9X9X9X9X9X9X9X9X9X9X9X9X9X9X9X9X9X9X9X9X9X9X9X9X9X].V.R.8.l.b.b.b.",
"8.8.8.8.8.8.8.8.8.8.8.8.8.l.W.V.L.9X9X9X9X9X9X9X9X9X9X9X9X9X9X9X9X9X9X9X9X9X9X9X9X9X9X9X9X9X9X9X9X9X9X9X9X9X9X3XV.V.1.9.v.b.h.a.",
"8.8.8.8.8.8.8.8.8.8.8.8.8.v.i.V.V.*X9X9X9X9X9X9X9X9X9X9X9X9X9X9X9X9X9X9X9X9X9X9X9X9X9X9X9X9X9X9X9X9X9X9X9X9X9X`.V.R.8.d.b.l.8.8.",
"8.8.8.8.8.8.8.8.8.8.8.s.c.b.h.R.V.'.8X9X9X9X9X9X9X9X9X9X9X9X9X9X9X9X9X9X9X9X9X9X9X9X9X9X9X9X9X9X9X9X9X9X9X9X$XV.C.4.8.f.b.l.8.8.",
"8.8.8.8.8.8.8.8.8.8.j.b.b.j.8.A.V.#X4X9X9X9X9X9X9X9X9X9X9X9X9X9X9X9X9X9X9X9X9X9X9X9X9X9X9X9X9X9X9X9X9X9X9X3XF.V.U.8.8.0.b.c.8.8.",
"8.8.8.8.8.8.8.8.8.z.b.j.a.8.U.V.G.>X>X6X9X9X9X9X9X9X9X9X9X9X9X9X9X9X9X9X9X9X9X9X9X9X9X9X9X9X9X9X9X9X9X9X7XK.V.M.8.8.8.8.z.b.f.8.",
"8.8.8.8.8.8.8.8.z.v.a.8.8.8.A.V..X>X&X_.$X9X9X9X9X9X9X9X9X9X9X9X9X9X9X9X9X9X9X9X9X9X9X9X9X9X9X9X9X9X9X8X,XG.V.<.8.8.8.8.d.b.k.8.",
"8.8.8.8.8.8.8.l.b.g.8.8.8.8.A.V..X_.V.V.V.{.9X9X9X9X9X9X9X9X9X9X9X9X9X9X9X9X9X9X9X9X9X9X9X9X9X9X9X9X8X,X>X.XV.m.8.8.8.8.9.b.l.8.",
"8.8.8.8.8.8.f.b.z.8.8.8.8.8.R.V.V.V.V.n.C.V.{.9X9X9X9X9X9X9X9X9X9X9X9X9X9X9X9X9X9X9X9X9X9X9X9X9X9X:X}.&X>X>XG.V. .8.8.8.8.b.l.8.",
"8.8.8.8.8.j.b.z.8.8.8.8.8.8.4.I.m.R.} 8...C.V.K.3X9X9X9X9X9X9X9X9X9X9X9X9X9X9X9X9X9X9X9X9X9X9X9X@XF.V.V.P.@XG.V. .8.8.8.8.b.l.8.",
"8.8.8.s.b.b.v.8.8.8.8.8.8.8.8.8.8.8.8.8.8.<.n.V.F.|.9X9X9X9X9X9X9X9X9X9X9X9X9X9X9X9X9X9X9X9X:X`.V.V.m.V.V.V.V.A.8.8.8.8.0.b.f.8.",
"8.8.8.l.b.b.l.8.8.8.8.8.8.8.8.8.8.8.8.8.8.8.4.M.V.V.H.$X9X9X9X9X9X9X9X9X9X9X9X9X9X9X9X9X:X`.V.V.A.} 8.<.M.m.m.<.8.8.8.8.g.b.9.8.",
"8.8.8.v.b.b.z.8.8.8.8.8.8.8.8.8.8.8.8.8.8.8.8.8. .A.V.V.V.].%X7X9X9X9X9X9X9X9X9X9X*X|.K.V.V.V.I.4.8.8.8.8.8.8.8.8.8.8.0.b.l.8.8.",
"8.8.h.b.b.b.b.9.8.8.8.8.8.8.8.8.8.8.8.8.8.8.8.8.8.8.!.N.V.V.V.V.K.L. X2X2X XL.L.V.V.V.V.C.R.<.8.8.8.8.8.8.8.8.8.8.8.f.v.b.d.8.8.",
"a.k.b.b.b.b.b.v.0.8.8.8.8.8.8.8.8.8.8.8.8.8.8.8.a.c.b.b.p.U.m.C.V.V.J.>X>XJ.V.V.V.V.m.} 4.8.8.8.8.8.8.8.8.8.8.8.s.c.b.b.c.8.8.8.",
"b.b.b.b.b.b.b.b.z.8.8.8.8.8.8.8.8.8.8.8.8.8.g.z.b.b.b.b.b.g.j.v.b.S.V.=X=XV.Z.0XX.8.8.8.8.8.8.8.8.8.8.8.8.8.a.l.b.b.b.b.b.g.g.k.",
"l.s.a.a.a.a.d.c.b.z.8.8.8.8.8.8.8.8.8.8.8.j.b.b.b.b.b.b.b.b.b.b.k.T.V.P._.V.E.c.b.z.8.8.8.8.8.8.8.8.8.8.0.c.b.b.b.b.b.b.b.b.b.b.",
"8.8.8.8.8.8.8.8.k.b.j.8.8.8.8.8.8.8.8.8.j.b.b.b.b.b.b.b.b.c.l.9.8.4.C.V.V.V. .8.j.b.j.8.8.8.8.8.8.8.8.8.z.b.b.b.v.l.l.l.l.l.h.8.",
"8.8.8.8.8.8.8.8.8.v.b.l.g.g.k.v.b.c.l.l.b.b.v.d.8.8.8.8.8.8.8.8.8.8...Y.U.1.8.8.8.c.b.l.g.g.k.v.b.b.z.z.b.b.v.d.8.8.8.8.8.8.8.8.",
"8.8.8.8.8.8.8.8.8.j.b.b.b.b.b.b.b.b.b.b.b.b.d.8.8.8.8.8.8.8.8.8.8.8.8.8.8.8.8.8.8.j.b.b.b.b.b.b.b.b.b.b.b.b.d.8.8.8.8.8.8.8.8.8.",
"8.8.8.8.8.8.8.8.8.h.b.l.h.g.f.g.h.c.b.b.b.b.a.8.8.8.8.8.8.8.8.8.8.8.8.8.8.8.8.8.8.l.b.l.g.g.g.g.j.c.b.b.b.b.a.8.8.8.8.8.8.8.8.8.",
"8.8.8.8.8.8.8.8.8.z.v.8.8.8.8.8.8.8.k.b.b.b.8.8.8.8.8.8.8.8.8.8.8.8.8.8.8.8.8.8.8.v.b.8.8.8.8.8.8.8.k.b.b.b.8.8.8.8.8.8.8.8.8.8.",
"8.8.8.8.8.8.8.8.8.b.z.8.8.8.8.8.8.8.g.b.b.c.8.8.8.8.8.8.8.8.8.8.8.8.8.8.8.8.8.8.0.b.z.8.8.8.8.8.8.8.g.b.b.c.8.8.8.8.8.8.8.8.8.8."
};
