/* XPM */
static char *result[] = {
/* columns rows colors chars-per-pixel */
"64 64 15 1 ",
"  c black",
". c #423524",
"X c gray26",
"o c #7D5C58",
"O c #4364ED",
"+ c #90BCEF",
"@ c #D2D9FE",
"# c #5E86C0",
"$ c #939391",
"% c #E3AB82",
"& c #FFD8BF",
"* c #C2C0DF",
"= c #D1CFDF",
"- c #EFEDFC",
"; c None",
/* pixels */
";;;;;;;;;;;;;;;;;;;;;;;;;;;;;;;;;;;;;;;;;;;;;;;;;;;;;;;;;;;;;;;;",
";;;;;;;;;;;;;;;;;;;;;;;;;;;;;;;;;;;;;;;;;;;;;;;;;;;;;;;;;;;;;;;;",
";;;;;;;;;;;;;;;;;;;;;;;;;;;;;;;;;;;;;;;;;;;;;;;;;;;;;;;;;;;;;;;;",
";;;;;;;;;;;;;;;;;;;;;;;;;;;;;;;;;;;;;;;;;;;;;;;;;;;;;;;;;;;;;;;;",
";;;;;;;;;;;;;;;;;;;;;;;;;;;;;;;;;;;;;;;;;;;;;;;;;;;;;;;;;;;;;;;;",
";;;;;;;;;;;;;;;;;;;;;;;;;;;;;;;;......;;;;;;;;;;;;;;;;;;;;;;;;;;",
";;;;;;;;;;;;;;;;;;;;;;;;;;;;;;;;......;;;;;;;;;;;;;;;;;;;;;;;;;;",
";;;;;;;;;;;;;;;;;;;;;;;;;;;;....@@++..;;;;;;;;;;;;;;;;;;;;;;;;;;",
";;;;;;;;;;;;;;;;;;;;;;;;;;;;....@@++..;;;;;;;;;;;;;;;;;;;;;;;;;;",
";;;;;;;;;;;;;;;;;;;;;;;;;;..++@@++..;;;;;;;;;;;;;;;;;;;;;;;;;;;;",
";;;;;;;;;;;;;;;;;;;;;;;;;;..++@@++..;;;;;;;;;;;;;;;;;;;;;;;;;;;;",
";;;;;;;;;;;;;;;;;;;;;;;;  ++@@@@........;;;;;;;;;;;;;;;;;;;;;;;;",
";;;;;;;;;;;;;;;;;;;;;;;;  ++@@@@........;;;;;;;;;;;;;;;;;;;;;;;;",
";;;;;;;;;;;;;;;;;;;;;;;;  @@@@OO++++@@++........;;;;;;;;;;;;;;;;",
";;;;;;;;;;;;;;;;;;;;;;;;  @@@@OO++++@@++........;;;;;;;;;;;;;;;;",
";;;;;;;;;;;;;;;;;;;;..  OO@@@@++++++++@@@@++++  ;;;;;;;;;;;;;;;;",
";;;;;;;;;;;;;;;;;;;;..  OO@@@@++++++++@@@@++++  ;;;;;;;;;;;;;;;;",
";;;;;;;;;;;;;;;;;;..++++++OO++++++++++++++OO  ;;;;;;;;;;;;;;;;;;",
";;;;;;;;;;;;;;;;;;..++++++OO++++++++++++++OO  ;;;;;;;;;;;;;;;;;;",
";;;;;;;;;;;;;;;;;;;;..OO++@@@@++++++++++++++  ;;;;;;;;;;;;;;;;;;",
";;;;;;;;;;;;;;;;;;;;..OO++@@@@++++++++++++++  ;;;;;;;;;;;;;;;;;;",
";;;;;;;;;;;;;;;;;;;;  ++@@@@@@@@++++@@++++++++..;;;;;;;;;;;;;;;;",
";;;;;;;;;;;;;;;;;;;;  ++@@@@@@@@++++@@++++++++..;;;;;;;;;;;;;;;;",
";;;;;;;;;;;;;;;;;;  ++++++@@@@@@@@@@++@@++++++..;;;;;;;;;;;;;;;;",
";;;;;;;;;;;;;;;;;;  ++++++@@@@@@@@@@++@@++++++..;;;;;;;;;;;;;;;;",
";;;;;;;;;;;;;;;;;;  ++++OO++@@++@@OO++++++++++..;;;;;;;;;;;;;;;;",
";;;;;;;;;;;;;;;;;;  ++++OO++@@++@@OO++++++++++..;;;;;;;;;;;;;;;;",
";;;;;;;;;;;;;;;;;;  OO++++OOOO++++@@OOOO++++++++..;;;;;;;;;;;;;;",
";;;;;;;;;;;;;;;;;;  OO++++OOOO++++@@OOOO++++++++..;;;;;;;;;;;;;;",
";;;;;;;;;;;;;;;;;;;;  OOOOOO%%OO++++++OOOO++++OO  ;;;;;;;;;;;;;;",
";;;;;;;;;;;;;;;;;;;;  OOOOOO%%OO++++++OOOO++++OO  ;;;;;;;;;;;;;;",
";;;;;;;;;;;;;;;;;;;;  %%XX==%%OOOOOOOOOOOOOOXX    ;;;;;;;;;;;;;;",
";;;;;;;;;;;;;;;;;;;;  %%XX==%%OOOOOOOOOOOOOOXX    ;;;;;;;;;;;;;;",
";;;;;;;;;;;;;;;;;;;;%%&&  --&&oo%%OOOOOOXXOO  ;;;;;;;;;;;;;;;;;;",
";;;;;;;;;;;;;;;;;;;;%%&&  --&&oo%%OOOOOOXXOO  ;;;;;;;;;;;;;;;;;;",
";;;;;;;;;;;;;;;;;;;;oo&&&&&&&&%%%%%%ooOOOO  ;;;;;;;;;;;;;;;;;;;;",
";;;;;;;;;;;;;;;;;;;;oo&&&&&&&&%%%%%%ooOOOO  ;;;;;;;;;;;;;;;;;;;;",
";;;;;;;;;;;;;;;;;;;;;;  %%&&%%%%%%ooOO    ;;;;;;;;;;;;;;;;;;;;;;",
";;;;;;;;;;;;;;;;;;;;;;  %%&&%%%%%%ooOO    ;;;;;;;;;;;;;;;;;;;;;;",
";;;;;;;;;;;;;;;;;;;;;;;;  ooooooXXXX  ;;;;;;;;;;;;;;;;;;;;;;;;;;",
";;;;;;;;;;;;;;;;;;;;;;;;  ooooooXXXX  ;;;;;;;;;;;;;;;;;;;;;;;;;;",
";;;;;;;;;;;;;;;;;;;;;;;;XX**oo****oo  ;;;;;;;;;;;;;;;;;;;;;;;;;;",
";;;;;;;;;;;;;;;;;;;;;;;;XX**oo****oo  ;;;;;;;;;;;;;;;;;;;;;;;;;;",
";;;;;;;;;;;;;;;;;;;;;;XX--oo**----oo**  ;;;;;;;;;;;;;;;;;;;;;;;;",
";;;;;;;;;;;;;;;;;;;;;;XX--oo**----oo**  ;;;;;;;;;;;;;;;;;;;;;;;;",
";;;;;;;;;;;;;;;;;;;;;;  --oo----**oo--  $$$$;;;;;;;;;;;;;;;;;;;;",
";;;;;;;;;;;;;;;;;;;;;;  --oo----**oo--  $$$$;;;;;;;;;;;;;;;;;;;;",
";;;;;;;;;;;;;;;;;;;;$$$$  &&&&**oo++OO  $$$$$$;;;;;;;;;;;;;;;;;;",
";;;;;;;;;;;;;;;;;;;;$$$$  &&&&**oo++OO  $$$$$$;;;;;;;;;;;;;;;;;;",
";;;;;;;;;;;;;;;;;;;;$$$$  %%&&oo++OO  $$$$$$$$;;;;;;;;;;;;;;;;;;",
";;;;;;;;;;;;;;;;;;;;$$$$  %%&&oo++OO  $$$$$$$$;;;;;;;;;;;;;;;;;;",
";;;;;;;;;;;;;;;;;;;;$$$$$$  oo######  $$$$$$$$;;;;;;;;;;;;;;;;;;",
";;;;;;;;;;;;;;;;;;;;$$$$$$  oo######  $$$$$$$$;;;;;;;;;;;;;;;;;;",
";;;;;;;;;;;;;;;;;;;;;;$$$$$$        $$$$$$$$;;;;;;;;;;;;;;;;;;;;",
";;;;;;;;;;;;;;;;;;;;;;$$$$$$        $$$$$$$$;;;;;;;;;;;;;;;;;;;;",
";;;;;;;;;;;;;;;;;;;;;;;;;;;;$$$$$$$$$$$;;;;;;;;;;;;;;;;;;;;;;;;;",
";;;;;;;;;;;;;;;;;;;;;;;;;;;;$$$$$$$$$$$;;;;;;;;;;;;;;;;;;;;;;;;;",
";;;;;;;;;;;;;;;;;;;;;;;;;;;;;;;;;;;;;;;;;;;;;;;;;;;;;;;;;;;;;;;;",
";;;;;;;;;;;;;;;;;;;;;;;;;;;;;;;;;;;;;;;;;;;;;;;;;;;;;;;;;;;;;;;;",
";;;;;;;;;;;;;;;;;;;;;;;;;;;;;;;;;;;;;;;;;;;;;;;;;;;;;;;;;;;;;;;;",
";;;;;;;;;;;;;;;;;;;;;;;;;;;;;;;;;;;;;;;;;;;;;;;;;;;;;;;;;;;;;;;;",
";;;;;;;;;;;;;;;;;;;;;;;;;;;;;;;;;;;;;;;;;;;;;;;;;;;;;;;;;;;;;;;;",
";;;;;;;;;;;;;;;;;;;;;;;;;;;;;;;;;;;;;;;;;;;;;;;;;;;;;;;;;;;;;;;;",
";;;;;;;;;;;;;;;;;;;;;;;;;;;;;;;;;;;;;;;;;;;;;;;;;;;;;;;;;;;;;;;;"
};
