/* XPM */
static char *result[] = {
/* columns rows colors chars-per-pixel */
"64 64 8 1 ",
"  c #101010",
". c #513B47",
"X c #A53B40",
"o c #C35161",
"O c #B7A1B6",
"+ c #C6959C",
"@ c #E6EEF8",
"# c None",
/* pixels */
"################################################################",
"################################################################",
"################################################################",
"################################################################",
"################################################################",
"################################################################",
"################################################################",
"################################################################",
"################################################################",
"################################################################",
"################################################################",
"################################################################",
"################################################################",
"################################################################",
"############################......##############################",
"############################......##############################",
"########################      ++++..############################",
"########################      ++++..############################",
"######################  @@@@@@..    ############################",
"######################  @@@@@@..    ############################",
"####################  @@@@@@OO@@@@@@    ########################",
"####################  @@@@@@OO@@@@@@    ########################",
"####################  @@@@@@@@....@@@@@@  ######################",
"####################  @@@@@@@@....@@@@@@  ######################",
"####################  ..OO@@..++++..@@@@  ######################",
"####################  ..OO@@..++++..@@@@  ######################",
"####################..@@@@@@@@@@++..@@@@OO..####################",
"####################..@@@@@@@@@@++..@@@@OO..####################",
"##################..OO@@@@@@@@@@@@@@@@@@@@@@..##################",
"##################..OO@@@@@@@@@@@@@@@@@@@@@@..##################",
"##################..OO@@++@@@@@@@@@@@@@@@@@@..##################",
"##################..OO@@++@@@@@@@@@@@@@@@@@@..##################",
"##################  OO@@XX@@@@@@@@@@@@@@@@OO..##################",
"##################  OO@@XX@@@@@@@@@@@@@@@@OO..##################",
"##################  OOOO@@@@@@@@@@@@@@@@OO..####################",
"##################  OOOO@@@@@@@@@@@@@@@@OO..####################",
"##################  ....XXXX@@@@@@@@OOOOOO  ####################",
"##################  ....XXXX@@@@@@@@OOOOOO  ####################",
"####################  OOXXXXOOOOOOOOOOOO..######################",
"####################  OOXXXXOOOOOOOOOOOO..######################",
"######################  ..OOOOOOOOOOOO    ######################",
"######################  ..OOOOOOOOOOOO    ######################",
"##########################....    OO@@  ########################",
"##########################....    OO@@  ########################",
"################################  @@oo..########################",
"################################  @@oo..########################",
"##############################..oooo..  ########################",
"##############################..oooo..  ########################",
"##############################..oooo  ##########################",
"##############################..oooo  ##########################",
"################################..  ############################",
"################################..  ############################",
"################################################################",
"################################################################",
"################################################################",
"################################################################",
"################################################################",
"################################################################",
"################################################################",
"################################################################",
"################################################################",
"################################################################",
"################################################################",
"################################################################"
};
