/* XPM */
static char *result[] = {
/* columns rows colors chars-per-pixel */
"64 64 163 2 ",
"   c gray30",
".  c #545351",
"X  c #5B5A56",
"o  c #61564C",
"O  c #63605B",
"+  c #6A6760",
"@  c #726E65",
"#  c #79746A",
"$  c #9F744B",
"%  c #A1754C",
"&  c #AA7B4F",
"*  c #A17850",
"=  c #A37950",
"-  c #AB7E53",
";  c #817B6F",
":  c #AD8258",
">  c #AE865D",
",  c #888274",
"<  c #8F8878",
"1  c #978F7D",
"2  c #AC8D69",
"3  c #B08A62",
"4  c #B59570",
"5  c #B79975",
"6  c #B69D7D",
"7  c #BAA07E",
"8  c #63C5CF",
"9  c #65C5CF",
"0  c #66C6D0",
"q  c #68C6D0",
"w  c #69C7D0",
"e  c #6AC7D1",
"r  c #6CC8D1",
"t  c #6DC8D1",
"y  c #6EC8D1",
"u  c #6EC8D2",
"i  c #70C9D2",
"p  c #71C9D2",
"a  c #72C9D2",
"s  c #72CAD3",
"d  c #73CAD3",
"f  c #7ACAD1",
"g  c #78CBD2",
"h  c #7BCBD2",
"j  c #7ECCD3",
"k  c #7ACCD4",
"l  c #7ECCD4",
"z  c #7DCED5",
"x  c #7FCED5",
"c  c #7DCDD6",
"v  c #9E9582",
"b  c #A69C87",
"n  c #ADA38C",
"m  c #BBA483",
"M  c #B3A78C",
"N  c #B3A78D",
"B  c #B4A78C",
"V  c #B2A88D",
"C  c #B1A88F",
"Z  c #B0A98F",
"A  c #B1A98F",
"S  c #B2A88E",
"D  c #B2A88F",
"F  c #B5A88C",
"G  c #B4A88D",
"H  c #B6A98D",
"J  c #B7AA8E",
"K  c #B8AB8F",
"L  c #BDAA8C",
"P  c #BFAB8C",
"I  c #ABAA93",
"U  c #ADA991",
"Y  c #AFA990",
"T  c #AEA991",
"R  c #AFA991",
"E  c #AEAA91",
"W  c #ACA992",
"Q  c #ADAA92",
"!  c #ACAA93",
"~  c #ADAA93",
"^  c #AEAA92",
"/  c #AEAA93",
"(  c #AEAB93",
")  c #A9AB94",
"_  c #A9AB95",
"`  c #ABAA94",
"'  c #ABAB94",
"]  c #AAAB95",
"[  c #ACAA94",
"{  c #ACAB94",
"}  c #AEAF9B",
"|  c #B0A890",
" . c #B1A890",
".. c #B0A990",
"X. c #B5A991",
"o. c #B2AC97",
"O. c #B9AC90",
"+. c #BAAD91",
"@. c #BBAE92",
"#. c #BCAF93",
"$. c #BDB094",
"%. c #BEB195",
"&. c #BCB096",
"*. c #BFB296",
"=. c #A6B7A7",
"-. c #A9B6A6",
";. c #ABB7A7",
":. c #AEB6A5",
">. c #A5B7A8",
",. c #A7B8AA",
"<. c #A7B9AA",
"1. c #A7BBAE",
"2. c #ACBAAB",
"3. c #ABBBAF",
"4. c #B1B5A1",
"5. c #A7BFB4",
"6. c #AABCB0",
"7. c #ABBFB3",
"8. c #ADBFB2",
"9. c #C0AF91",
"0. c #C0B397",
"q. c #C2B396",
"w. c #C1B498",
"e. c #C2B599",
"r. c #C3B69A",
"t. c #C4B79B",
"y. c #9FC0B7",
"u. c #AAC1B6",
"i. c #A9C2B7",
"p. c #ABC2B7",
"a. c #ADC1B5",
"s. c #86CBCE",
"d. c #8ACCCE",
"f. c #94C6C5",
"g. c #9CC7C3",
"h. c #9FC9C5",
"j. c #94C9C8",
"k. c #91CACD",
"l. c #94CBCC",
"z. c #96CBCC",
"x. c #94CDCF",
"c. c #9DCBC9",
"v. c #99CDCF",
"b. c #9BCECE",
"n. c #85CCD0",
"m. c #86CCD0",
"M. c #86CED3",
"N. c #83CFD6",
"B. c #84CED4",
"V. c #88CCD1",
"C. c #89CED1",
"Z. c #88CED3",
"A. c #89CED3",
"S. c #8ECDD0",
"D. c #8CCED3",
"F. c #88CFD4",
"G. c #A0C7C1",
"H. c #A3C7C1",
"J. c #A0C7C2",
"K. c #A1C9C5",
"L. c #A3C9C4",
"P. c #A1CAC5",
"I. c #A1CBC9",
/* pixels */
"8 8 8 8 8 8 8 8 9 s u 8 8 8 8 8 8 8 e s s e 8 8 8 8 8 8 8 8 8 8 8 8 8 8 8 8 8 8 0 s u 8 8 8 8 8 8 8 e s s w 8 8 8 8 8 8 8 8 8 8 ",
"8 8 8 8 8 8 8 8 8 s s 8 8 8 8 8 8 8 e s s w 8 8 8 8 8 8 8 8 8 8 8 8 8 8 8 8 8 8 8 s s 8 8 8 8 8 8 8 e s s 0 8 8 8 8 8 8 8 8 8 8 ",
"8 8 8 8 8 8 8 8 8 s s 8 8 8 8 8 8 8 9 s s e 8 8 8 8 8 8 8 8 8 8 8 8 8 8 8 8 8 8 8 s s 8 8 8 8 8 8 8 8 s s w 8 8 8 8 8 8 8 8 8 8 ",
"8 8 8 8 8 8 8 8 0 s s 8 8 8 8 8 8 8 8 e s p 8 8 8 8 8 8 8 8 8 8 8 8 8 8 8 8 8 8 q s s 8 8 8 8 8 8 8 8 e s i 9 8 8 8 8 8 8 8 8 8 ",
"8 8 8 8 8 8 8 8 i s p 8 8 8 8 8 8 8 8 8 e s i 9 8 j z.H.7.8.8.8.8.8.7.5.J.l.h 9 p s p 8 8 8 8 8 8 8 8 8 r s i 8 8 8 8 8 8 8 8 8 ",
"0 8 8 8 8 8 9 i s s s u 8 8 8 8 8 8 8 8 9 c b.u.Y B B B B B B B B B B B B B M R i.v.k u 8 8 8 8 8 8 8 8 q s s p q 0 0 0 0 0 0 0 ",
"s i e e e e s s i u i s i 0 8 8 8 8 9 Z.a. .B B B K #.$.0.0.0.0.0.0.0.0.$.#.K B B B C u.F.0 8 8 8 8 9 r p s s s s s s s s s s s ",
"s s s s s s s e 8 8 8 q s s i u u F.p.N B F +.0.t.t.t.t.t.t.t.t.t.t.t.t.t.t.t.t.*.+.B B G i.M.u u i s s p w 9 8 8 r p s s s t e ",
"s s s s i t 9 8 8 8 8 8 w s s d h.C B H %.r.t.t.t.t.t.t.t.t.t.t.t.t.t.t.t.t.t.t.t.t.r.$.H B M L.s i u e 8 8 8 8 8 8 8 r s s i u ",
"e 8 8 8 8 8 8 8 8 8 8 8 8 p B.<.B F *.t.t.t.t.t.t.t.t.t.t.t.t.t.t.t.t.t.t.t.t.t.t.t.t.t.t.%.F B =.f 8 8 8 8 8 8 8 8 8 8 i s s s ",
"8 8 8 8 8 8 8 8 8 8 8 8 8 S.^ B @.t.t.t.t.t.t.t.t.t.t.t.t.t.t.t.t.t.t.t.t.t.t.t.t.t.t.t.t.t.r.O.B C d.8 8 8 8 8 8 8 8 8 s s e 0 ",
"8 8 8 8 8 8 8 8 8 8 8 8 f.D F 0.t.t.t.t.t.t.t.t.t.X.v , + + + + + + + @ , b &.t.t.t.t.t.t.t.t.t.%.B M g.8 8 8 8 8 8 8 q s u 8 8 ",
"8 8 8 8 8 8 8 8 8 8 8 k.V J r.t.t.t.t.t.t.t.&.< O                             @ 1 t.t.t.t.t.t.t.t.w.F B l.8 8 8 8 8 8 w s u 8 8 ",
"8 8 8 8 8 8 8 8 8 8 C.S F r.t.t.t.t.t.t.t.,                                       X < t.t.t.t.t.t.t.w.B M V.8 8 8 8 8 9 s i 8 8 ",
"8 8 8 8 8 8 8 8 8 A...B %.t.t.t.t.t.t.v .                                             + n t.t.t.t.t.t.%.B N m.8 8 8 8 8 i s q 8 ",
"8 8 8 8 8 8 8 8 k } B %.t.t.t.t.t.&.@                                                     1 t.t.t.t.t.t.%.B o.a 8 8 8 8 q s r 8 ",
"8 8 8 8 8 8 8 u 6.B +.t.t.t.t.t.&.O                                                         # t.t.t.t.t.t.+.B 2.8 8 8 8 8 s u 8 ",
"8 8 8 8 8 8 r K.B J r.t.t.t.t.t.<                                                             ; t.t.t.t.t.r.J B G.8 8 8 8 s u 8 ",
"8 8 8 8 8 t x A F w.t.t.t.t.t.6 o                                                               2 t.t.t.t.t.w.F B g 8 8 8 s u 8 ",
"8 8 8 q s s ,.B #.t.t.t.t.t.L * o                                                               $ 6 t.t.t.t.t.#.B -.8 8 0 s w 8 ",
"8 8 8 u s D.M F r.t.t.t.t.9.= $ o                                                               $ $ m t.t.t.t.r.F B n.8 e s 9 8 ",
"8 8 8 s s 3.B $.t.t.t.t.t.> % $ o                                                               $ $ - q.t.t.t.t.$.B 1.9 s i 8 8 ",
"8 8 w s z V F r.t.t.t.t.7 & % $ o                                                               $ $ & 5 t.t.t.t.r.F N l s e 8 8 ",
"q u s s c.B @.t.t.t.t.t.: & % $ o                                                               $ $ & & q.t.t.t.t.@.B I.p 8 8 8 ",
"s s s s ;.B *.t.t.t.t.7 & & % $ o                                                               $ $ & & 5 t.t.t.t.*.B :.p u i s ",
"w 8 8 y C F t.t.t.t.t.> & & % $ o                                                               $ $ & & : t.t.t.t.t.F G N.s s s ",
"8 8 8 s.B O.t.t.t.t.9.& & & % $ o                                                               $ $ & & & P t.t.t.t.O.B x.q 8 8 ",
"8 8 8 j.B #.t.t.t.t.7 & & & % $ o                                                               $ $ & & & 5 t.t.t.t.#.B P.8 8 8 ",
"8 8 8 y.B 0.t.t.t.t.4 & & & % $ o                                                               $ $ & & & 3 t.t.t.t.0.B 8.8 8 8 ",
"8 8 8 >.B e.t.t.t.t.3 & & & % $ o                                                               $ $ & & & - t.t.t.t.e.B 4.8 8 8 ",
"8 8 8 _ B t.t.t.t.t.3 & & & % $ o                                                               $ $ & & & & t.t.t.t.t.B M 8 8 8 ",
"8 8 8 _ B t.t.t.t.t.: & & & % $ o                                                               $ $ & & & & t.t.t.t.t.B B 8 8 8 ",
"8 8 8 _ B t.t.t.t.t.& & & & % $ o                                                               $ $ & & & & t.t.t.t.t.B B 8 8 8 ",
"8 8 8 _ B t.t.t.t.t.& & & & % $ o                                                               $ $ & & & & t.t.t.t.t.B B 8 8 8 ",
"8 8 8 _ B t.t.t.t.t.& & & & % $ o                                                               $ $ & & & & t.t.t.t.t.B B 8 8 8 ",
"8 8 8 ] B t.t.t.t.t.& & & & % $ o                                                               $ $ & & & & t.t.t.t.t.B B 8 8 8 ",
"8 8 8 ) B t.t.t.t.t.& & & & % $ o                                                               $ $ & & & & t.t.t.t.t.B B 8 8 8 ",
"8 8 8 ` B t.t.t.t.t.& & & & % $ o                                                               $ $ & & & & t.t.t.t.t.B B 8 9 0 ",
"p e 0 [ B t.t.t.t.t.& & & & % $ o                                                               $ $ & & & & t.t.t.t.t.B B s s s ",
"s s s ~ B t.t.t.t.t.& & & & % $ o                                                               $ $ & & & & t.t.t.t.t.B B s t e ",
"s s s ..B t.t.t.t.t.& & & & % $ o                                                               $ $ & & & & t.t.t.t.t.B B s t r ",
"u q 0 Z B t.t.t.t.t.& & & & % $ o                                                               $ $ & & & & t.t.t.t.t.B B s s s ",
"8 8 8 Q B t.t.t.t.t.& & & & % $ o                                                               $ $ & & & & t.t.t.t.t.B B s e 0 ",
"8 8 8 U B t.t.t.t.t.& & & & % $ o                                                               $ $ & & & & t.t.t.t.t.B B u 8 8 ",
"8 8 8 U B t.t.t.t.t.& & & & % $ o                                                               $ $ & & & & t.t.t.t.t.B B u 8 8 ",
"8 8 8 U B t.t.t.t.t.& & & & % $ o                                                               $ $ & & & & t.t.t.t.t.B B i 8 8 ",
"8 8 8 Q B t.t.t.t.t.& & & & % $ o                                                               $ $ & & & & t.t.t.t.t.B B s w 8 ",
"8 8 8 Q B t.t.t.t.t.& & & & % $ o                                                               $ $ & & & & t.t.t.t.t.B B s t 8 ",
"8 8 8 W B t.t.t.t.t.& & & & % $ o                                                               $ $ & & & & t.t.t.t.t.B B s u 8 ",
"8 8 8 ! B t.t.t.t.t.& & & & % $ o                                                               $ $ & & & & t.t.t.t.t.B B s u 8 ",
"8 8 8 I B t.t.t.t.t.& & & & % $ o                                                               $ $ & & & & t.t.t.t.t.B B s u 8 ",
"8 8 8 ' B t.t.t.t.t.& & & & % $ o                                                               $ $ & & & & t.t.t.t.t.B B s w 8 ",
"8 8 8 { B t.t.t.t.t.& & & & % $ o                                                               $ $ & & & & t.t.t.t.t.B B s 8 8 ",
"8 8 8 { B t.t.t.t.t.& & & & % $ o                                                               $ $ & & & & t.t.t.t.t.B B u 8 8 ",
"8 8 e ~ B t.t.t.t.t.& & & & % $ o                                                               $ $ & & & & t.t.t.t.t.B B q 8 8 ",
"0 t s ( B t.t.t.t.t.& & & & % $ o                                                               $ $ & & & & t.t.t.t.t.B B 8 8 8 ",
"s s s / B t.t.t.t.t.& & & & % $ o                                                               $ $ & & & & t.t.t.t.t.B B e e t ",
"u q 0 Q B t.t.t.t.t.& & & & % $ o                                                               $ $ & & & & t.t.t.t.t.B M s s s ",
"8 8 8 T B t.t.t.t.t.& & & & % $ o                                                               $ $ & & & & t.t.t.t.t.B M u e 8 ",
"8 8 8 E B t.t.t.t.t.& & & & % $ o                                                               $ $ & & & & t.t.t.t.t.B G 8 8 8 ",
"8 8 8 R B t.t.t.t.t.& & & & % $ o                                                               $ $ & & & & t.t.t.t.t.B M 8 8 8 ",
"8 8 8 Y B t.t.t.t.t.& & & & % $ o                                                               $ $ & & & & t.t.t.t.t.B M 8 8 8 ",
"8 8 8 T B t.t.t.t.t.& & & & % $ o                                                               $ $ & & & & t.t.t.t.t.B M 8 8 8 ",
"8 8 8 | B t.t.t.t.t.& & & & % $ o                                                               $ $ & & & & t.t.t.t.t.B G 8 8 8 "
};
