/* XPM */
static char *result[] = {
/* columns rows colors chars-per-pixel */
"64 64 230 2 ",
"   c #00006C",
".  c #FD2B00",
"X  c #F34515",
"o  c #ED7900",
"O  c #EF5239",
"+  c #DB054D",
"@  c #AB606B",
"#  c #F4654F",
"$  c #DA4164",
"%  c #DD6F72",
"&  c #EB6D6B",
"*  c #EE8205",
"=  c #F18500",
"-  c #EE861C",
";  c #EE882C",
":  c #F28C2C",
">  c #EC8936",
",  c #F08E3C",
"<  c #ED9353",
"1  c #E49361",
"2  c #D4BA75",
"3  c #EDAD6A",
"4  c #DBC37E",
"5  c #E5C878",
"6  c #EACC7C",
"7  c #EED27C",
"8  c #F2D47D",
"9  c #00288A",
"0  c #00398D",
"q  c #014E8D",
"w  c #295993",
"e  c #526B8F",
"r  c #697A9A",
"t  c #5A75A2",
"y  c #E07883",
"u  c #04929E",
"i  c #17949F",
"p  c #0193A2",
"a  c #019CAC",
"s  c #0A9CA9",
"d  c #1C9AA6",
"f  c #009EB3",
"g  c #03A1AF",
"h  c #10A0AD",
"j  c #01A4B5",
"k  c #0BA4B2",
"l  c #04A8B6",
"z  c #00A4B9",
"x  c #02AABB",
"c  c #08ACBB",
"v  c #14A6B3",
"b  c #1BA6B3",
"n  c #19ACBB",
"m  c #25A1AF",
"M  c #21A7B4",
"N  c #29A9B5",
"B  c #33AAB6",
"V  c #589C9E",
"C  c #6E8AA8",
"Z  c #5BABAD",
"A  c #45A9B1",
"S  c #4FACB3",
"D  c #74AAA8",
"F  c #6CAEB1",
"G  c #07AFC3",
"H  c #13AEC2",
"J  c #02B1C5",
"K  c #0CB3C6",
"L  c #06B8CA",
"P  c #0CBBCD",
"I  c #12B2C5",
"U  c #15BACC",
"Y  c #07BED1",
"T  c #14BFD0",
"R  c #27B6C7",
"E  c #30B4C7",
"W  c #5CBBC5",
"Q  c #00C2D5",
"!  c #0CC4D5",
"~  c #08C7D8",
"^  c #01CCDD",
"/  c #0ACDDE",
"(  c #19C5D6",
")  c #13CCDD",
"_  c #1CCDDE",
"`  c #23C2D2",
"'  c #24CDDD",
"]  c #2BCEDD",
"[  c #37CCDA",
"{  c #36D0DF",
"}  c #00CBE1",
"|  c #0ACFE0",
" . c #05D2E3",
".. c #14D0E2",
"X. c #2CD1E2",
"o. c #33D1E0",
"O. c #3CD2E1",
"+. c #48CBD8",
"@. c #52C4D3",
"#. c #53CBD7",
"$. c #5AD0D7",
"%. c #57D0DD",
"&. c #68CCD6",
"*. c #77D3D2",
"=. c #45D4E2",
"-. c #4CD5E3",
";. c #54D6E4",
":. c #8B9395",
">. c #B09295",
",. c #93A399",
"<. c #9BB39B",
"1. c #BDB787",
"2. c #A9A69C",
"3. c #A9B899",
"4. c #B3B695",
"5. c #8B98A8",
"6. c #969DAC",
"7. c #96AAAD",
"8. c #8CB2A2",
"9. c #A7A7AA",
"0. c #ABB4A7",
"q. c #ABB1B7",
"w. c #B9BCB6",
"e. c #CF918C",
"r. c #ED8D90",
"t. c #CABD86",
"y. c #D0BF83",
"u. c #CFB494",
"i. c #EFAE93",
"p. c #CBB1AD",
"a. c #EBB7AF",
"s. c #BDC3B9",
"d. c #BDDDBF",
"f. c #D9C685",
"g. c #CBC695",
"h. c #E7CC84",
"j. c #F0CD81",
"k. c #EED383",
"l. c #E7D188",
"z. c #F1D583",
"x. c #F5DB85",
"c. c #F6DC8C",
"v. c #E3CC97",
"b. c #EBD394",
"n. c #F5DC93",
"m. c #FAE28E",
"M. c #FAE494",
"N. c #FFEB95",
"B. c #F4E199",
"V. c #FBE699",
"C. c #FEEB9C",
"Z. c #DBD5A4",
"A. c #C3C6B7",
"S. c #C2C4BA",
"D. c #CBDFB8",
"F. c #D4D1B7",
"G. c #E4CEA8",
"H. c #E6D5A9",
"J. c #F3D5AE",
"K. c #F1DBA9",
"L. c #F9C9BB",
"P. c #E8DAB8",
"I. c #CCE0B8",
"U. c #D4E1B3",
"Y. c #E7E4AB",
"T. c #F2E6A2",
"R. c #FEECA2",
"E. c #F4E1AE",
"W. c #FFEDAB",
"Q. c #F8ECB1",
"!. c #F9EAB6",
"~. c #89BEC8",
"^. c #A3BDC2",
"/. c #B7B9C6",
"(. c #8BC5C9",
"). c #97C3CA",
"_. c #97D7CB",
"`. c #84CFD0",
"'. c #B1CDCC",
"]. c #A8D9C6",
"[. c #B7DCC0",
"{. c #C5C8C6",
"}. c #C6CACA",
"|. c #CACCCB",
" X c None",
".X c None",
"XX c None",
"oX c None",
"OX c None",
"+X c None",
"@X c None",
"#X c None",
"$X c None",
"%X c None",
"&X c None",
"*X c None",
"=X c None",
"-X c None",
";X c None",
":X c None",
">X c None",
",X c None",
"<X c None",
"1X c None",
"2X c None",
"3X c None",
"4X c None",
"5X c None",
"6X c None",
"7X c None",
"8X c None",
"9X c None",
"0X c None",
"qX c None",
"wX c None",
"eX c None",
"rX c None",
"tX c None",
"yX c None",
"uX c None",
"iX c None",
"pX c None",
"aX c None",
"sX c None",
"dX c None",
"fX c None",
"gX c None",
"hX c None",
"jX c None",
"kX c None",
/* pixels */
"8XkXdX0XkX0XkXfX8XkX0XdXkX8XkXdXdXkX8XkXdX0XkX0XkXdX0XkX0XjXkX8XkXdXdXkX8XkXdXaXkX8XkXhX0XkX8XkXgX0XkX0XfXkX0XkXsXdXkX8XkXdX0XkX",
"kXdXdXkX0XkXdXdXkXsXkXdXdXkXdXdXdXdXkXdXdXkXaXkXdXdXkXdXkXdXdXkXeXdXdXdXkXdXhXfX0XkXsXfXkXsXkXsXdXkX0XkXdXsXkXaXgXfXsXkXsXfXkXeX",
"gXdXdXdXdXkXdXdXfXdXhXdXdXgXdXdXdXdXdXdXdXdXdXdXdXdXdXdXfXdXdXkXdXdXdXdXdXdXdXdXdXgXdXdXdXdXgXhXdXfXdXhXdXdXgXdXhXdXdXdXdXdXhXsX",
"0XkXdX0XkX0XdXkX0XkXdXdXkX8XkXdXdXkX0XkXdXdXkX0XdXkX0XkX0XdXkX0XkXdXdXkX0XkXdXdXkX0XkXdXeXkX0XgXgXaXkXeXdXkX0XkXsXdXkX0XkXfXsXkX",
"kXaXdXkX8XkXdXaXkX0XkXhX0XkX0XkXfX0XkX0XdXkX8XkXdXdXkX8XkXdX0XkX8XkXgX8XkX0XkXkX0XkXsXdXkX8XkXsXsXkX0XkXdXeXkX0XkXfX0XkX0XgXkX8X",
"0XkXhXyXkX0XdXgX0XkXsXdXkX0XkXsXdXkX0XkXdXdXkX0XkXdX0XkX0XkXkX0XkXaXdXkX0XkXdX0XkX0XkXfXsXkX0XfXgX0XkXaXdXkX0XkXaXdXkX0XkXdXsXkX",
"fXdXdXdXdXdXdXdXkXdXhXdXdXfXdXdXdXdXdXdXfXjXdXdXdXdXdXdXfXdXdXdXdXkXdXdXdXdXdXdXsXfXdXdXgXdXhXdXdXhXsXfXdXdXfXdXhXdXdXfXdXdXgXsX",
"kXdXdXhXdXkXdXdXkX0XgXdX8XhXdXfXdXdXkXdXdXkXdXkXdXdXkX0XjXdXdXkX0XeXdXdXkXdXdXkXsXkXdXdXfXsXgXdXdXgXsXkXdXaXdXaXgXfXeXkXaXfXkXsX",
"0XkXgXeXkX0XgXgX8XkX0X0XfX8XkXdXaXkX0XkXgXaXkX0XkXgX0XkX0XhXkX8XgX0XsXkX0XkXdXaXkX0XkXdXeXkX0XkXgX0XkXeXaXhX0XkXsXsXkX0XkXdXsXkX",
"kXaXsXkX0XkXsXaXkX8XdXsX0XkX8XkXgX0XkX0XdXkX8XkXsXdXkX8XkXdX0XgX8XkXhX0XkX0XgXkX0XkXsXdXkX0XkXdXsXkX0XfX0X0X0X0XjXgXaXkX0XfXkX0X",
"eXgXhXsXkXsXhXgXdXdX8XdXdXaXkXdXdXkX0XkXdXdXkXaXgXhXsXkXsXdX0X8XgXsXdXkX0XkXdXdXkXsXgXdXsXkXaXgXfXaXfX0XdXdX+XfXkX0X7XaXgXdXsXkX",
"dXhXdXdXfXdXfXdX0XdXdXdXgXdXgXdXdXgXdXdXhXdXfXdXdXdXdXdXdXeXdXdXdXdXdXdXdXdXdXdXfXdXdXdXdXhXdXdXfXsXaXaXdXhXe.r.%X$X@XfXhXdXdXfX",
"kXsXdXkXeXkXsX0XfX0XhXgXaXkXsXgXgX0XkXsXdXkX0XkXdXdXkX0XdXdX0XkXeXgXhXaXkXeXgXhX0XkXsXdXkX0XkXsXaXfX0XkXaX{.e.+ + @ 6XkX0XgXgXaX",
"8XkXfX0XkX0XgXhX8XkXaXdXkX8XkXsXdXkX0XkXdXaXkX0XgXgX0XkX8XdXkX8XkXaXdXkX8XkXsXaXkX0XkXhXeXkX0XgXfX8XkX@X}.0XfXwXp.@ {.0XkXdXaXkX",
"kXaXdXkX0XkXsXsXkX0XkXdXsXkX0XkXdX7XkX0XfXkX0XkXdXsXkX0XkXdX0XkX0XkXhX0XkX0XgXkX0XkXsXfXkX8XkXdXdXkXoXOX*X$ % e.p.0.2.0XsXdXkX8X",
"sXfXhXdXkXsXfXfXsXkXdXdXfXsXgXdXfX&XdXhXdXdXgXsXfXhXsXgXdXdXkXdXgXdXdXgXdXgXdXdXkXsXfXdXdXkXdXdXgXOXXXkXwX#X@ @ p.s.eXeXkXdXdXkX",
"dXfXfXsXgXdXdXfXdXkXdXdXkX8XfXkX1X6.=XkXkXdXgXsXdXdXdXkXdXdXdXdXhXdXdXgXdXfXdXdXgXdXgXdXdXkXdXhXhXp.r.y #X X&X,X.X9XkXdXhXdXdXkX",
"kXsXsXkX0XkXdXsXkX0XkXdXdX8X X|.0 w oXoX@XhXsXkX0XdXkX0XkXdXdXkX8XkXhXaXkX0XdXkX0XkXsXdXkX8XkXdXsXp.p.p.% >.,X9XkXkX0XkX0XdXkX8X",
"0XkXfX0XkX0XgXkX8XkX0XdXkX0X:.9 q.wX@X5XOX}.&X7XkXkX0XkX0XfXkX8XkXdXdXkX8XkXdXaXkX0XkXdX0XkX0XhXkX<XoXS.A.s.9XkXsXdXkX8XkXdXdXkX",
"kXaXdXkX0XkXdXsXkX0XkXdXaXfX,.:.&X/.9 C fXdX7.}.dXdXkX0XkXdXdXkX0XkXjXsXkXdXdXgXeXgXeXdXkXaXjXdXdXkXdXfX<X8XkX8XhXgXrXkX0XdXkX0X",
"dXdXfXdXfXdXfXhXdXgXdXdXgX.X,.A.5.  6.iXoXt 5./.dXdXdXdXdXhXhXhXdXiX3X;X:XQ.W.W.R.W.R.W.Q.Q.:X:X3XiXfXhXjXjXdXfXdXdXfXdXfXdXdXdX",
"aXgXhXsXkXaXhXfXaXkXdXdXkX&XXXw.s.+X&X5.t q.p.+XkXdXdXkXaXfX4X!.W.C.N.N.m.n.c.c.c.c.c.c.c.m.m.N.N.C.Q.;XtXgXdXkXdXdXkXsXkXdXdXkX",
"kXsXdXkX0XkXsXsXkX0XkXdX0XkXdX0X3X,X,X0.S.A.6XkXeXdXkX1X:XR.N.m.c.z.7 6 5 4 f.2 y.y.y.y.4 4 5 h.j.c.c.M.N.W.4X9XkXhX0XkX0XdXkX8X",
"0XkXfX0XkX0XfXkX0XkXqXhXkXrXkXfXdXkX8X=XXXdXkX0XkXuXQ.N.N.c.z.6 y.t.3.8.D Z A N b v b B S Z D <.4.t.4 6 z.M.N.C.;XdXkXeXkXdXsXkX",
"gXdXdXgXeXgXhXaX=Xi., 3 G.2XaXkXjXdXgXdXgXhXsXfX!.N.N.c.5 4 3.D A l l j j l j j l l l j j l z z z z S <.1.5 z.n.N.W.8X6XsXjXjXdX",
"fXsXdXhXdXdX@X$X1 = , - * - < a.*XeXjXhXhXjXqXW.N.n.5 t.8.B j l j b M b b v v k k k k k b a p D D V a a z Z 4.2 8 P.Y.;X5XpXdXdX",
"0XkXfXaXkX@X{.u.1 > - : < > : = = < i.%XqX2XR.N.z.y.8.z l j M b j j k g k c c c c G c n z '.9X& . a.8X&.j z z S 4.Z.m.E.,X6X8XkX",
"kXaXdXkX@X|.|..X'.2.e.1 > - ; > , ; = o , n.N.6 4.B z k v g g b N R L ! ~ ~ / / ) | _ } (.L.%Xw.>. X#Xa.M k N j x '.v.F.N.3XpX0X",
"0XkXdX@X|.|.|.{.A.9.9.7. XH.3 < > ; ; 3 m.C.j.<.j l b N B @.@.%.%._ | ) / / ^ ^ ^ ^ '  .9.. % #. .7.X O S G m f Z (.(.Z.m.C.yXkX",
"fXdXaXoX{.{.{.|.{.9.0.t.b.W.R.V.6 3 3 x.m.8 <.z M h S @.#.{ X./ Q ~ / ^ ^ ^ o.O.;.;.] } [ % # *XgXa.O 9.} T U f W ).(.q.k.N.;XhX",
"kXsXdXfX8X+X|.|.F.f.v.l.f.h.x.z.l.v.g.g.4.3.l v k x ! ^ ^ ^ ^ ! ) ) / O.;.;.;.=.{ ' ^ _ } U 5.'.'.^.F Y ) ~ ' ~ (.~.).B 3.N.R.0X",
"8XkXgX0XkXdXeXH.l.f.4 4 2 1.3.D A g g l l l v k L / / / ) ) ! ) ) / ^ { o./ ^ ^ ^ ^ / | ( G Y Y Q Y J H ) ) _ } *.&.).B A B.N.uX",
"kXeXdXkXaX4XR.V.5 2 1.,.V a z j l l b b M M k Q ) / / / ) ( / ) / / / ^ ^ / / ) / / ^ } Q G R ' ' R I I ( | / / ^ ^ `.B f H.N.2X",
"sXkXdXdX3XN.V.z.2 D u p p d M b v k k k k g P ../ ^ ^ ^ Q ) ) / / / / / / / / / ) / o.O.;.@.E J I H H ( / / / / / _ $.` f Z.N.4X",
"dXfXhX3XN.N.z.3.a p d i u s l k l c c L L ! } ^ ^ _ { =.;.=.^ / / / / / | / / / / -.;.=.o.' Y P U P ! / ^ / / / / ^ ^ } ` B.N.3X",
"kXsXeXW.V.z.8.z s i p u p k P ~ | | / / / ^ ' =.;.;.-.=.{ ) ^ / / / / / / ^ / / / / ^ ^ ^ ^ / / / | | / / ) ) / ^ / ] } _.N.M.>X",
"8XkX:XN.n.8.z N s u s c K I U U ! ~ / / / / _ O.' / ^ ^ ^ ^ / / / / | | / ) / / ^ ^ ^ ) / / / / / ^ / ^ ^ ^ ^ ^ _ _ ^ ' B.N.B.gX",
"kXdXW.N.g.j N k c H I K K J J J K I L P ! / ^ ^ ^ | ) / / / | / / / / } ^ ^ ^ ^ X.O.o.^ / / / ^ / / | ) ] =.;.;.-.^ ^ U.C.N.P.sX",
"dXtXV.V.Z j b P | | ~ P J E E @.@.I K K c P / ) / / / / / / / / / / / _ ] =.-.;.;.-.' ^ ) / / / / / ^ O.;.=.{ { ^ ^ U.N.C.k.3XjX",
"sX4XN.H.j v ! | / | } o.;.;.#.[ R G I K ! / / ^ / / / / / / | / / / ^ o.-.=.{ _ ^ ^ ^ / / / / / / / / ^ ^ _ } } &.Y.N.R.x.$XjXjX",
"kXtXN.Y.g ! ) ^ / ^ / / _ ^ ^ ^ ^ ! P ! | / / / / / / / / / / / / ^ | ^ ^ ^ ^ | / ) / | | / / / / _ ' ' ^ } { [.C.C.R.x.G.hXjX0X",
"pXtXC.N.(.^ ' / | | | / ^ ) _ ) / / / / / / / / / / / / / / / / / / / / _ _ ) ) ) ) ) ) _ ' ' ' ) ^ } / $.d.T.N.C.C.7 G.kXdXrXkX",
"kXeXM.N.Y.^ ) _ | | ) ) ^ ^ ^ ^ ^ / / / / / / / / / ^ ^ ^ } / / / / / _ ^ } ^ ^ ^ ^ ^ ^ } } } } ^ $._.U.C.N.C.R.m.5 P.kXdXdXkX0X",
"dXdXE.N.C.D.^ | ' ^ ^ } ) X.=.=.O.^ / / / / ^ ^ ^ / ' =.-.=.^ / ^ _ ' } #.$.{ ] X.] +.$.*._.].I.Y.C.N.C.C.R.c.6 v.,XjXdXdXdXdXdX",
"0XjX3Xx.R.N.I.^ ^ { -.;.;.;.=.o.) / / / / ^ ' O.;.;.;.=.O._ ^ _ X.^ } _.V.C.T.T.T.T.T.C.N.N.N.N.C.C.R.M.z.5 v.2XdXhXkX0XkXdXdXkX",
"kX0XhX!.x.R.N.Y.*. ._ o.] / ^ ^ ^ ^ / / / ^ ' =.{ _ ^ ^ / ' _ } ^ $.D.N.C.R.R.C.C.C.C.R.R.R.C.B.c.k.5 l.H.>XkXsXkXfX0XkX8XgXkX8X",
"0XkXhXeXK.m.R.C.N.U.`.^ } } } _ ] ' ' ' ' ' _ ) _ ' _ } } } } *.D.C.N.R.B.6 7 k.x.k.k.7 6 5 5 h.G.G.3X9XfXkX8X9XdX0XkX0XkXdX0XkX",
"kXdXdXhXeXK.8 N.R.N.N.Y.d.`.+.^ } } } } } } } } } } ^ +.*.[.Y.N.N.R.R.x.n.P.P.H.Z.P.H.P.-X$XtXrXdXkXdXkXdXdXsX+XuXgX<X8XgXdXhXdX",
"hXfXdXdXdXkX-Xz.x.V.R.N.N.N.T.Y.D.d.]._._._._.].[.I.Y.T.V.N.C.R.C.n.7 J.yXfX%XuXgXkXhXjXkXhXjXdXsXhXyXhXhXjX=X0 r {.A.yXyXdXfXdX",
"8XkXjX0XkX0XkXyXH.z.8 n.B.R.R.C.C.N.N.N.C.N.N.N.N.N.C.R.R.V.M.x.h.v.3XkXaXL.< & %XyXkXdX0XkX0XkXjX0XkXyXfX5XS./.t 0 e 9XkXfXaXkX",
"kX0XdXkX0XkXdXsXkX1XP.v.k.z.x.M.V.C.R.C.C.C.R.C.C.V.M.x.x.8 b.P.>XjXkX0XfX%Xr.O # 2XsXdXkX8XkXdXdXkX0XkX}.oX=XyXfX2.:.|.sXdXkX8X",
"0XkXdXyXkX0XdXkXdXkX0XdXtXP.E.b.j.z.6 8 7 7 7 7 k.k.b.E.P.3XdX8XkX0XdXkX0XwXL.# X a.kXdXdXkX0XgXhXdXdXs.@X/.9 q r  X0.w.fXdXdXkX",
"kXdXdXdXdXdXdXdXdX0XdXdXhXjXhXdXyXqXtX>X2X2X>XwXqXeXdXhXjXdXeXdXsXdXdXdXgX8X&Xa.e.9XhXdXdXdXdXdXdXfXw.OXiXiX X:.6.0.XXkXdXdXhXdX",
"kXdXdXkXsXkXdXyXdX0XdXdX0XkX0XkXhXdXkXdXjXjXdXkXdXdXkXyXhX0XsXkX0XkXdXdXkXdXrXrXsXkXdXdXkXdXkXdXdX8X5.r t q.w.3X,X<XdXkXeXdXkXeX",
"8XkXdX0XkX0XfXdX8XkX0XdXkX8XkXdXdXkX9XkXdXrXkX0XkXdX0XkX8XdXkX8XkXrXdXkX8XkXdXsXkX0XkXdX0XkX8XgXjX@Xs.s.q.5.0.9X0XgXkX0XkXdXaXkX",
"kXdXdXkX0XkXdXaXkX8XkXdXdXkX8XkXkX0XkX0XdXkX0XkXaXdXkX8XkXdX0XkX0XkXhX0XkX0XfXkX0XkXsXdXkX0XkXsXdXkX7X@X{.S.+X0XkXgX0XkX0XkXkX8X",
"aXgXfXsXkXsXhXgXdXkXdXdXgXaXkXdXdXhXsXhXdXdXgXsXkXdX0XkXdXhXgXaXkXdXdXkX0XkXdXdXkXeXgXdXdXkXdXdXjX0XkXdXdXdXaXkXyXdXgXaXkXdXdXkX",
"sXgXdXsXfXdXdXhXdXgXdXdXhXdXdXdXdXgXdXfXdXdXgXdXdXdXdXkXdXdXdXdXfXdXdXkXdXdXfXdXkXdXhXdXdXhXdXdXdXdXkXdXdXfXdXkXdXdXkXdXdXdXdXfX",
"kXsXdXkX8XkXdXsXkX0XkXfXdXkX0XgXgX0XkXsXdXkX0XkXdXdXkX0XkXdXdXkX8XkXdX0XkX0XdXjX0XkXsXdXkX8XkXdXdXkX0XkXdXdXkX0XjXdX0XkXeXdXkX8X",
"0XkXgX0XkX0XgXgX8XkXsXdXkX8XkXsXdXkX8XkXdXsXkX0XkXdX0XkX0XdXkX8XkXdXdXkX8XkXsXyXkX8XkXfX0XkX0XkXkX0XkX0XdXkX0XkXrXdXkX8XkXdXaXkX",
"kXsXdXkX0XkXdXsXkX0XkXdXsXkX0XkXgX0XkX0XdXkX0XkXeXdXkX0XkXdXdXkX0XkXdX0XkX0XgXhX0XkXsXdXkX0XkXdXdXkX8XkXgXdXkX0XdXkXdXkXaXdXkX0X",
"dXdXfXdXfXdXdXgXdXfXdXdXfXdXdXdXhXdXdXhXdXdXdXdXdXhXdXfXdXdXdXdXkXdXdXdXdXkXdXdXfXdXdXdXdXdXdXdXfXdXdXdXdXdXdXdXdXdXdXdXfXdXdXdX",
"aXgXdXsXkXsXhXgXsXkXdXdXkXsXkXdXdXkXeXkXdXdXkXsXhXgXsXkXdXdXkXeXkXdXdXkX0XkXdXdXkXsXkXdXdXkX0XkXdXdXkXdXdXkX0XkXdXdXkX0XkXdXdXkX",
"kXeXdXkX8XkXdXdXkX8XkXdX0XkX8XgXgX0XkX0XdXkX8XkXdXdXkX8XkXdX0XkX8XkXkX0XkX0XdXkX8XkX0XdXkX8XkXdXdXkX8XkXdX0XkX8XkXkX0XkX0XdXkX8X"
};
