/* XPM */
static char *result[] = {
/* columns rows colors chars-per-pixel */
"64 64 18 1 ",
"  c black",
". c #423524",
"X c #773F3F",
"o c gray26",
"O c #784040",
"+ c #7D5C58",
"@ c #4364ED",
"# c #D8A078",
"$ c #90BCEF",
"% c #D2D9FE",
"& c #5E86C0",
"* c #939391",
"= c #E3AB82",
"- c #FFD8BF",
"; c #C2C0DF",
": c #D1CFDF",
"> c #EFEDFC",
", c None",
/* pixels */
",,,,,,,,,,,,,,,,,,,,,,,,,,,,,,,,,,,,,,,,,,,,,,,,,,,,,,,,,,,,,,,,",
",,,,,,,,,,,,,,,,,,,,,,,,,,,,,,,,,,,,,,,,,,,,,,,,,,,,,,,,,,,,,,,,",
",,,,,,,,,,,,,,,,,,,,,,,,,,,,,,,,,,,,,,,,,,,,,,,,,,,,,,,,,,,,,,,,",
",,,,,,,,,,,,,,,,,,,,,,,,,,,,,,,,,,,,,,,,,,,,,,,,,,,,,,,,,,,,,,,,",
",,,,,,,,,,,,,,,,,,,,,,,,,,......,,,,,,,,,,,,,,,,,,,,,,,,,,,,,,,,",
",,,,,,,,,,,,,,,,,,,,,,,,,,......,,,,,,,,,,,,,,,,,,,,,,,,,,,,,,,,",
",,,,,,,,,,,,,,,,,,,,,,,,,,..$$%%....,,,,,,,,,,,,,,,,,,,,,,,,,,,,",
",,,,,,,,,,,,,,,,,,,,,,,,,,..$$%%....,,,,,,,,,,,,,,,,,,,,,,,,,,,,",
",,,,,,,,,,,,,,,,,,,,,,,,,,,,..$$%%$$..,,,,,,,,,,,,,,,,,,,,,,,,,,",
",,,,,,,,,,,,,,,,,,,,,,,,,,,,..$$%%$$..,,,,,,,,,,,,,,,,,,,,,,,,,,",
",,,,,,,,,,,,,,,,,,,,,,,,........%%%%$$  ,,,,,,,,,,,,,,,,,,,,,,,,",
",,,,,,,,,,,,,,,,,,,,,,,,........%%%%$$  ,,,,,,,,,,,,,,,,,,,,,,,,",
",,,,,,,,,,,,,,,,........$$%%$$$$@@%%%%  ,,,,,,,,,,,,,,,,,,,,,,,,",
",,,,,,,,,,,,,,,,........$$%%$$$$@@%%%%  ,,,,,,,,,,,,,,,,,,,,,,,,",
",,,,,,,,,,,,,,,,  $$$$%%%%$$$$$$$$%%%%@@  ..,,,,,,,,,,,,,,,,,,,,",
",,,,,,,,,,,,,,,,  $$$$%%%%$$$$$$$$%%%%@@  ..,,,,,,,,,,,,,,,,,,,,",
",,,,,,,,,,,,,,,,,,  @@$$$$$$$$$$$$$$@@$$$$$$..,,,,,,,,,,,,,,,,,,",
",,,,,,,,,,,,,,,,,,  @@$$$$$$$$$$$$$$@@$$$$$$..,,,,,,,,,,,,,,,,,,",
",,,,,,,,,,,,,,,,,,  $$$$$$$$$$$$$$%%%%$$@@..,,,,,,,,,,,,,,,,,,,,",
",,,,,,,,,,,,,,,,,,  $$$$$$$$$$$$$$%%%%$$@@..,,,,,,,,,,,,,,,,,,,,",
",,,,,,,,,,,,,,,,..$$$$$$$$%%$$$$%%%%%%%%$$  ,,,,,,,,,,,,,,,,,,,,",
",,,,,,,,,,,,,,,,..$$$$$$$$%%$$$$%%%%%%%%$$  ,,,,,,,,,,,,,,,,,,,,",
",,,,,,,,,,,,,,,,..$$$$$$%%$$%%%%%%%%%%$$$$$$  ,,,,,,,,,,,,,,,,,,",
",,,,,,,,,,,,,,,,..$$$$$$%%$$%%%%%%%%%%$$$$$$  ,,,,,,,,,,,,,,,,,,",
",,,,,,,,,,,,,,,,..$$$$$$$$$$@@%%$$%%$$@@$$$$  ,,,,,,,,,,,,,,,,,,",
",,,,,,,,,,,,,,,,..$$$$$$$$$$@@%%$$%%$$@@$$$$  ,,,,,,,,,,,,,,,,,,",
",,,,,,,,,,,,,,..$$$$$$$$@@@@%%$$$$@@@@$$$$@@  ,,,,,,,,,,,,,,,,,,",
",,,,,,,,,,,,,,..$$$$$$$$@@@@%%$$$$@@@@$$$$@@  ,,,,,,,,,,,,,,,,,,",
",,,,,,,,,,,,,,  @@$$$$@@@@$$$$$$@@==@@@@@@  ,,,,,,,,,,,,,,,,,,,,",
",,,,,,,,,,,,,,  @@$$$$@@@@$$$$$$@@==@@@@@@  ,,,,,,,,,,,,,,,,,,,,",
",,,,,,,,,,,,,,    oo@@@@@@@@@@@@@@==::oo==  ,,,,,,,,,,,,,,,,,,,,",
",,,,,,,,,,,,,,    oo@@@@@@@@@@@@@@==::oo==  ,,,,,,,,,,,,,,,,,,,,",
",,,,,,,,,,,,,,,,,,  @@oo@@@@@@==++-->>  --==,,,,,,,,,,,,,,,,,,,,",
",,,,,,,,,,,,,,,,,,  @@oo@@@@@@==++-->>  --==,,,,,,,,,,,,,,,,,,,,",
",,,,,,,,,,,,,,,,,,,,  @@@@++======--------++,,,,,,,,,,,,,,,,,,,,",
",,,,,,,,,,,,,,,,,,,,  @@@@++======--------++,,,,,,,,,,,,,,,,,,,,",
",,,,,,,,,,,,,,,,,,,,,,    @@++======--==  ,,,,,,,,,,,,,,,,,,,,,,",
",,,,,,,,,,,,,,,,,,,,,,    @@++======--==  ,,,,,,,,,,,,,,,,,,,,,,",
",,,,,,,,,,,,,,,,,,,,,,,,,,  oooo++++++  ,,,,,,,,,,,,,,,,,,,,,,,,",
",,,,,,,,,,,,,,,,,,,,,,,,,,  oooo++++++  ,,,,,,,,,,,,,,,,,,,,,,,,",
",,,,,,,,,,,,,,,,,,,,,,,,,,,,    OO;;XX,,,,,,,,,,,,,,,,,,,,,,,,,,",
",,,,,,,,,,,,,,,,,,,,,,,,,,,,    OO;;XX,,,,,,,,,,,,,,,,,,,,,,,,,,",
",,,,,,,,,,,,,,,,,,,,,,,,,,  ;;>>##>>>>XX,,,,,,,,,,,,,,,,,,,,,,,,",
",,,,,,,,,,,,,,,,,,,,,,,,,,  ;;>>##>>>>XX,,,,,,,,,,,,,,,,,,,,,,,,",
",,,,,,,,,,,,,,,,,,,,,,****  >>>>  >>>>  ,,,,,,,,,,,,,,,,,,,,,,,,",
",,,,,,,,,,,,,,,,,,,,,,****  >>>>  >>>>  ,,,,,,,,,,,,,,,,,,,,,,,,",
",,,,,,,,,,,,,,,,,,,,**    ----  >>>>;;  ,,,,,,,,,,,,,,,,,,,,,,,,",
",,,,,,,,,,,,,,,,,,,,**    ----  >>>>;;  ,,,,,,,,,,,,,,,,,,,,,,,,",
",,,,,,,,,,,,,,,,,,**  @@  ==--  ;;$$XX  **,,,,,,,,,,,,,,,,,,,,,,",
",,,,,,,,,,,,,,,,,,**  @@  ==--  ;;$$XX  **,,,,,,,,,,,,,,,,,,,,,,",
",,,,,,,,,,,,,,,,,,**  &&@@    @@$$$$@@&&XX**,,,,,,,,,,,,,,,,,,,,",
",,,,,,,,,,,,,,,,,,**  &&@@    @@$$$$@@&&XX**,,,,,,,,,,,,,,,,,,,,",
",,,,,,,,,,,,,,,,,,**  &&&&        &&&&&&  **,,,,,,,,,,,,,,,,,,,,",
",,,,,,,,,,,,,,,,,,**  &&&&        &&&&&&  **,,,,,,,,,,,,,,,,,,,,",
",,,,,,,,,,,,,,,,,,,,**    ********      **,,,,,,,,,,,,,,,,,,,,,,",
",,,,,,,,,,,,,,,,,,,,**    ********      **,,,,,,,,,,,,,,,,,,,,,,",
",,,,,,,,,,,,,,,,,,,,,,****,,,,,,,,******,,,,,,,,,,,,,,,,,,,,,,,,",
",,,,,,,,,,,,,,,,,,,,,,****,,,,,,,,******,,,,,,,,,,,,,,,,,,,,,,,,",
",,,,,,,,,,,,,,,,,,,,,,,,,,,,,,,,,,,,,,,,,,,,,,,,,,,,,,,,,,,,,,,,",
",,,,,,,,,,,,,,,,,,,,,,,,,,,,,,,,,,,,,,,,,,,,,,,,,,,,,,,,,,,,,,,,",
",,,,,,,,,,,,,,,,,,,,,,,,,,,,,,,,,,,,,,,,,,,,,,,,,,,,,,,,,,,,,,,,",
",,,,,,,,,,,,,,,,,,,,,,,,,,,,,,,,,,,,,,,,,,,,,,,,,,,,,,,,,,,,,,,,",
",,,,,,,,,,,,,,,,,,,,,,,,,,,,,,,,,,,,,,,,,,,,,,,,,,,,,,,,,,,,,,,,",
",,,,,,,,,,,,,,,,,,,,,,,,,,,,,,,,,,,,,,,,,,,,,,,,,,,,,,,,,,,,,,,,"
};
