/* XPM */
static char *result[] = {
/* columns rows colors chars-per-pixel */
"64 64 13 1 ",
"  c black",
". c gray26",
"X c #7D5C58",
"o c #4364ED",
"O c #90BCEF",
"+ c #D2D9FE",
"@ c #5E86C0",
"# c #939391",
"$ c #E3AB82",
"% c #FFD8BF",
"& c #C2C0DF",
"* c #EFEDFC",
"= c None",
/* pixels */
"================================================================",
"================================================================",
"================================================================",
"================================================================",
"================================================================",
"=============================......=============================",
"=============================......=============================",
"=============================..OO++....=========================",
"=============================..OO++....=========================",
"===============================..OO++OO..=======================",
"===============================..OO++OO..=======================",
"=========================..........++++OO..=====================",
"=========================..........++++OO..=====================",
"=================........OO++OOOOOOoo++++..=====================",
"=================........OO++OOOOOOoo++++..=====================",
"=================  OOOO++++OOOOOOOOOO++++oo  ===================",
"=================  OOOO++++OOOOOOOOOO++++oo  ===================",
"===================  ooOOOOOOOOOOOOOOOOooOOOO  =================",
"===================  ooOOOOOOOOOOOOOOOOooOOOO  =================",
"=================  ooOOOOOOOOOOOOOOOOOOOO++OOOO  ===============",
"=================  ooOOOOOOOOOOOOOOOOOOOO++OOOO  ===============",
"=================..OOOOOOOOOOOOOOOO++++++++OOoo..===============",
"=================..OOOOOOOOOOOOOOOO++++++++OOoo..===============",
"===============..OOOOOOOOOOOO++OO++OO++++OOOOOOoo..=============",
"===============..OOOOOOOOOOOO++OO++OO++++OOOOOOoo..=============",
"===============  ooOOOOOOooOOOOOOOOooOOOOOOOOoo..===============",
"===============  ooOOOOOOooOOOOOOOOooOOOOOOOOoo..===============",
"=================  ooOOooOOOOOOOOooooOOooOOoooo  ===============",
"=================  ooOOooOOOOOOOOooooOOooOOoooo  ===============",
"===============  ooooooooooOOOOoooooooooooooooo  ===============",
"===============  ooooooooooOOOOoooooooooooooooo  ===============",
"=================  oooooooooooooooooooooooooo  =================",
"=================  oooooooooooooooooooooooooo  =================",
"===================  oooooooooooooooooooooo  ===================",
"===================  oooooooooooooooooooooo  ===================",
"=====================  $$oooooooooooooo$$  =====================",
"=====================  $$oooooooooooooo$$  =====================",
"=====================  XX$$$$oooooo$$$$XX  =====================",
"=====================  XX$$$$oooooo$$$$XX  =====================",
"===================..**&&XX..$$$$$$..XX&&**..===================",
"===================..**&&XX..$$$$$$..XX&&**..===================",
"=================  &&**&&**&&......&&**&&**&&  =================",
"=================  &&**&&**&&......&&**&&**&&  =================",
"===============  %%%%&&..**************..&&%%%%  ===============",
"===============  %%%%&&..**************..&&%%%%  ===============",
"===============  %%%%..oo&&**********&&oo..%%%%  ===============",
"===============  %%%%..oo&&**********&&oo..%%%%  ===============",
"=================    ..OOoooo&&&&&&ooooOO..    =================",
"=================    ..OOoooo&&&&&&ooooOO..    =================",
"===================##  ooOOOOOOooOOOOOOoo  ##===================",
"===================##  ooOOOOOOooOOOOOOoo  ##===================",
"===================##  @@@@          @@@@  ##===================",
"===================##  @@@@          @@@@  ##===================",
"=====================##    ##########    ##=====================",
"=====================##    ##########    ##=====================",
"===========================##########===========================",
"===========================##########===========================",
"================================================================",
"================================================================",
"================================================================",
"================================================================",
"================================================================",
"================================================================",
"================================================================"
};
