/* XPM */
static char *result[] = {
/* columns rows colors chars-per-pixel */
"64 64 15 1 ",
"  c black",
". c #583028",
"X c gray26",
"o c #784040",
"O c #7D5C58",
"+ c #4364ED",
"@ c #90BCEF",
"# c #D2D9FE",
"$ c #5E86C0",
"% c #939391",
"& c #E3AB82",
"* c #FFD8BF",
"= c #C2C0DF",
"- c #EFEDFC",
"; c None",
/* pixels */
";;;;;;;;;;;;;;;;;;;;;;;;;;;;;;;;;;;;;;;;;;;;;;;;;;;;;;;;;;;;;;;;",
";;;;;;;;;;;;;;;;;;;;;;;;;;;;;;;;;;;;;;;;;;;;;;;;;;;;;;;;;;;;;;;;",
";;;;;;;;;;;;;;;;;;;;;;;;;;;;;;;;;;;;;;;;;;;;;;;;;;;;;;;;;;;;;;;;",
";;;;;;;;;;;;;;;;;;;;;;;;;;;;;;XXXXXX;;;;;;;;;;;;;;;;;;;;;;;;;;;;",
";;;;;;;;;;;;;;;;;;;;;;;;;;;;;;XXXXXX;;;;;;;;;;;;;;;;;;;;;;;;;;;;",
";;;;;;;;;;;;;;;;;;;;;;;;;;;;;;XX@@##XXXX;;;;;;;;;;;;;;;;;;;;;;;;",
";;;;;;;;;;;;;;;;;;;;;;;;;;;;;;XX@@##XXXX;;;;;;;;;;;;;;;;;;;;;;;;",
";;;;;;;;;;;;;;;;;;;;;;;;;;;;;;;;XX@@##@@XX;;;;;;;;;;;;;;;;;;;;;;",
";;;;;;;;;;;;;;;;;;;;;;;;;;;;;;;;XX@@##@@XX;;;;;;;;;;;;;;;;;;;;;;",
";;;;;;;;;;;;;;;;;;;;;;;;;;XXXXXXXXXX####@@XX;;;;;;;;;;;;;;;;;;;;",
";;;;;;;;;;;;;;;;;;;;;;;;;;XXXXXXXXXX####@@XX;;;;;;;;;;;;;;;;;;;;",
";;;;;;;;;;;;;;;;;;XXXXXXXX@@##@@@@@@++####XX;;;;;;;;;;;;;;;;;;;;",
";;;;;;;;;;;;;;;;;;XXXXXXXX@@##@@@@@@++####XX;;;;;;;;;;;;;;;;;;;;",
";;;;;;;;;;;;;;;;;;  @@@@####@@@@@@@@@@####++  ;;;;;;;;;;;;;;;;;;",
";;;;;;;;;;;;;;;;;;  @@@@####@@@@@@@@@@####++  ;;;;;;;;;;;;;;;;;;",
";;;;;;;;;;;;;;;;;;;;  ++@@@@@@@@@@@@@@@@++@@@@  ;;;;;;;;;;;;;;;;",
";;;;;;;;;;;;;;;;;;;;  ++@@@@@@@@@@@@@@@@++@@@@  ;;;;;;;;;;;;;;;;",
";;;;;;;;;;;;;;;;;;  ++@@@@@@@@@@@@@@@@@@@@##@@@@  ;;;;;;;;;;;;;;",
";;;;;;;;;;;;;;;;;;  ++@@@@@@@@@@@@@@@@@@@@##@@@@  ;;;;;;;;;;;;;;",
";;;;;;;;;;;;;;;;;;XX@@@@@@@@@@@@@@@@########@@++XX;;;;;;;;;;;;;;",
";;;;;;;;;;;;;;;;;;XX@@@@@@@@@@@@@@@@########@@++XX;;;;;;;;;;;;;;",
";;;;;;;;;;;;;;;;XX@@@@@@@@@@@@##@@##@@####@@@@@@++XX;;;;;;;;;;;;",
";;;;;;;;;;;;;;;;XX@@@@@@@@@@@@##@@##@@####@@@@@@++XX;;;;;;;;;;;;",
";;;;;;;;;;;;;;;;  ++@@@@@@++@@@@@@@@++@@@@@@@@++XX;;;;;;;;;;;;;;",
";;;;;;;;;;;;;;;;  ++@@@@@@++@@@@@@@@++@@@@@@@@++XX;;;;;;;;;;;;;;",
";;;;;;;;;;;;;;;;;;  ++@@++@@@@@@@@++++@@++@@++++  ;;;;;;;;;;;;;;",
";;;;;;;;;;;;;;;;;;  ++@@++@@@@@@@@++++@@++@@++++  ;;;;;;;;;;;;;;",
";;;;;;;;;;;;;;;;  ++++++++++@@@@++++++++++++++++  ;;;;;;;;;;;;;;",
";;;;;;;;;;;;;;;;  ++++++++++@@@@++++++++++++++++  ;;;;;;;;;;;;;;",
";;;;;;;;;;;;;;;;;;  ++++++++++++++++++++++++++  ;;;;;;;;;;;;;;;;",
";;;;;;;;;;;;;;;;;;  ++++++++++++++++++++++++++  ;;;;;;;;;;;;;;;;",
";;;;;;;;;;;;;;;;;;;;  ++++++++++++++++++++++  ;;;;;;;;;;;;;;;;;;",
";;;;;;;;;;;;;;;;;;;;  ++++++++++++++++++++++  ;;;;;;;;;;;;;;;;;;",
";;;;;;;;;;;;;;;;;;;;;;  &&++++++++++++++&&  ;;;;;;;;;;;;;;;;;;;;",
";;;;;;;;;;;;;;;;;;;;;;  &&++++++++++++++&&  ;;;;;;;;;;;;;;;;;;;;",
";;;;;;;;;;;;;;;;;;;;;;  OO&&&&++++++&&&&OO  ;;;;;;;;;;;;;;;;;;;;",
";;;;;;;;;;;;;;;;;;;;;;  OO&&&&++++++&&&&OO  ;;;;;;;;;;;;;;;;;;;;",
";;;;;;;;;;;;;;;;;;;;oo====OOXX&&&&&&XXOO==--  ;;;;;;;;;;;;;;;;;;",
";;;;;;;;;;;;;;;;;;;;oo====OOXX&&&&&&XXOO==--  ;;;;;;;;;;;;;;;;;;",
";;;;;;;;;;;;;;;;;;  ==------==XXXXXX==----****  ;;;;;;;;;;;;;;;;",
";;;;;;;;;;;;;;;;;;  ==------==XXXXXX==----****  ;;;;;;;;;;;;;;;;",
";;;;;;;;;;;;;;;;;;  ----==------------..  ****  ;;;;;;;;;;;;;;;;",
";;;;;;;;;;;;;;;;;;  ----==------------..  ****  ;;;;;;;;;;;;;;;;",
";;;;;;;;;;;;;;;;  ****oo..==--------==  ;;    ;;;;;;;;;;;;;;;;;;",
";;;;;;;;;;;;;;;;  ****oo..==--------==  ;;    ;;;;;;;;;;;;;;;;;;",
";;;;;;;;;;;;;;;;  ****  ++@@========@@++  %%;;;;;;;;;;;;;;;;;;;;",
";;;;;;;;;;;;;;;;  ****  ++@@========@@++  %%;;;;;;;;;;;;;;;;;;;;",
";;;;;;;;;;;;;;;;;;    %%  ++++@@++@@@@@@  %%;;;;;;;;;;;;;;;;;;;;",
";;;;;;;;;;;;;;;;;;    %%  ++++@@++@@@@@@  %%;;;;;;;;;;;;;;;;;;;;",
";;;;;;;;;;;;;;;;;;;;;;;;%%      oo@@@@++  %%;;;;;;;;;;;;;;;;;;;;",
";;;;;;;;;;;;;;;;;;;;;;;;%%      oo@@@@++  %%;;;;;;;;;;;;;;;;;;;;",
";;;;;;;;;;;;;;;;;;;;;;;;;;%%%%%%oo$$$$  %%;;;;;;;;;;;;;;;;;;;;;;",
";;;;;;;;;;;;;;;;;;;;;;;;;;%%%%%%oo$$$$  %%;;;;;;;;;;;;;;;;;;;;;;",
";;;;;;;;;;;;;;;;;;;;;;;;;;;;;;%%  $$$$  %%;;;;;;;;;;;;;;;;;;;;;;",
";;;;;;;;;;;;;;;;;;;;;;;;;;;;;;%%  $$$$  %%;;;;;;;;;;;;;;;;;;;;;;",
";;;;;;;;;;;;;;;;;;;;;;;;;;;;;;;;%%    %%;;;;;;;;;;;;;;;;;;;;;;;;",
";;;;;;;;;;;;;;;;;;;;;;;;;;;;;;;;%%    %%;;;;;;;;;;;;;;;;;;;;;;;;",
";;;;;;;;;;;;;;;;;;;;;;;;;;;;;;;;;;%%%%;;;;;;;;;;;;;;;;;;;;;;;;;;",
";;;;;;;;;;;;;;;;;;;;;;;;;;;;;;;;;;%%%%;;;;;;;;;;;;;;;;;;;;;;;;;;",
";;;;;;;;;;;;;;;;;;;;;;;;;;;;;;;;;;;;;;;;;;;;;;;;;;;;;;;;;;;;;;;;"
";;;;;;;;;;;;;;;;;;;;;;;;;;;;;;;;;;;;;;;;;;;;;;;;;;;;;;;;;;;;;;;;"
";;;;;;;;;;;;;;;;;;;;;;;;;;;;;;;;;;;;;;;;;;;;;;;;;;;;;;;;;;;;;;;;"
";;;;;;;;;;;;;;;;;;;;;;;;;;;;;;;;;;;;;;;;;;;;;;;;;;;;;;;;;;;;;;;;"
";;;;;;;;;;;;;;;;;;;;;;;;;;;;;;;;;;;;;;;;;;;;;;;;;;;;;;;;;;;;;;;;"
};
