/* XPM */
static char *result[] = {
/* columns rows colors chars-per-pixel */
"64 64 149 2 ",
"   c #398C58",
".  c #398D58",
"X  c #398C59",
"o  c #3A8D59",
"O  c #398E59",
"+  c #3A8F59",
"@  c #3C8F5A",
"#  c #3A905A",
"$  c #3B915B",
"%  c #3B925B",
"&  c #3C905B",
"*  c #3D905B",
"=  c #3D915B",
"-  c #3D925C",
";  c #3C935C",
":  c #3E935D",
">  c #3C945D",
",  c #3D945D",
"<  c #3C955D",
"1  c #3E945D",
"2  c #3F955E",
"3  c #3D965E",
"4  c #3D975E",
"5  c #3F965F",
"6  c #3E975F",
"7  c #3E985F",
"8  c #3E9366",
"9  c #3E9960",
"0  c #3F9A60",
"q  c #3F9B61",
"w  c #40975F",
"e  c #409760",
"r  c #409860",
"t  c #409961",
"y  c #409A61",
"u  c #419A61",
"i  c #419B62",
"p  c #409C62",
"a  c #419D63",
"s  c #429C63",
"d  c #429D63",
"f  c #419E63",
"g  c #429E64",
"h  c #439E64",
"j  c #429F64",
"k  c #439F65",
"l  c #479668",
"z  c #489768",
"x  c #49976B",
"c  c #439A75",
"v  c #529E78",
"b  c #43A065",
"n  c #44A166",
"m  c #52A078",
"M  c #53A078",
"N  c #5CA484",
"B  c #5DA685",
"V  c #5FA686",
"C  c #5FA787",
"Z  c #60A787",
"A  c #61A888",
"S  c #65AB91",
"D  c #65AC90",
"F  c #66AE92",
"G  c #68AF95",
"H  c #66B097",
"J  c #69B095",
"K  c #6BB096",
"L  c #6AB299",
"P  c #6FB49F",
"I  c #6CB6A4",
"U  c #71B7A0",
"Y  c #73B6A1",
"T  c #76B8A1",
"R  c #75B9A8",
"E  c #76BCAC",
"W  c #77BDAC",
"Q  c #78BDAC",
"!  c #7CBEAD",
"~  c #6FBFBA",
"^  c #7BBEB3",
"/  c #77C0B7",
"(  c #7FC1B6",
")  c #7EC2BA",
"_  c #7FC6BD",
"`  c #63C5CF",
"'  c #64C5CF",
"]  c #65C5CF",
"[  c #66C7CF",
"{  c #69C5CA",
"}  c #79C7C8",
"|  c #77CACF",
" . c #7ECBCE",
".. c #65C6D0",
"X. c #66C6D0",
"o. c #67C6D0",
"O. c #68C6D0",
"+. c #68C7D0",
"@. c #69C7D0",
"#. c #68C7D1",
"$. c #69C7D1",
"%. c #6AC7D0",
"&. c #6AC7D1",
"*. c #6BC7D1",
"=. c #69C8D1",
"-. c #6BC8D1",
";. c #6CC8D1",
":. c #6DC8D1",
">. c #6EC8D2",
",. c #73C9D0",
"<. c #70C9D2",
"1. c #71C9D2",
"2. c #70CAD2",
"3. c #73CAD2",
"4. c #72CAD3",
"5. c #73CAD3",
"6. c #76CAD2",
"7. c #76CBD3",
"8. c #77CBD3",
"9. c #78CBD3",
"0. c #7BCCD0",
"q. c #79CCD2",
"w. c #7BCCD3",
"e. c #7CCCD0",
"r. c #7FCCD1",
"t. c #78CCD4",
"y. c #79CCD4",
"u. c #79CDD5",
"i. c #7DCDD4",
"p. c #7ECED4",
"a. c #80C0B4",
"s. c #82C3B7",
"d. c #86C8BF",
"f. c #80C6C1",
"g. c #81C8C4",
"h. c #80CACB",
"j. c #86CCCB",
"k. c #80CCCE",
"l. c #81CCCF",
"z. c #82CCD0",
"x. c #81CED3",
"c. c #85CDD0",
"v. c #80CDD4",
"b. c #80CED5",
"n. c #83CED5",
"m. c #89CFD0",
"M. c #89CFD1",
"N. c #8BCFD1",
"B. c #89D0D4",
/* pixels */
"` ` ` ` ` ` ` ` ] 4.>.` ` ` ` ` ` ` &.4.4.&.` ` ` ` ` ` ` ` ` ` ` ` ` ` ` ` ` ` X.4.>.` ` ` ` ` ` ` &.4.4.@.` ` ` ` ` ` ` ` ` ` ",
"` ` ` ` ` ` ` ` ` 4.4.` ` ` ` ` ` ` &.4.4.@.` ` ` ` ` ` ` ` ` ` ` ` ` ` ` ` ` ` ` 4.4.` ` ` ` ` ` ` &.4.4.X.` ` ` ` ` ` ` ` ` ` ",
"` ` ` ` ` ` ` ` ` 4.4.` ` ` ` ` ` ` ] 4.4.&.` ` ` ` ` ` ` ` ` ` ` ` ` ` ` ` ` ` ` 4.4.` ` ` ` ` ` ` ` 4.4.@.` ` ` ` ` ` ` ` ` ` ",
"` ` ` ` ` ` ` ` X.4.4.` ` ` ` ` ` ` ` &.4.1.` ` ` ` ` ` ` ` ` ` ` ` ` ` ` ` ` ` O.4.4.` ` ` ` ` ` ` ` &.4.<.] ` ` ` ` ` ` ` ` ` ",
"` ` ` ` ` ` ` ` <.4.1.` ` ` ` ` ` ` ` ` &.4.<.] ` ` ` ` ` ` ` ` ` ` ` ` ` ` ` ] 1.4.1.` ` ` ` ` ` ` ` ` ;.4.<.` ` ` ` ` ` ` ` ` ",
"X.` ` ` ` ` ] <.4.4.4.>.` ` ` ` ` ` ` ` ] 4.4.1.O.` ` ` ` ` ` ` ` ` ` ` ` ` X.<.4.4.4.>.` ` ` ` ` ` ` ` O.4.4.1.O.X.X.X.X.X.X.X.",
"4.<.&.&.&.&.4.4.<.>.<.4.<.X.` ` ` ` ] &.1.4.4.4.4.4.4.4.4.4.4.4.>.;.&.&.&.<.4.4.:.&.<.4.<.X.` ` ` ` ] ;.1.4.4.4.4.4.4.4.4.4.4.4.",
"4.4.4.4.4.4.4.&.` ` ` O.4.4.<.>.>.<.4.4.4.:.&.O.X.;.4.4.4.4.4.4.4.4.4.4.4.4.1.O.` ` ` >.4.4.<.>.>.<.4.4.1.@.] ` ` ;.1.4.4.4.:.&.",
"4.4.4.4.<.:.] ` ` ` ` ` @.4.4.4.4.4.4.<.X.` ` ` ` ` ` &.4.4.4.4.4.4.4.4.1.&.` ` ` ` ` ` ;.4.4.4.4.<.>.&.` ` ` ` ` ` ` ;.4.4.<.>.",
"&.` ` ` ` ` ` ` ` ` ` ` ` 1.4.>.X.` ` ` ` ` ` ` ` ` ` ` >.4.4.4.>.X.X.` ` ` ` ` ` ` ` ` ` <.4.:.` ` ` ` ` ` ` ` ` ` ` ` <.4.4.4.",
"` ` ` ` ` ` ` ` ` ` ` ` ` >.4.X.` ` ` ` ` ` ` ` ` ` ` ` 4.4.>.O.` ` ` ` ` ` ` ` ` ` ` ` ` >.4.X.` ` ` ` ` ` ` ` ` ` ` ` 4.4.&.X.",
"` ` ` ` ` ` ` ` ` ` ` ` ` 1.4.` ` ` ` ` ` ` ` ` ` ` ` O.4.>.` ` ` ` ` ` ` ` ` ` ` ` ` ` ] 1.4.` ` ` ` ` ` ` ` ` ` ` ` O.4.>.` ` ",
"` ` ` ` ` ` ` ` ` ` ` O.<.4.&.` ` ` ` ` ` ` ` ` ` ` ` @.4.>.` ` ` ` ` ` ` ` ` ` ` ` ` O.<.4.&.` ` ` ` ` ` ` ` ` ` ` ` @.4.>.` ` ",
"` ` ` ` ` ` ` ` ` ` ;.4.1.&.` ` ` ` ` ` ` ` ` ` ` ` ` ] 4.4.` ` ` ` ` ` ` ` ` ` ` ` :.4.<.O.` ` ` ` ` ` ` ` ` ` ` ` ` ] 4.<.` ` ",
"` ` ` ` ` ` ` ` ` <.4.&.` ` ` ` ` ` ` ` ` ` ` ` ` ` ` ` >.4.O.` ` ` ` ` ` ` ` ` ` <.4.&.` ` ` ` ` ` ` ` ` ` ` ` ` ` ` ` <.4.O.` ",
"` ` ` ` ` ` ` ` <.4.O.` ` ` ` ` ` ` ` ` ` ` ` ` ` ` ` ` ] 4.;.` ` ` ` ` ` ` ` ` 1.4.&.` ` ` ` ` ` ` ` ` ` ` ` ` ` ` ` ` O.4.;.` ",
"` ` ` ` ` ` ` >.4.;.` ` ` ` ` ` ` ` ` ` ` ` ` ` ` ` ` ` ` 4.>.` ` ` ` ` ` ` ` <.4.;.` ` ` ` ` ` ` ` ` ` ` ` ` ` ` ` ` ` ` 4.>.` ",
"` ` ` ` ` ` ;.4.<.` ` ` ` ` ` ` ` ` ` ` ` ` ` ` ` ` ` ` ` 4.>.` ` ` ` ` ` ` :.4.;.` ` ` ` ` ` ` ` ` ` ` ` ` ` ` ` ` ` ` ` 4.>.` ",
"` ` ` ` ` :.4.<.` ` ` ` ` ` ` ` ` ` ` ` ` ` ` ` ` ` ` ` ` 4.>.` ` ` ` ` O.1.4.;.` ` ` ` ` ` ` ` ` ` ` ` ` ` ` ` ` ` ` ` ` 4.>.` ",
"` ` ` O.4.4.<.` ` ` ` ` ` ` ` ` ` ` ` ` ` ` ` ` ` ` ` ` X.4.;.` ` ` ` X.1.4.<.` ` ` ` ` ` ` ` ` ` ` ` ` ` ` ` ` ` ` ` ` X.4.@.` ",
"` ` ` >.4.4.>.` ` ` ` ` ` ` ` ` ` ` ` ` ` ` ` ` ` ` ` ` &.4.O.3.E G G K s.b.>.` ` ` ` ` ` ` ` ` ` ` ` ` ` ` ` ` ` ` ` ` &.4.] ` ",
"` ` ` 4.4.4.<.` ` ` ` ` ` ` ` ` ` ` ` ` ` ` ` ` ` ,.e.r.B.t.-.l           z K G k.` ` ` ` ` ` ` ` ` ` ` ` ` ` ` ` ` ` ] 4.<.` ` ",
"` ` @.4.4.4.4.X.` ` ` ` ` ` ` ` ` ` ` ` ` ` ` 2.C           G   O > 7 > O       m ` ` ` ` ` ` ` ` ` ` ` ` ` ` ` ` ` @.1.4.&.` ` ",
"O.>.4.4.4.4.4.1.] ` ` ` ` ` ` ` ` ` ` ` ` ` ` C     O # #     . 9 p p p p 7 7     ` ` ` ` ` ` ` ` ` ` ` ` ` ` ` X.<.4.4.1.` ` ` ",
"4.4.4.4.4.4.4.4.<.` ` ` ` ` ` ` ` ` ` ` ` ` j.    3 p p p 4 > 9 f g g g p p q .   G U 3.` ` ` ` ` ` ` ` ` ` &.<.4.4.4.4.1.>.<.4.",
"@.` ` ` ` ` X.>.4.<.` ` ` ` ` ` ` ` ` ` ` p.!   # p p f g f p j n n n n n b p 4 .     m -.` ` ` ` ` ` ` ] <.4.4.4.4.4.4.4.4.4.4.",
"` ` ` ` ` ` ` ` ;.4.;.` ` ` ` ] X.` ` =.A       3 p j n n n n n n n n n n n f p q > .   U ` ` ] X.` ` ` >.4.4.<.&.&.&.&.&.O.` ` ",
"` ` ` ` ` ` ` ` ` <.4.<.>.>.1.4.4.4.<.m.  O # ; p f n n n n n n n n n n n n n j p p 9 .   i.1.4.4.4.<.<.4.4.1.` ` ` ` ` ` ` ` ` ",
"` ` ` ` ` ` ` ` ` &.4.4.4.4.4.4.4.4.b.T   > p p j e = k n n n n n n n n n n n n b p p #   B.4.4.4.4.4.4.4.4.&.` ` ` ` ` ` ` ` ` ",
"` ` ` ` ` ` ` ` ` :.4.<.>.&.O.7.Q         7 p j n 1 * s n n n n n n n n k = d n n f p $   M J W 8.<.4.4.4.4.] ` ` ` ` ` ` ` ` ` ",
"` ` ` ` ` ` ` ` ` >.<.` ` ` ` l     . ; 6 a g b n n n n n n n n n n n n n s k n n j a 6         l -.:.4.4.<.` ` ` ` ` ` ` ` ` ` ",
"` ` ` ` ` ` ` ` ` <.>.` ` ` `     q p p j n n n n n n n n n n r 1 w n n n n n n n n n b p q 7 $   U &.4.4.:.` ` ` ` ` ` ` ` ` ` ",
"` ` ` ` ` ` ` ` ` 4.<.` ` ` ` G   < p p j n n n n n w r n n n 1 * * s n n n n n n n n n b p p 0 .   y.4.4.&.` ` ` ` ` ` ` ` ` ` ",
"` ` ` ` ` ` ` ` ` 4.4.` ` ` g.l   3 p p j n w = - u * * n n n t * * d n n n n n n n n n n g p p ;   Z s.4.&.` ` ` ` ` ` ` ` ` ` ",
"` ` ` ` ` ` ` ` ` 4.4.` ` E     # p p b n n 1 * * s r r n n n n s d n n n n n n n n n n n n a p 0 +     N.&.` ` ` ` ` ` ` ` ` ` ",
"` ` ` ` ` ` ` ` X.4.1.` q.    4 p p f n n n r * : k n n d 2 2 d n n n n n n n n n n n n n n a p p p %   d.1.` ` ` ` ` ` ` ` ` ` ",
"` ` ` ` ` ` ` ` <.4.<.` _   O p p q , 1 1 i n n n n n n 5 * * r n n n n n n n n n n n n n n a p p 0   l x.4.;.` ` ` ` ` ` ` ` ` ",
"` ` ` ` ` ` ` >.4.4.4.@._   > p p , @ * * * i n n u n n d * * t n n n n n n n n n n n n n n n a p 3   m w.4.4.<.O.` ` ` ` ` ] X.",
"1.&.X.X.X.;.1.4.<.>.<.5.Y   > p p & * * * * 5 n d * s n n d s n n n n n n n n n n n n n n n n g p p #   z u.4.4.4.4.4.4.4.4.4.4.",
"4.4.4.4.4.4.4.&.` ` >.V     9 p a - * * * * 1 n n n n n n n n n n n n n n n n n n n n n n n n f p p q +   ( X.X.O.:.4.4.4.4.:.&.",
"4.4.4.4.4.:.X.` ` o.)   O 4 p p a r * * * * u n n n n n n n n n n n n n n n n n n n n n n n n p p p p 7   G ` ` ` ` ` &.4.4.:.;.",
">.O.X.X.` ` ` ` ` $.v   7 p p p p b t r r s n n n n n n n n n n n n n n n n n n n n n n n n k p p p p 7   F o.` ` ` ` ` >.4.4.4.",
"` ` ` ` ` ` ` ` ` $.    p p p p p g n n n d r u n n n n n n n n n n n n n n n n n n n n n n n a p p p $   ^ $.` ` ` ` ` 1.4.&.X.",
"` ` ` ` ` ` ` ` ` $.    q p p p p j n n s * * * w n n n n n n n n n n n n n n n n n n n n n n g p p 3   l 6.` ` ` ` ` O.4.>.` ` ",
"` ` ` ` ` ` ` ` ` $.F   3 p p p p a n n u * * * 1 n n n n n n n n n n n n n n n n n n n n n n a p p $   ) $.` ` ` ` ` @.4.>.` ` ",
"` ` ` ` ` ` ` ` ` ' c.  O p p p p p n n t * * * 5 n n n n n n n n n n n n n n n n n n n n n b p p p 3     0.` ` ` ` ` ] 4.<.` ` ",
"` ` ` ` ` ` ` ` ` <.n.    p p p p p g n n t r r n n n h n n n n n n n n n n n n n n n n n k p p p p p %   R $.` ` ` ` ` <.4.@.` ",
"` ` ` ` ` ` ` ` <.1.l.  O p p p p p p f n n n n n n t = n n n n n n n n n n n n n n n n n p p p p p p 7   F $.` ` ` ` ` O.4.:.` ",
"` ` ` ` ` ` ` >.4.&.$.v   3 p p p p p p p p a n n n n n n n n n n n n n n n n n n n b g a p p p p p p 4   F $.` ` ` ` ` ` 4.>.` ",
"` ` ` ` ` ` @.4.<.` $.)   % p p p p p p p p < y n n n n n n n n n n n n n n n n n n a p p p p p p p q +   f.$.` ` ` ` ` ` 4.>.` ",
"` ` ` ` ` ;.4.<.` ` ` h.    q p p p p p p p 4 6 j k k n n n n n n n n n n n n n b p p p p p p p p 9 O   B <.` ` ` ` ` ` ` 4.>.` ",
"` ` ` O.4.4.1.` ` ` ` #.v   + 4 7 7 9 p p p p p p p p g n n n n g b n n n n n k a p p p p p p p 9     B [ ` ` ` ` ` ` ` ] 4.@.` ",
"` ` ` >.4.4.>.` ` ` ` ` ,.B           ; p p p p p p p p a g g p p p a a k n g p p p p p p p q 7 %   R ` ` ` ` ` ` ` ` ` &.4.` ` ",
"` ` ` 1.4.4.<.` ` ` ` ` ` ` / H S D     p p p p p p p p p p p p p p p p p p p p p p p p p 9 O       ` ` ` ` ` ` ` ` ` ] 4.>.` ` ",
"` ` &.4.4.4.4.` ` ` ` ` ` ` ` ` ` %.N X 7 p p p p p p p p p p p p p p p p p p p p p p p 0 +   B F ` ` ` ` ` ` ` ` ` @.1.4.O.` ` ",
"X.:.4.4.4.4.4.1.] ` ` ` ` ` ` ` ` ` } 8 . ; 7 7 7 p p p p p p p p p p p p p p p p p q ;     B ` ` ` ` ` ` ` ` ` O.<.4.4.<.` ` ` ",
"4.4.4.4.4.4.4.4.<.` ` ` ` ` ` ` ` ` ` { c o       > p p p p p q > 0 p p p p p p p p >     R ` ` ` ` ` ` ` ` X.>.4.4.4.4.4.&.&.:.",
">.O.X.X.X.X.O.<.4.<.` ` ` ` ` ` ` ` ` ` ` ~ I L x   3 p p p 0 .     > p p p p p 7 # .    .` ` ` ` ` ` ` ] <.4.4.4.4.4.4.4.4.4.4.",
"` ` ` ` ` ` ` ` :.4.;.` ` ` ` ` ` ` ` ` ;.4.4.4.z.    $ > ;     F l         % 0       l $.` ` ` ` ` ` ` <.4.4.4.1.>.>.>.>.>.&.` ",
"` ` ` ` ` ` ` ` ` 1.4.>.&.&.:.1.4.<.>.>.4.4.1.O.` | l         f.$.0.B             a.M.v.*.&.:.1.4.4.<.<.4.4.1.O.` ` ` ` ` ` ` ` ",
"` ` ` ` ` ` ` ` ` ;.4.4.4.4.4.4.4.4.4.4.4.4.O.` ` ` +.f.) )  .$.` ` $.$.$.0.B   P 9.4.4.4.4.4.4.4.4.4.4.4.4.O.` ` ` ` ` ` ` ` ` ",
"` ` ` ` ` ` ` ` ` &.4.>.&.&.@.&.&.<.4.4.4.4.X.` ` ` ` ` $.$.` ` ` ` ` ` ` ..$.$.$.>.4.>.&.&.&.&.;.<.4.4.4.4.X.` ` ` ` ` ` ` ` ` ",
"` ` ` ` ` ` ` ` ` <.1.` ` ` ` ` ` ` :.4.4.4.` ` ` ` ` ` ` ` ` ` ` ` ` ` ` ` ` ` ` 1.4.` ` ` ` ` ` ` :.4.4.4.` ` ` ` ` ` ` ` ` ` ",
"` ` ` ` ` ` ` ` ` 4.<.` ` ` ` ` ` ` &.4.4.<.` ` ` ` ` ` ` ` ` ` ` ` ` ` ` ` ` ` ] 4.<.` ` ` ` ` ` ` &.4.4.<.` ` ` ` ` ` ` ` ` ` "
};
