/* XPM */
static char *result[] = {
/* columns rows colors chars-per-pixel */
"64 64 12 1 ",
"  c #70483A",
". c #707C7C",
"X c #C06B37",
"o c #8B2257",
"O c #C03078",
"+ c #E08A56",
"@ c #D7609C",
"# c #E390BA",
"$ c #A7C1C1",
"% c #CFDDD8",
"& c #F8F6ED",
"* c None",
/* pixels */
"****************************************************************",
"****************************************************************",
"****************************************************************",
"****************************************************************",
"****************************************************************",
"****************************************************************",
"****************************************************************",
"****************************************************************",
"*************************OOOOOO$$$$$$$$*************************",
"*************************OOOOOO$$$$$$$$*************************",
"*******************$$$$OO@@####&&&&&&%%$$OOOO*******************",
"*******************$$$$OO@@####&&&&&&%%$$OOOO*******************",
"***************$$$$&&&&&&######XX&&&&########OOOO***************",
"***************$$$$&&&&&&######XX&&&&########OOOO***************",
"*************$$&&&&&&&&&&&&##  ++  ##############OO*************",
"*************$$&&&&&&&&&&&&##  ++  ##############OO*************",
"***********$$&&&&&&&&######  XX++XX  &&&&&&########OO***********",
"***********$$&&&&&&&&######  XX++XX  &&&&&&########OO***********",
"*********$$&&&&############  XX++XX  &&&&&&&&&&&&####OO*********",
"*********$$&&&&############  XX++XX  &&&&&&&&&&&&####OO*********",
"*******$$&&##################  XX  &&&&&&&&&&&&&&&&&&##OO*******",
"*******$$&&##################  XX  &&&&&&&&&&&&&&&&&&##OO*******",
"*******..################&&&&%%  @@####&&&&&&&&&&&&&&&&..*******",
"*******..################&&&&%%  @@####&&&&&&&&&&&&&&&&..*******",
"*****..@@############&&&&&&&&&&############&&&&&&&&&&&&%%..*****",
"*****..@@############&&&&&&&&&&############&&&&&&&&&&&&%%..*****",
"*****oo@@##########&&&&&&&&&&&&##############&&&&&&&&&&%%..*****",
"*****oo@@##########&&&&&&&&&&&&##############&&&&&&&&&&%%..*****",
"*****oo@@########&&&&&&&&&&&&&&################&&&&&&&&%%..*****",
"*****oo@@########&&&&&&&&&&&&&&################&&&&&&&&%%..*****",
"***oo@@@@######&&&&&&&&&&&&&&&&##################&&&&&&%%%%..***",
"***oo@@@@######&&&&&&&&&&&&&&&&##################&&&&&&%%%%..***",
"***oo@@@@@@####&&&&&&&&&&&&&&&&##################&&&&%%%%%%..***",
"***oo@@@@@@####&&&&&&&&&&&&&&&&##################&&&&%%%%%%..***",
"***oo@@@@@@##&&&&&&&&&&&&&&&&&&####################&&%%%%%%..***",
"***oo@@@@@@##&&&&&&&&&&&&&&&&&&####################&&%%%%%%..***",
"*****OO@@@@@@&&&&&&&&&&&&&&&&&&####################%%%%%%$$*****",
"*****OO@@@@@@&&&&&&&&&&&&&&&&&&####################%%%%%%$$*****",
"*****OO@@@@@@%%&&&&&&&&&&&&&&&&##################@@%%%%%%$$*****",
"*****OO@@@@@@%%&&&&&&&&&&&&&&&&##################@@%%%%%%$$*****",
"*******OO@@%%%%%%%%&&&&&&&&&&&&##############@@@@@@@@%%$$*******",
"*******OO@@%%%%%%%%&&&&&&&&&&&&##############@@@@@@@@%%$$*******",
"*******OO@@%%%%%%%%%%%%%%&&&&&&########@@@@@@@@@@@@@@%%$$*******",
"*******OO@@%%%%%%%%%%%%%%&&&&&&########@@@@@@@@@@@@@@%%$$*******",
"*********OO$$%%%%%%%%%%%%%%%%%%@@@@@@@@@@@@@@@@@@@@@@$$*********",
"*********OO$$%%%%%%%%%%%%%%%%%%@@@@@@@@@@@@@@@@@@@@@@$$*********",
"*************$$%%%%%%%%%%%%%%%%@@@@@@@@@@@@@@@@@@OOOO***********",
"*************$$%%%%%%%%%%%%%%%%@@@@@@@@@@@@@@@@@@OOOO***********",
"***************$$$$$$%%%%%%%%%%@@@@@@@@@@@@OOOOOO***************",
"***************$$$$$$%%%%%%%%%%@@@@@@@@@@@@OOOOOO***************",
"*********************$$$$%%%%%%@@@@@@@@OOOO*********************",
"*********************$$$$%%%%%%@@@@@@@@OOOO*********************",
"*************************$$$$%%@@@@OOOO*************************",
"*************************$$$$%%@@@@OOOO*************************",
"*****************************..oooo*****************************",
"*****************************..oooo*****************************",
"*****************************  XX  *****************************",
"*****************************  XX  *****************************",
"*****************************  XX  *****************************",
"*****************************  XX  *****************************",
"*****************************  XX  *****************************",
"*****************************  XX  *****************************",
"*****************************  XX  *****************************",
"*****************************  XX  *****************************"
};
