/* XPM */
static char *result[] = {
/* columns rows colors chars-per-pixel */
"64 64 16 1 ",
"  c #63C5CF",
". c #64C5CF",
"X c #65C5CF",
"o c #66C6D0",
"O c #67C6D0",
"+ c #68C6D0",
"@ c #69C7D0",
"# c #6AC7D1",
"$ c #6BC7D1",
"% c #6CC8D1",
"& c #6DC8D1",
"* c #6EC8D2",
"= c #6FC9D2",
"- c #70C9D2",
"; c #71C9D2",
": c #72CAD3",
/* pixels */
"        X:*       #::#                  o:*       #::@          ",
"         ::       #::@                   ::       #::o          ",
"         ::       X::$                  .::       .::@          ",
"        o::        $:;                  +::        $:-X         ",
"        =:;         $:=X               X;:;         %:-         ",
"o     X=:::*        X::;+             o=:::*        O::;+ooooooo",
":-###$::-*=:=o    X#;:::::::::::*%###=::&#=:=o    X%;:::::::::::",
":::::::$   +::=**=:::&#Oo%::::::::::::;O   *::=**=::;@X .%;:::&#",
"::::=&X     @::::::=o     .#::::::::;$      %::::=*$       %::=*",
"#.           ;:*o           *:::*oo          -:&            -:::",
"             *:o           .::*+             *:o           .::$o",
"             ;:            +:*              X;:.           +:*  ",
"           O-:#            @:*             O-:$            @:*  ",
"          %:;$             X::.           &:-+             X:-  ",
"         =:#                *:+          =:#                =:O ",
"        =:+                 X:%        .;:#                 +:% ",
"       *:%                   :*        -:%                   :* ",
"      %:=                    :*       &:%                    :* ",
"     &:=                    .:*     O;:%                    .:* ",
"   O::-                     o:%    o;:-                     o:@ ",
"   *::*                     $:+    -::*                     $:X ",
"   :::-                    X:;    O:::-                    X:-  ",
"  @::::o                  @;:%    &::::o                  @;:#  ",
"+*:::::;X               o-:::X  +-:::::;X               o-::;   ",
"::::::::=             #=:::::$#-::=**;::=             #=::::;*-:",
"@.    o*:=          .-::::::::::&o    +-:=          X-::::::::::",
"        %:%    Xo.  *::-*****$#.        =:%    Xo.  *::-$####O  ",
"         -:=**;:::-=:::                  -:=**;:::-=::;         ",
"         #::::::::::::%                  &::::::::::::$         ",
"         &:=*#+oO*::::X                  =:=&#Oo+=::::X         ",
"         *-       &::-                   :-       &::-          ",
"         -*       O::&                  o:*       #::&          ",
"         :=       #::#                  o:=       $::#          ",
"         ::       #::#                  o::       #::#          ",
"         ::       o::$                  o::       o::$          ",
"        o:;        *:-                  #:;        *:;          ",
"        =:-         =:$                X;:-         &:%         ",
"      .*:::@        X::*+             o;:::%        o::=O.    Xo",
";$ooo%;:-*-:&o     o=:::::::::::;*###-::-*-:&X     O-:::::::::::",
":::::::#   *::%#$=:::&+o+&::::::::::::;#   %:;%#$=::;#oo+&::::&#",
":::::&o     %::::::=o     .#::::::-**$.     %::::::%X     .#::&%",
"*+oo         ;:-o           *:::-.           ::*o           *:::",
"             *:O           X::&O             -:o           .;:$o",
"             ;;            @:=              .:;            +:*  ",
"           O-:$            @:*             O;:$            @:*  ",
"          %::%             X::.           &::$             X:-  ",
"         =:%o               -:@         X-:&.               =:@ ",
"        =;o                 @:*         =:+                 +:& ",
"       *:#                   :-        =:%                  .:* ",
"      @:=                    ::       %:=                    :* ",
"     %:=                     :-     X=:=                     :* ",
"   O::;                     o:*    .;:-                     X:@ ",
"   *::*                     #:@    *::*                     #:. ",
"   ;::=                    X:;    X:::=                    X:*  ",
"  $::::.                  @;:#    $::::                   @;:+  ",
"o&:::::;X               o-:::   +=:::::=                O-::-   ",
"::::::::=             #=:::::#%;::::::::=             o*:::::##&",
"*Ooooo+-:=           %::::::::::&o   o@-:=          X-::::::::::",
"        &:%         %::::::::-*.        %:%         =:::;*****$ ",
"         ;:*##&;:-**::;+                 -:*##&;::==::;+        ",
"         %::::::::::::+                  %::::::::::::+         ",
"         $:*$#@#$-::::o                  *:*####%-::::o         ",
"         =;       &:::                   ;:       &:::          ",
"         :=       #::-                  X:=       #::-          "
};
