/* XPM */
static char *result[] = {
/* columns rows colors chars-per-pixel */
"64 64 35 1 ",
"  c #5F994C",
". c #70AB46",
"X c #6EAF6E",
"o c #91B83C",
"O c #AEC636",
"+ c #D3D331",
"@ c #978F56",
"# c #A79759",
"$ c #9DA059",
"% c #AEA95B",
"& c #9A9A67",
"* c #A89967",
"= c #A9A868",
"- c #B7A968",
"; c #ABB569",
": c #B8B669",
"> c #A9A777",
", c #B8AA77",
"< c #ABB677",
"1 c #B9B777",
"2 c #C0A95B",
"3 c #C29876",
"4 c #C6A969",
"5 c #C6B773",
"6 c #C7B874",
"7 c #C7B97E",
"8 c #BAC578",
"9 c #C4C56B",
"0 c #C8C679",
"q c #D5C679",
"w c #D6C77A",
"e c #B8B087",
"r c #91C381",
"t c #BBC088",
"y c #C9C784",
/* pixels */
".o.<o.O2XOrooXX:.r:.o..O:.oo*o% .o.<o.O2XOrooXX:.r:.o..O:.oo*o% ",
"=Oo.o6.o.:y6o O: .*=o :.o:oO*oO&=Oo o6.o.:y6o O: .*=o :.o:oO*oO&",
"o..=oOO :XOoOo.oOo.oro:o.+$roXO1o..=oOO :XOoOo.oOo.oro:o.+$roXO1",
"oo8..&o.o%oO.o oo.ot=o.$O1.oOooXoo8..&o.o%oO.o oo.ot=o.$O1.oOooX",
"oXoo>=. Oo.O.ooOe+O.Ow =oo. O.OooXoo>=.,Oo.O.ooOe+O.Ow =oo. O.Oo",
"..-.O-6or.O t.t6.o:o.%Oo.ooroo.X..-.O-6or.O t.t6.o:o.%Oo.ooroo.X",
"o, Oo.o7+...oo6oor oX .;.oO.>.Xoo, Oo.o7+...oo6oor oX .;.oO.>.Xo",
"O.Ooo.Oo. O1XOrO.oOO<1O-OO .O;X.O.Ooo.Oo. O1XOrO.oOO<1O-OO .O;X.",
"X;. tOo=%.8.oOoo-o.o.O.eo.. ooO9X;. tOo=%.8.oOoo-o.o.O.eo.. ooO9",
"Xoo6 o:O0o -Oo6o.7@*. oO oroO.ooXoo6 o:O0o -Oo6o.7@*. oO oroO.oo",
"oo7O%.%Xo.X.oro.$Oo$.o=.oO. $;1Ooo7O%.%Xo.X.oro.$Oo$.o=.oO. $;1O",
">%.Ooo .ooo.O. o>o.+r=. .oO*oOXo>%.Ooo .ooo.O. o>o.+r=. .oO*oOXo",
"%or%Oo=*r.o>.o.$..o*ooo=o.oo*oo1%or%Oo=*r.o>.o.$..o*ooo=o.oo*oo1",
"o.9oo.o< o>o.ooOO1o. .o6;o1.O+Xoo.9oo.o< o>o.ooOO1o. .o6;o1.O+Xo",
"O2.o  oo.> Oo.>-oX.o%; o1O&;.<o.O2.o  oo.> Oo.>-oX.o%; o1O&;.<o.",
".Oooy6.OoOXoro.#o.Oo&+o.=O.o8.wo.Oooy6.OoOXoro.#o.Oo&+o.=O.o8.wo",
"oOoO.Ooor1ooOOoOXy yo;.ro+o+o:..oOoO.Ooor1ooOOoOXy yo;.ro+o+o:..",
"oooo.0o..0.o-o.o&o.-OO.oO=-Oo#o.oooo.0o..0.o-o.o&o.-OO.oO=-Oo#o.",
".1.oo.4.wO0oOO=8o..&.Oooo o*r.oo.1.oo.4.wO0oOO=8o..&.Oooo o*r.oo",
".:o.=.=.o1Ooo8o.1o.;O.2=...=.O.;.:o.=.=.o1Ooo8o.1o.;O.2=...=.O.;",
"Xo.=X .Or; .OO.O.rXOoO=X.:oO.orOXo.=X .Or; .OO.O.rXOoO=X.:oO.orO",
".= +> oO.ooOrOo.o.1r+O.oOo+oo Oo.= +> oO.ooOrOo.o.1r+O.oOo+oo Oo",
"*.O...ooO.X +X.O.Ooo1.-.ro3o.o%1*.O...ooO.X +X.O.Ooo1.-.ro3o.o%1",
"OooO;X.OOo+ OOo7Ooo.Oo. O1XOrO.oOO<1O-OO .O;X.O.O1.O.oOo7.+.o.O+",
".,.o#O:#.o*O.O o. tOo=%.8.oOoo-o.o.O.eo.. ooO9X;.7X.oO0;roo-Ooo:",
"Oo.O.o .OO. o%.ro6 o:O0o -Oo6o.7@*. oO oroO.ooXoo7O.oX.O=O.o.r<.",
".o ..O+5&;OoO o27O%.%Xo.X.oro.$Oo$.o=.oO. $;1Ooo7roO.oOoe.o1-oOo",
"=.oO.o. ro wo.Oo.Ooo .ooo.O. o>o.+r=. .oO*oOXo>%..oOo1 rO.oXo.@o",
"o $Or=oOoO1=Or.Or%Oo=*r.o>.o.$..o*ooo=o.oo*oo1%or-..O.o.o.oOo oO",
"ooOo.X>O.XO. 7.79oo.o< o>o.ooOO1o. .o6;o1.O+Xoo.9r.=o8#o*=#o>oO.",
".ro.O1OoO.O1o.o0.o  oo.> Oo.>-oX.o%; o1O&;.<o.O2.o8X+oo+Ooo>. oo",
"Xo o9 oO.o&O+oooooy6.OoOXoro.#o.Oo&+o.=O.o8.wo.Oo:. :X.&o-OoO.o.",
".o.<o.O2XOrooXX:oO.Ooor1ooOOoOXy yo;.ro+o+o:..oOor:.o..O:.oo*o% ",
"=Oo.o6.o.:y6o O:oo.0o..0.o-o.o&o.-OO.oO=-Oo#o.ooo.*=o :.o:oO*oO&",
"o..=oOO :XOoOo.o.oo.4.wO0oOO=8o..&.Oooo o*r.oo.1.o.oro:o.+$roXO1",
"oo8..&o.o%oO.o oo.=.=.o1Ooo8o.1o.;O.2=...=.O.;.:o.ot=o.$O1.oOooX",
"oXoo>=.,Oo.O.ooO.=X .Or; .OO.O.rXOoO=X.:oO.orOXo.+O.Ow =oo. O.Oo",
"..-.O-6or.O t.t6 +> oO.ooOrOo.o.1r+O.oOo+oo Oo.= o:o.%Oo.ooroo.X",
"o, Oo.o7+...oo6oO...ooO.X +X.O.Ooo1.-.ro3o.o%1*.Or oX .;.oO.>.Xo",
"O.Ooo.Oo. O1XOrOoO;X.OOo+ OOo7O1.O.oOo7.+.o.O+OoooOO<1O-OO .O;X.",
"X;. tOo=%.8.oOoo.o#O:#.o*O.O oq7X.oO0;roo-Ooo:.,.o.o.O.eo.. ooO9",
"Xoo6 o:O0o -Oo6o.O.o .OO. o%.r.7O.oX.O=O.o.r<.Oo.7@*. oO oroO.oo",
"oo7O%.%Xo.X.oro. ..O+5&;OoO o2OroO.oOoe.o1-oOo.o Oo$.o=.oO. $;1O",
">%.Ooo .ooo.O. ooO.o. ro wo.OoX.oOo1 rO.oXo.@o=.oo.+r=. .oO*oOXo",
"%or%Oo=*r.o>.o.$$Or=oOoO1=Or.Oo-..O.o.o.oOo oOo $.o*ooo=o.oo*oo1",
"o.9oo.o< o>o.ooOOo.X>O.XO. 7.71r.=o8#o*=#o>oO.ooO1o. .o6;o1.O+Xo",
"O2.o  oo.> Oo.>-o.O1OoO.O1o.o0.o8X+oo+Ooo>. oo.roX.o%; o1O&;.<o.",
".Oooy6.OoOXoro.# o9 oO.o&O+oooe:. :X.&o-OoO.o.Xo .Oo&+o.=O.o8.wo",
"oOoO.Ooor1ooOOoO.<o.O2XOrooXX:.r:.o..O:.oo*o% .o.y yo;.ro+o+o:..",
"oooo.0o..0.o-o.oo.o6.o.:y6o O: .*=o :.o:oO*oO&=Ooo.-OO.oO=-Oo#o.",
".1.oo.4.wO0oOO=8.=oOO :XOoOo.oOo.oro:o.+$roXO1o....&.Oooo o*r.oo",
".:o.=.=.o1Ooo8o.8..&o.o%oO.o oo.ot=o.$O1.oOooXoo8o.;O.2=...=.O.;",
"Xo.=X .Or; .OO.Ooo>=.,Oo.O.ooOe+O.Ow =oo. O.OooXorXOoO=X.:oO.orO",
".= +> oO.ooOrOo.o.1r+O.oOo+ooOOo.= +> oO.ooOrOo.o.1r+O.oOo+oo Oo",
"*.O...ooO.X +X.O.Ooo1.-.ro3o.o%1*.O...ooO.X +X.O.Ooo1.-.ro3o.o%1",
"OooO;X.OOo+ OOo7O1.O.oOo7.+.o.O+OooO;X.OOo+ OOo7O1.O.oOo7.+.o.O+",
".,.o#O:#.o*O.O oq7X.oO0;roo-Ooo:.,.o#O:#.o*O.O oq7X.oO0;roo-Ooo:",
"Oo.O.o .OO. o%.r.7O.oX.O=O.o.r<.Oo.O.o .OO. o%.r.7O.oX.O=O.o.r<.",
".o ..O+5&;OoO o2OroO.oOoe.o1-oOo.o ..O+5&;OoO o2OroO.oOoe.o1-oOo",
"=.oO.o. ro wo.OoX.oOo1 rO.oXo.@o=.oO.o. ro wo.OoX.oOo1 rO.oXo.@o",
"o $Or=oOoO1=Or.Oo-..O.o.o.oOo oOo $Or=oOoO1=Or.Oo-..O.o.o.oOo oO",
"ooOo.X>O.XO. 7.71r.=o8#o*=#o>oO.ooOo.X>O.XO. 7.71r.=o8#o*=#o>oO.",
".ro.O1OoO.O1o.o0.o8X+oo+Ooo>. oo.ro.O1OoO.O1o.o0.o8X+o   oo>. oo",
"Xo o9 oO.o&O+oooe:. :X.&o-OoO.o.Xo o9 oO.o&O+oooe:. :X.&o-OoO.o."
};
