/* XPM */
static char *result[] = {
/* columns rows colors chars-per-pixel */
"64 64 83 1 ",
"  c #DCBB84",
". c #D8BD88",
"X c #D2BC93",
"o c #D9BE93",
"O c #D7BF99",
"+ c #DABF9C",
"@ c #DAC08F",
"# c #D5C194",
"$ c #DCC495",
"% c #DFC79B",
"& c #DEC99F",
"* c #E1C48B",
"= c #E3CA8A",
"- c #EED18B",
"; c #E1C695",
": c #E3CB94",
"> c #E8CF97",
", c #E1C49D",
"< c #E4CB9C",
"1 c #E8CC9B",
"2 c #E7D29E",
"3 c #EAD39E",
"4 c #DFCBA3",
"5 c #D7C7AD",
"6 c #DECBAB",
"7 c #DFD0AF",
"8 c #DECEB3",
"9 c #DED0B6",
"0 c #DED1B9",
"q c #E4CDA3",
"w c #E9CEA1",
"e c #E3CEAA",
"r c #E8CEA9",
"t c #E5D2A5",
"y c #E9D3A4",
"u c #E5D2AB",
"i c #EAD5AC",
"p c #E7D9AE",
"a c #ECDAAD",
"s c #F0D5A8",
"d c #F0D9AC",
"f c #E5D4B3",
"g c #EAD6B2",
"h c #E6D8B3",
"j c #ECDBB4",
"k c #E5D6BB",
"l c #E9D6B9",
"z c #E7DABA",
"x c #ECDDBB",
"c c #F1DDB5",
"v c #F1DEBC",
"b c #EFE0B6",
"n c #EEE1BD",
"m c #F2E1B6",
"M c #F1E1BD",
"N c #E7DEC1",
"B c #EDDEC2",
"V c #EEDFC8",
"C c #F0DFC2",
"Z c #EEE2C3",
"A c #EFE9C7",
"S c #EEE4C9",
"D c #EFE8CC",
"F c #F2E3C4",
"G c #F9E5C0",
"H c #F4E9C6",
"J c #F3E6CB",
"K c #F8E6CA",
"L c #F4E9CD",
"P c #F9EBCC",
"I c #EFE7D1",
"U c #EEEAD2",
"Y c #F2E6D0",
"T c #F5EBD3",
"R c #F9EDD4",
"E c #F6EED9",
"W c #F9EED9",
"Q c #F6F0D4",
"! c #FAF1D6",
"~ c #F6F1DB",
"^ c #F9F2DC",
"/ c #F7F4E1",
"( c #FAF4E2",
/* pixels */
"<ZEWFmKJMhJuBcvZuzS~FFJETTSYLnkJpREJzcKnHMypjFFQUFjnF3F~LnHFJL!x",
"qBFJqFTtCJBekVKLfxTZEWJEHTE6&Z06!!zjrcTEMMQMjFnZjjpZTjaQxJJFPexg",
"ezBFMSzqxLTpxTJELEBJSHFFiiz8MMLSM!ZpZjEFjRQjTFKJFfSTSwnTxZxxjiyu",
"xnJJFht6JxTEFJWTcKHHjFFhv rJMFLEJ~TkzJYxLFjETRLTFMizLvjcjMKSaMFe",
"x*gxayCeypjRZFSiMLDxmhk88$SDMFJJCPSZxT3yTFZnvYFFjpNlZJpcnuNxTFnS",
"JkzMajJRsrJQF<uxREYcHMZTTlWZZTmCEhlEgSmjZZQSlLHlJHFLvx2MESSL/FMF",
"^kejcFvCxMByyzJhwLWlFRFjBxzxTi1#zquJJLxFKTFTJFHgnLy xJfiTTFFpmJj",
"8gzWTiFcT!FoiR8fzWLdFjTWZzxg8gx!TiFjTWFgiJBlBJWFrjJMxExyjzMxj:ZJ",
"FJZju:FyxRLLupFJZhy1FyZLLvjFFSZjr1FyxPLkFJFnSj6z%fLTLEFg=nJP!uiP",
"xTTvvnjijJJJjxCTLvvnhpjKHFFxxTTxCxjixKJ^FLHJAjXuFxZxSfgxWTiHcTWM",
"LBAxLJvMjSBJHFLBJxTLvMjFZTruTxHjLLBMzFnFxvJvTJaTFxTZxFDBhu:FtnKL",
"WJLFLKMjLFLiTTWDLFKLvjTFLLgxETJFKKnjYFLhJLvvJEMjwZFzlFTLcMvzijJJ",
"JKFJpfZTTTLxJMAJFJpfZTTTLFvMJKHZhhZELTLL~gqgJJht2:gFjLBJxTJxMxZM",
"CJ~nuxxZCJFLJKZKQCexxZFJJLnvCJTFuxnnFKFSuf+cSBLJyn4BBEJHFPLxjLFL",
"xxjzLWjJ!JMZBfxvgzL!jSEJvFcTxvljLEjFEJMLxxJSzFxMPDkBeKLFZhjZTTEL",
"KMFYnyjxxJFefqKFZJF3jxxHHHtnHFnTnyjxxJHZjJJVpFKxx^TJZFKExuxvCZJF",
"MHULFhxzxmKZnnFHTLFixxxnKjpxFZQYFjnzxMLnFE!jnSZufFJx!jnjzKWhHWJM",
"JBxJBZFnLMnQLnnHJL/LZFxLJnnjFnFjcLMZKKjgMMnxz6hZJgCjKHFnTZyxxxFH",
"jjGx5JJZZMFLTjjFLJKTAHFKLMjLSTLZFJjFFETi*aK/JLWLJxJxznZQJFpvjxMK",
"ZJQEffZBSMFLctb2jSDLJKShgZELLHTFFzxMgLzixgY^JJmWCreYpxbuFyxx9J~!",
"!TJArxMjCiKWJyyxTYJFLExenvnFJFZjjnHxcPMFLjglSMjnKxzTxULhjlN^BfRa",
"FZAFFTiKzhU~EyMEExxjMjzYWjJTJManJxSHjLTJFzJSFSaFfJgiLxZhyWUA~HEv",
"cKJLKFEELTYTKiBTBJHKFMYFyjzxJHRPcFvf@nEjxjzxuZZjz/RxbHKjYFxJKElE",
"YTimFjxLZxBgxJLJvHnFFTKFaxxxnK/ZBJiznK(REBjz$ZLFKZHMjFJJTTFZILFy",
"TKELMbMF4uZZnLJLvKYnFZiLWu6hM!SkSpYEFFjxFJMJjcnMLhTvxzzKJCnjFjyj",
"TJLpHynWB%uzxxFFFYJyRJFTRFTESLukjgBzzvvRvj//MMi<!ZhFUnFxufLMFynL",
"HLxyMjTTjiFgJ^FnvgMMRExxLWifuighayiFJzJKLWJSHjFhTf:FqugFvCLKFjfD",
"EJWMiLEEZxCBFJHLBfLRysxxLT2ix$TJvZugZBxBSESJHJHnMEFHnPLFJCLvHPBB",
"JPMvMJJTTJTLjgFFvnnJjMu4FFtuUBTSQxxpK/LJSK7gLMZzxESrRBYKBTMAMiHF",
"JTxZiyivxTPTjFTEpfuijMK!^TnFr#gTRnMFLfuxJTYihan6xjJgJHvvqnxHB4PM",
"TRhZF3CLJEwaxBKT2px$TL^njxJWxxTDtHFKxXBTTBYvujnLZZKKTTFvJLHaLK!E",
"JRugLTJTZJjFuqZFqeTBYxSyMTLnJ^TjzhZKjufkTzjHSJFixleJJFxjFzdaiFRx",
"KnMFFTJEFanMK!^TnFr$jpJfnjp$FBFiLSBinJZ7uiMFTxnnFHAzufTMFybjFMhx",
"yLJxxyxTEFLT^MjxLRxxLngzxchtZyjJJLJjvATHKTEETTJLLJSJvCJHMjyZLFMJ",
"LJS~FjjgJLFnStFLLnJ^TwjLKLFjnJHCKlFFJxigMTTLJHuJTJjZJZLxHHKT!Tgh",
"LJJKLKSTHEfgJgnjh$FBFhxLTQvjvnFeBVjBBBFyLFaTMFHTvLmHBTFJCcK!zeTF",
"nSKnJn^(nxcnuzvjgtSyjve,KTLaLLaiSTrBf8xuLFWFeFLxLFHmwnMJk&ScxSMF",
"pFMjtxfnMxF<xKKTFxjFJMFJTTJLFJKLZZZBzx6uq;jxxBLJFLFKxnFFhZFSLKaZ",
"njMajxuKRHJjxTLQxbMnFFBTFefMJHxk^UCJUDBDz yFQnxT^LhkJJbMKSBLQHQy",
"FFHZjFLjjnZMu,LEJaKLpLShJzgtFMqOKLLT!JLZ<FSHFhxJJa*tny:1K(^n2nKt",
"8hxEKiHvTWFxFJTLLJFJHxxgBjjFJihBvTZFFCzYEWFnMJacZx-FJ8gx~TiFvRWF",
"ZJFje1FrnLLFZTZquZJFnntJFMFRJFZFFLxHKPYWLZnJEJJPKJxKTSJZju1FyxLK",
"BTTxxnipjJFTZfSzhuHMqBFJWbFLFxLHR^~FHFhFWPLQHKncZJxBJvLLxvxhijFA",
"LBFxTKvMxZFxBfZxjFFipbFZBjMJxxKF4BMPJ^^Lp3jJP!^FBJiCJYZJxLJFMzSF",
"!JFFLKbxLJJxyJFnZWYJxnypQJnnEZzgBJYHT^TEZxu8gzEYiFjREFJFFKHbjLFL",
"HKJJhgZTTTYvSF!xFKCxJExqiJa<xFifJZTPFTKSzjhFJFju1FwZLLLJShhSELTT",
"FLExexxZMJFFFSZjxFvxJTJZSLijFTZBSqhJMvuFJJFnYLxFxjijJZH!xuxxZMKF",
"xxxzL!jFQFZnyyLJxFECxuzSEEEEFFYRFFMxyilRFxBYBJxLLnMxZFMlzLEjFEJZ",
"KMnTF3jxxJJQx<iJj<xZiJLETJJJzBxdxTLFFEFFMx!WJJFLTvjLJJZFLFyjxxHH",
"FFEJFixzxMKKASSTixHTSJJxZHnJTkqrcJL!KJFxgjTJKJShgZTTTYSLJFpZzxvK",
"vMpL~FSFWFxfzS!~EEBFJx;iFZHTYLLLM<:nJFJJawzFLQxexnZMJFTPKzBT^JFu",
"JxvTFnWJxjlJLETLJJxBxzfxFjZZHJHRLJFJjygzgZTznjjTWxFEJFKvJTuxLFFZ",
"iFnJHKLJx%LFJjFHZJLB4gjxujFijxxSK~LKMvxuLSkJFnLZyjlxKHFxxZihCjZu",
"i^vpvFKBhgBz%uSFHKUALxpJzphnqeChJQMAvxiTuujFZQJFabxxbKcnJ!FvSwjj",
"jJLvxCxKvjFjhxFjSZJKFFVJFvtrFBeMFFMj!Eke58XSxiufTBnJguLTxTKZJLHg",
"jizMFgjTRTJgjxugFijBBJYJEEe$JDxTELwiMFfNTThxz.jBBxnFZFFJFFHKFTYL",
"ZTFMLxFMFJSxuJzfgZ46FgKRWvJzlBFPFxxugFLPmPFJxnLJBxHHTnHPM@2EEJLT",
"zxnFjgxJZZWZJSZvwyFnehFLMMjJTFvFMMLSYjaMjTTZiFTZxcCESxHad3GQHFFy",
"egFHSjfZgBEJTY^Tt$JSBFFuMMSJKcjHLJcJzpMBvKxJTMfkvK~QTxcKbadMPMHi",
"jCKMMJLFZJBgKT!xJxhZFxhJxxfzT<gRLTFFJTYMgiCzBxJJFaijnnmMGManvvHL",
"TTxxHWJxJFAjFYvMjJRJMMgzvjhJxyrjE~/Jqhu:npMjxBxFFcHnMLvm!EC4xJTx",
"DKipMiijxjTGJrCFFJKcjcZLKJhlinhjDFijrxguiOMvLxiMJM!xJFFTETTJSBEL",
"xlCJTLZMhdML^LMKJTnFMamQLjLzgxxJgxiFLFxKxuM>qJFFJEnSxMLFFgF!BJLT",
"xitvHJMM33dcvdmFTTJGFTKFjhFjuFPTixheSFuZJFZjJZxMyjZFjLSqgJZzJECv"
};
